
<svg xmlns="http://www.w3.org/2000/svg" version="1.1" xmlns:xlink="http://www.w3.org/1999/xlink" preserveAspectRatio="none" x="0px" y="0px" width="538px" height="93px" viewBox="0 0 538 93">
<defs>
<g id="Layer0_0_FILL">
<path fill="#62559A" stroke="none" d="
M 173.95 38.2
Q 174 39.1 173.5 39.85 165.1 53.4 152.9 63.95 142.85 72.65 131.45 78.4 126.3 81 121.5 82.85 107.05 88.45 91.65 89.65 89.1 69.3 80.35 50.7 70.75 30.4 54.7 14.3 50.6 10.2 44.75 9.8 38.95 9.35 34.3 12.9 23.85 20.75 15.5 30.95 7.15 41.1 1.5 52.9 -0.7 57.6 0.3 62.7 1.3 67.9 5.25 71.3 21.15 85.4 40.7 92.9 58.25 99.7 77.4 100.6 77.25 100.4 77.25 100.25 77.05 95.4 76.3 89.7 59.65 88.7 44.6 82.85 26.95 76.05 12.4 63.2 11.2 62.15 10.9 60.6 10.55 59 11.25 57.55 16.3 46.95 23.85 37.75 31.35 28.6 40.8 21.5 42.05 20.55 43.65 20.55 45.6 20.55 47.1 21.95 61.75 36.65 70.6 55.3 78.4 71.85 80.8 90 81.85 97.9 81.85 105.9 81.85 118.1 79.45 129.85 71.3 128.65 62.95 128.65 37.6 128.65 14.8 139.3 12.1 140.6 10.15 142.85 8.25 145.1 7.45 147.95 6.65 150.85 7.15 153.75 7.6 156.7 9.25 159.15 16.05 169.4 25.15 177.9 34.2 186.4 44.85 192.6 48 194.4 51.65 194.4 54.6 194.4 57.25 193.2 60 191.95 61.95 189.65 71.55 178.35 78.3 165.25 82.75 156.7 86.1 146.35
L 85.95 146.45 85.6 146.4
Q 80.7 145.25 75.4 144.45 72.25 153.45 68.7 160.3 62.45 172.4 53.7 182.65 53.05 183.4 52.1 183.55 51.1 183.75 50.25 183.25 30.85 172 18.2 153.15 17.6 152.2 17.85 150.85 18.25 149.6 19.35 149.1 40 139.45 62.95 139.45 69.9 139.45 76.8 140.35 82.6 141.15 87.45 142.4
L 87.45 142.35
Q 102.15 145.95 115.3 153.7 110.9 162.55 108.35 171.5 104.85 183.5 104.15 196.1 104.05 198.25 104.85 200.2 105.65 202.15 107.25 203.6 110 206.1 113.6 206.1 114.35 206.1 115 205.95 135.85 202.9 154.15 192.05 157.6 189.95 158.55 185.95 159.45 181.9 157.1 178.55 147.15 163.85 132.85 152.75 132.85 153.1 132.8 153.15 130.15 157.35 127.7 162.4 138.5 171.1 146.35 182 146.75 182.6 146.6 183.3 146.45 184 145.8 184.35 132.25 191.85 117.15 194.7 116.35 194.85 115.75 194.3 115.15 193.7 115.2 192.9 116.15 183.3 118.7 174.55 120.95 166.95 124.35 159.75
L 131 148.1
Q 138.3 137 148.65 128.1 155.1 134.55 162.85 140 172.8 146.95 183.75 151.45 185.35 152.15 187.3 152.15 189.95 152.15 192.25 150.75 194.6 149.35 195.8 146.9 205.65 126.95 206.75 104.8 207 100.35 203.65 97.25 200.3 94.3 195.85 94.9 173.1 98.35 153.4 111.15
L 153.6 111.25
Q 156.85 115.1 160.95 119.15 176.45 109.55 193.75 106.2 194.55 106.05 195.2 106.6 195.8 107.15 195.7 108 194.25 124.5 187.35 139.55 187.1 140.15 186.45 140.4 185.85 140.6 185.2 140.35 172.95 134.85 162.5 126.15 159.6 123.75 157.25 121.45 153.7 118.05 149.85 113.45 140.6 102.25 135 88.7 148.55 82 159.95 72.1 173.15 60.7 182.6 45.6 184.95 41.85 184.65 37.45 184.35 33.1 181.5 29.7 173.8 20.55 164.6 13.5 155 6.2 144.4 1.3 139.35 -1.05 133.95 0.9 128.65 2.95 126.35 8.05 117 28.95 117 51.95 117 65.2 120.4 78.65
L 120.55 78.5
Q 125.25 76.7 130.4 74.1 127.8 63 127.8 51.95 127.8 31.15 136.2 12.45 136.65 11.4 137.75 11 138.35 10.85 138.7 10.85 139.35 10.85 139.85 11.1 159.35 20.1 173.3 36.65 173.85 37.35 173.95 38.2
M 92.65 105.9
L 92.55 100.4
Q 109.5 99.05 125.15 93.05 131.2 107.75 141.35 120.1 129.15 130.7 120.6 144.3 106.05 135.75 90.05 131.9 92.65 119.25 92.65 105.9
M 320.65 78.85
Q 320.75 66.95 314.1 60.4 306.1 52.4 288.75 52.4
L 263.85 52.5 263.85 140.55 276.5 140.55 276.5 107.55 289.45 107.55
Q 304.75 107.55 312.7 100.25 320.65 92.95 320.65 78.85
M 276.5 63.25
L 277.2 63.2
Q 281.85 63.15 284.85 63.2
L 288.35 63.2
Q 299.25 63.2 303.95 66.9 308.6 70.6 308.6 79.25 308.6 88.45 303.9 92.75 299.15 97 288.95 97
L 276.5 97 276.5 63.25
M 357.95 71.05
Q 347.5 71.2 339.7 76.65 326.85 85.6 326.4 106.7 326.25 115.15 328.7 122.25 331.2 129.3 335.95 134.2 343.45 141.8 354.25 141.8 359.15 141.8 363.45 140.3 367.75 138.8 370.65 136.05
L 371.85 134.95 371.85 140.55 383.9 140.55 383.9 73.65
Q 370.65 70.9 357.95 71.05
M 344.25 88.35
Q 349.5 82 358.8 82 365.85 82 371.3 83.1
L 371.85 83.25 371.85 124.65 371.65 124.85
Q 364.85 131.1 356.45 131.1 349.35 131.1 344.55 126.05 341.35 122.7 339.75 117.65 338.15 112.55 338.45 106.65 339 94.75 344.25 88.35
M 471.35 72.8
L 459.2 72.8 459.2 140.55 471.35 140.55 471.35 72.8
M 429.6 71.2
Q 414.3 71.2 405.05 80.7 395.8 90.2 395.55 106.05 395.55 123.95 404.15 133 412.7 142.05 429.7 142.05 438.7 142.05 446.45 140
L 444.9 129.5
Q 440.05 130.5 436.9 130.9 433.75 131.25 429.7 131.25 419 131.25 413.3 124.75 407.6 118.25 407.6 106.05 407.85 95.3 413.9 88.8 420 82.3 429.95 82.1 436.65 82.1 444.2 83.7
L 446.3 73.35
Q 437.7 71.2 429.6 71.2
M 471.3 44.2
Q 468.75 41.65 465.3 41.65 461.8 41.65 459.35 44.15 456.85 46.7 456.85 50.2 456.85 53.7 459.35 56.15 461.8 58.65 465.3 58.65 468.75 58.65 471.3 56.15 473.85 53.65 473.85 50.2 473.85 46.7 471.3 44.2
M 528.1 45.75
L 527.6 45.75
Q 515.25 45.75 507.6 50.15 497.6 56 496.7 69.05
L 496.7 73.05 485.7 73.05 485.7 82.35 496.7 82.35 496.7 140.55 509.1 140.55 509.1 82.35 535.75 82.35 535.75 140.55 547.9 140.55 547.9 73.05 509.1 73.05 509.1 69.1
Q 509.1 61.5 515.25 58.35 519.6 56.15 527.95 55.95 531.15 55.85 536 56.25 540.75 56.7 544.9 57.4
L 545.85 47.35
Q 536.85 45.75 528.1 45.75
M 593.85 71.2
Q 578.6 71.2 569.35 80.7 560.1 90.2 559.85 106.05 559.85 123.95 568.45 133 577 142.05 594 142.05 602.95 142.05 610.75 140
L 609.2 129.5
Q 604.3 130.5 601.2 130.9 598 131.25 594 131.25 583.3 131.25 577.6 124.75 571.9 118.25 571.9 106.05 572.15 95.35 578.2 88.8 584.25 82.3 594.2 82.1 600.95 82.1 608.5 83.7
L 610.6 73.35
Q 602 71.2 593.85 71.2
M 675.75 52.4
Q 661.1 52.4 651.75 52.5
L 651.75 140.55 663.9 140.55 663.9 105.95 677.5 105.95 700.2 140.55 714.8 140.55 689.45 103.85 690.35 103.55
Q 698.75 100.7 703.2 94 707.6 87.3 707.5 77.65 707.45 66.55 700.95 60.2 692.75 52.2 675.75 52.4
M 676.25 95.65
L 663.9 95.65 663.9 62.85 676.25 62.85
Q 685.85 62.85 690.6 66.6 695.4 70.35 695.5 78 695.65 86.2 691.3 90.65 686.45 95.65 676.25 95.65
M 748.6 71.05
Q 738.2 71.2 730.4 76.65 717.5 85.6 717.05 106.7 716.9 115.15 719.35 122.25 721.85 129.3 726.6 134.2 734.1 141.8 744.9 141.8 749.8 141.8 754.1 140.3 758.45 138.8 761.35 136.05
L 762.55 134.95 762.55 140.55 774.55 140.55 774.55 73.65
Q 761.85 71.05 750.25 71.05
L 748.6 71.05
M 761.95 83.1
L 762.55 83.25 762.55 124.65 762.3 124.85
Q 755.5 131.1 747.1 131.1 740 131.1 735.2 126.05 732 122.7 730.45 117.65 728.85 112.55 729.1 106.65 729.65 94.75 734.9 88.35 740.15 82 749.45 82 756.5 82 761.95 83.1
M 872.95 72.8
L 860.8 72.8 860.8 140.55 872.95 140.55 872.95 72.8
M 843.85 47.85
L 831.8 47.85 831.8 74.2 830.8 73.7
Q 828.65 72.7 824.8 71.9 820.55 71.05 816.8 71.05 801.6 71.25 793.5 82.55 786.65 92.1 786.35 106.7 786.2 115.15 788.6 122.15 791 129.2 795.65 133.9 803.45 141.8 815.4 141.8 819.8 141.8 823.8 140.6 827.8 139.4 830.7 137.25
L 831.8 136.4 831.8 140.55 843.85 140.55 843.85 47.85
M 831.4 84.65
L 831.8 84.85 831.8 125.55 831.55 125.75
Q 828.85 127.95 826.4 129.1 821.95 131.1 816.4 131.1 809.3 131.1 804.5 126.05 801.3 122.7 799.75 117.65 798.15 112.55 798.4 106.65 798.95 94.75 803.9 88.35 808.85 82 817.65 82 825.7 82 831.4 84.65
M 866.9 41.65
Q 863.4 41.65 860.95 44.15 858.45 46.7 858.45 50.2 858.45 53.7 860.95 56.15 863.4 58.65 866.9 58.65 870.4 58.65 872.9 56.15 875.45 53.65 875.45 50.2 875.45 46.7 872.9 44.2 870.4 41.65 866.9 41.65
M 918.05 71.2
Q 901.95 71.4 893.55 82.65 886.5 92.1 886.5 106.55 886.5 127.1 898.7 135.95 906.55 141.7 917.95 141.8 936.5 141.7 944.35 128.1 949.45 119.3 949.45 106.55 949.45 92.05 942.45 82.55 934.1 71.25 918.05 71.2
M 902.8 89.8
Q 908.05 81.75 917.9 81.6 927.8 81.6 933.05 89.55 937.4 96.25 937.55 106.55 937.55 120.75 930.55 127 925.65 131.3 918.05 131.35 908.8 131.35 903.55 124.8 898.3 118.2 898.3 106.55 898.3 96.65 902.8 89.8
M 974.55 140.55
L 974.55 47.6 962.75 47.6 962.75 140.55 974.55 140.55
M 1043.85 82.55
Q 1035.5 71.25 1019.45 71.2 1003.35 71.4 994.95 82.65 987.9 92.1 987.9 106.55 987.9 127.1 1000.05 135.95 1007.9 141.7 1019.3 141.8 1037.9 141.7 1045.75 128.1 1050.85 119.3 1050.85 106.55 1050.85 92.05 1043.85 82.55
M 1019.3 81.6
Q 1029.2 81.6 1034.4 89.55 1038.8 96.25 1038.95 106.55 1038.95 120.75 1031.9 127 1027.05 131.3 1019.45 131.35 1010.2 131.35 1004.95 124.8 999.7 118.2 999.7 106.55 999.7 96.65 1004.15 89.8 1009.45 81.75 1019.3 81.6
M 1090.45 71.2
Q 1076.65 71.2 1068.65 79.6 1060.65 87.95 1060.65 102.35 1060.65 117.9 1069.65 126 1077.2 132.8 1088.85 132.8 1093.3 132.8 1097.5 131.4 1101.65 130.05 1104.15 127.75
L 1105.35 126.7 1105.35 134.35
Q 1105.35 140 1104.35 143.6 1103.3 147.25 1101.1 149.4 1097.4 153.1 1089.55 153.1
L 1089.2 153.1
Q 1081.7 152.95 1070.6 150.65
L 1068.55 160.65
Q 1078.4 163.4 1089.95 163.4 1103.7 163.4 1110.4 156.6 1117.15 149.75 1117.15 135.85
L 1117.15 73.9
Q 1101.85 71.2 1090.45 71.2
M 1077.65 86.95
Q 1082.35 81.25 1090.45 81.25 1096.5 81.25 1104.65 82.85
L 1105.25 83 1105.25 117.4 1105 117.6
Q 1098.5 122.85 1089.95 123.1 1072.95 122.75 1072.95 102.35 1072.95 92.6 1077.65 86.95
M 1190.5 72.4
L 1177.35 72.4
Q 1176.4 75.25 1166.1 103.5
L 1159.05 122.9 1140.85 72.4 1127.2 72.4 1153.25 137.55 1143.05 163.3 1155.6 163.3 1190.5 72.4 Z"/>
</g>
</defs>

<g transform="matrix( 0.450653076171875, 0, 0, 0.450653076171875, 0,0) ">
<use xlink:href="#Layer0_0_FILL"/>
</g>
</svg>
