<?xml version="1.0" standalone="no"?>
<!DOCTYPE svg PUBLIC "-//W3C//DTD SVG 1.1//EN" "http://www.w3.org/Graphics/SVG/1.1/DTD/svg11.dtd" >
<svg>
<metadata>
Created by FontForge 20120731 at Tue Mar 29 01:36:51 2016
 By ,,,
Copyright (c) 2011 by Anton Studer, Nouvelle Noire. All rights reserved.
</metadata>
<defs>
<font id="NNMedien-Italic" horiz-adv-x="590" >
  <font-face 
    font-family="NN Medien"
    font-weight="400"
    font-style="italic"
    font-stretch="normal"
    units-per-em="1000"
    panose-1="2 1 5 3 4 2 0 2 0 4"
    ascent="818"
    descent="-182"
    x-height="558"
    cap-height="721"
    bbox="-102 -247 2327 836"
    underline-thickness="60"
    underline-position="-190"
    unicode-range="U+0020-FB04"
  />
<missing-glyph horiz-adv-x="220" 
 />
    <glyph glyph-name="ff" unicode="ff" horiz-adv-x="639" 
d="M144 -160l-64 1l67 663h-102l5 56h103l1 10q5 42 14.5 73.5t29.5 63t58.5 49.5t92.5 19q31 0 63 -4l-11 -57q-38 4 -66 2q-34 -1 -57.5 -14.5t-35 -37t-16.5 -42.5t-9 -45q-1 -6 -1 -8l-1 -9h198l1 10q5 42 14.5 73.5t29.5 63t58.5 49.5t92.5 19q44 0 85 -6l-11 -57
q-50 7 -88 4q-34 -1 -57.5 -14.5t-35 -37t-16.5 -42.5t-9 -45q-1 -6 -1 -8l-1 -9h169l-4 -56h-171l-65 -664l-64 1l67 663h-198z" />
    <glyph glyph-name="fi" unicode="fi" horiz-adv-x="597" 
d="M463 0h-64l44 504h-233l-66 -664h-62l66 664h-103l7 56h103l4 37q9 76 66 126t146 49q79 0 172 -23l-20 -55q-91 25 -167 21q-69 -3 -98.5 -34.5t-36.5 -84.5l-4 -36h295z" />
    <glyph glyph-name="fl" unicode="fl" horiz-adv-x="617" 
d="M497 0h-60l62 699q-92 21 -152 17q-68 -3 -93.5 -34t-32.5 -86l-4 -36h149l-7 -56h-149l-58 -664h-62l58 664h-103l7 56h103l4 37q10 78 61 126t139 47q75 0 156 -18l47 -8z" />
    <glyph glyph-name="ffi" unicode="ffi" horiz-adv-x="856" 
d="M403 -160h-62l66 664h-198l-65 -663h-64l67 663h-102l5 56h103l1 10q5 42 14.5 73.5t29.5 63t58.5 49.5t92.5 19q31 0 63 -4l-11 -57q-38 4 -66 2q-34 -1 -57.5 -14.5t-35 -37t-16.5 -42.5t-9 -45q-1 -6 -1 -8l-1 -9h199l4 37q9 76 66 126t146 49q79 0 172 -23l-20 -55
q-91 25 -167 21q-69 -3 -98.5 -34.5t-36.5 -84.5l-4 -36h295l-49 -560h-64l44 504h-233z" />
    <glyph glyph-name="ffl" unicode="ffl" horiz-adv-x="875" 
d="M755 0h-60l62 699q-92 21 -152 17q-114 -6 -125 -120l-4 -36h148l-7 -56h-149l-58 -664h-62l58 664h-197l-65 -663h-64l67 663h-102l5 56h103l1 10q5 42 14.5 73.5t29.5 63t58.5 49.5t92.5 19q31 0 63 -4l-11 -57q-38 4 -66 2q-34 -1 -57.5 -14.5t-35 -37t-16.5 -42.5
t-9 -45q-1 -6 -1 -8l-1 -9h198l4 37q10 78 61 126t139 47q75 0 156 -18l47 -8z" />
    <glyph glyph-name="fj" unicode="fj" horiz-adv-x="599" 
d="M220 596l-4 -36h295l-51 -487q-13 -137 -63.5 -192t-135.5 -61l7 60q60 9 89.5 52.5t39.5 144.5l44 427h-232l-66 -664h-62l66 664h-102l6 56h103l4 37q9 80 65 128t147 47q79 0 172 -23l-20 -55q-91 25 -167 21q-69 -3 -98.5 -34.5t-36.5 -84.5z" />
    <glyph glyph-name="ffj" unicode="ffj" horiz-adv-x="859" 
d="M403 -160h-62l66 664h-198l-65 -663h-64l67 663h-102l5 56h103l1 10q5 42 14.5 73.5t29.5 63t58.5 49.5t92.5 19q31 0 63 -4l-11 -57q-38 4 -66 2q-34 -1 -57.5 -14.5t-35 -37t-16.5 -42.5t-9 -45q-1 -6 -1 -8l-1 -9h199l4 37q9 76 66 126t146 49q79 0 172 -23l-20 -55
q-91 25 -167 21q-69 -3 -98.5 -34.5t-36.5 -84.5l-4 -36h295l-51 -487q-13 -137 -63.5 -192t-135.5 -61l7 60q60 9 89.5 52.5t39.5 144.5l44 427h-232z" />
    <glyph glyph-name=".notdef" horiz-adv-x="220" 
 />
    <glyph glyph-name=".null" horiz-adv-x="0" 
 />
    <glyph glyph-name="nonmarkingreturn" horiz-adv-x="333" 
 />
    <glyph glyph-name="space" unicode=" " horiz-adv-x="220" 
 />
    <glyph glyph-name="exclam" unicode="!" horiz-adv-x="409" 
d="M218 223h-59l46 498h70zM107 47q3 28 23 46.5t48 18.5t44.5 -18.5t13.5 -46.5q-2 -28 -22.5 -46t-48.5 -18t-44 18t-14 46z" />
    <glyph glyph-name="quotedbl" unicode="&#x22;" horiz-adv-x="391" 
d="M107 508h-52l23 265h60zM308 508h-52l23 265h60z" />
    <glyph glyph-name="numbersign" unicode="#" horiz-adv-x="749" 
d="M55 196l5 47h153l16 153h-153l5 48h153l18 181h64l-20 -181h185l20 181h57l-19 -181h155l-5 -48h-155l-15 -153h154l-5 -47h-154l-20 -197h-60l21 197h-185l-21 -197h-60l20 197h-154zM291 396l-16 -153h185l16 153h-185z" />
    <glyph glyph-name="dollar" unicode="$" horiz-adv-x="576" 
d="M192 -98l-48 9l19 83q-87 11 -137 27l20 57q61 -19 132 -25l71 297q-84 51 -124.5 99t-31.5 115q21 153 235 153q17 0 51 -2l26 106l48 -7l-25 -102q49 -5 93 -13l-20 -57q-52 8 -88 11l-69 -287q79 -50 116 -96t31 -106q-15 -164 -236 -174q-13 -1 -42 -1zM156 562
q-3 -21 4.5 -41.5t16.5 -33.5t35 -33t39 -28.5t50 -31.5l63 263q-193 16 -208 -95zM293 323l-66 -273q184 -4 197 116q4 40 -24.5 72.5t-106.5 84.5z" />
    <glyph glyph-name="percent" unicode="%" horiz-adv-x="710" 
d="M66 107l34 -37l545 544l-34 37zM125 557q-5 -55 15.5 -86.5t69.5 -31.5q98 0 110 118q6 53 -14.5 85.5t-70.5 32.5q-48 0 -76 -32.5t-34 -85.5zM67 557q8 74 51.5 121t117.5 47q67 0 107 -49t32 -119q-8 -75 -51 -121t-117 -46q-68 0 -108 47.5t-32 119.5zM383 157
q-5 -55 15.5 -86.5t69.5 -31.5q98 0 110 118q6 53 -15 85.5t-70 32.5q-48 0 -76 -32.5t-34 -85.5zM325 157q8 74 51.5 121t117.5 47q67 0 107 -49t32 -119q-8 -75 -51 -121t-117 -46q-68 0 -108 47.5t-32 119.5z" />
    <glyph glyph-name="ampersand" unicode="&#x26;" horiz-adv-x="649" 
d="M628 -2l-78 -1l-106 113q-100 -119 -227 -119q-53 1 -91.5 17.5t-57 43t-26 51.5t-6.5 50q1 14 4 26.5t5.5 22.5t10.5 22t11.5 18.5t17 19t18 17t23 18.5t24 18t29 20.5t30.5 21.5q-96 100 -92 210q3 75 56 114.5t128 38.5q49 -1 82.5 -18.5t47.5 -45.5t18.5 -54t1.5 -51
q-8 -55 -46 -101.5t-113 -98.5l147 -155q57 85 92 190l53 -16q-52 -137 -106 -215zM94 150q0 -28 13 -48.5t34 -31.5t41 -16t39 -6q99 0 185 102l-159 169q-9 -6 -31 -21t-30 -20.5t-25 -18t-23.5 -19.5t-17.5 -19t-15 -22t-7.5 -22.5t-3.5 -26.5zM174 565q-7 -68 52 -144
l30 -32q70 49 101.5 83.5t34.5 80.5q6 48 -18.5 83t-77.5 35q-47 0 -82.5 -27t-39.5 -79z" />
    <glyph glyph-name="quotesingle" unicode="'" horiz-adv-x="183" 
d="M132 508h-52l23 265h60z" />
    <glyph glyph-name="parenleft" unicode="(" horiz-adv-x="281" 
d="M81 331q-16 -133 15 -259.5t101 -195.5h-75q-66 86 -91 210t-10 239q15 124 76.5 259.5t155.5 219.5h83q-96 -69 -167.5 -205.5t-87.5 -267.5z" />
    <glyph glyph-name="parenright" unicode=")" horiz-adv-x="259" 
d="M179 331q17 134 -18 269t-114 204h76q74 -84 102.5 -219t13.5 -260q-15 -115 -70 -239.5t-141 -209.5h-83q87 71 152.5 198t81.5 257z" />
    <glyph glyph-name="asterisk" unicode="*" horiz-adv-x="474" 
d="M239 815h53l-19 -156h-50zM45 648l22 50l142 -50l-20 -48zM126 428l-40 30l107 126l38 -29zM373 459l-45 -32l-77 128l43 30zM442 701l12 -50l-155 -47l-11 47z" />
    <glyph glyph-name="plus" unicode="+" 
d="M292 561h55l-22 -215h207l-6 -52h-207l-23 -222h-55l23 222h-207l6 52h207z" />
    <glyph glyph-name="comma" unicode="," horiz-adv-x="243" 
d="M101 114q25 2 40 -13.5t13 -43.5q-2 -38 -26.5 -88t-75.5 -101l-38 18q53 87 40 164q-4 26 10.5 44t36.5 20z" />
    <glyph glyph-name="hyphen" unicode="-" horiz-adv-x="499" 
d="M445 372l-7 -59h-349l7 59h349z" />
    <glyph glyph-name="period" unicode="." horiz-adv-x="304" 
d="M65 47q0 28 18 46.5t46 18.5t46.5 -18.5t18.5 -46.5t-18.5 -46t-46.5 -18t-46 18t-18 46z" />
    <glyph glyph-name="slash" unicode="/" horiz-adv-x="459" 
d="M105 -88h-60l309 849h60z" />
    <glyph glyph-name="zero" unicode="0" 
d="M541 346q-17 -165 -85.5 -260.5t-198.5 -96.5q-85 1 -136 48.5t-67 125t-5 183.5t41.5 184t92.5 128.5t151 50.5q84 -1 135 -51t67 -129t5 -183zM115 346q-30 -296 144 -298q67 0 114 45.5t68 108t29 144.5q32 298 -145 302q-178 -4 -210 -302z" />
    <glyph glyph-name="one" unicode="1" 
d="M449 0h-339l7 59h138l62 575l-156 -75l-24 51l197 99h54l-69 -650h137z" />
    <glyph glyph-name="two" unicode="2" 
d="M473 60l-6 -60h-409l6 58q38 35 102 94t93 86t70.5 70.5t60.5 71.5t35.5 63.5t19.5 69.5q5 43 -5.5 72.5t-34 45t-51 21.5t-62.5 6q-54 0 -145 -25l-11 58q95 26 161 27q51 1 90 -10t61.5 -29.5t38.5 -41.5t19.5 -46t6.5 -43.5t-1 -33.5q-8 -58 -35.5 -112t-80.5 -112.5
t-106.5 -107t-142.5 -122.5h326z" />
    <glyph glyph-name="three" unicode="3" 
d="M169 343l6 60h45q196 3 209 129q5 46 -18 74.5t-58 38.5t-81 10q-48 0 -142 -18l-5 57q81 20 152 21q114 3 170.5 -51t46.5 -132q-3 -52 -40.5 -98.5t-100.5 -59.5q66 -19 101.5 -75.5t25.5 -123.5q-2 -17 -6.5 -33.5t-21.5 -45.5t-43.5 -50t-77.5 -37t-117 -15
q-79 1 -167 22l21 58q77 -17 153 -19q81 -2 132.5 29.5t59.5 98.5q3 29 -2.5 54.5t-24 50t-59 39.5t-100.5 16h-58z" />
    <glyph glyph-name="four" unicode="4" 
d="M396 0h-64l23 212h-338l6 58l346 439h102l-46 -437h76l-6 -60h-76zM95 272h266l41 389z" />
    <glyph glyph-name="five" unicode="5" 
d="M181 350h-61l37 349h352l-6 -58h-291l-25 -238q63 8 120.5 0.5t100 -26.5t64.5 -63.5t15 -111.5q-2 -17 -5 -34t-19.5 -52.5t-41 -60t-74.5 -44t-115 -18.5q-105 1 -176 23l16 59q82 -21 167 -21q167 0 182 155q4 37 -6 63.5t-28.5 41.5t-52.5 23t-68 10.5t-85 2.5z" />
    <glyph glyph-name="six" unicode="6" 
d="M269 48q71 0 114.5 46t51.5 116q7 67 -20.5 110t-101.5 43q-60 0 -117 -34l-17 54q75 40 141 40q98 0 143 -59.5t35 -153.5q-11 -99 -72.5 -159t-157.5 -60q-51 0 -89.5 18t-59.5 47t-36 64.5t-18 71.5t-5.5 68t1.5 53q4 47 13 93.5t33.5 104.5t59.5 101t95 72.5
t136 29.5q78 0 122 -13l-15 -53q-58 11 -111 11q-126 -1 -193.5 -93.5t-81.5 -252.5q0 -24 -2.5 -56.5t6 -69.5t22.5 -67.5t46.5 -51t77.5 -20.5z" />
    <glyph glyph-name="seven" unicode="7" 
d="M233 -1h-64l278 649h-367v56h430v-58z" />
    <glyph glyph-name="eight" unicode="8" 
d="M251 -9q-53 1 -93 13.5t-63 31.5t-36.5 44t-17.5 47.5t-2 46.5q8 75 58 124t119 73q-55 26 -87 72t-26 109q6 56 41 96t83.5 57.5t104.5 17.5q57 0 98 -16t61 -42.5t28 -55.5t5 -60q-7 -64 -50.5 -109.5t-106.5 -66.5q155 -65 140 -204q-3 -33 -18 -62.5t-44 -56.5
t-79 -43t-115 -16zM440 171q3 32 -7 59t-25 43.5t-41 31.5t-44 21.5t-43 14.5q-29 -7 -55.5 -18.5t-55.5 -31t-47 -50.5t-20 -69q-4 -65 41 -93t114 -29q68 0 122 28.5t61 92.5zM167 552q-10 -100 130 -155q151 44 163 153q6 62 -33 89.5t-101 27.5q-57 0 -105 -28t-54 -87z
" />
    <glyph glyph-name="nine" unicode="9" 
d="M314 658q-74 0 -119 -51t-52 -120q-6 -64 27.5 -105t107.5 -41q63 0 121 22l13 -54q-64 -28 -140 -28q-70 0 -117 31.5t-64.5 77t-11.5 97.5q10 99 74.5 162.5t164.5 63.5q52 0 92.5 -18.5t62.5 -48t38 -66.5t19 -73t5.5 -68t-2.5 -52q-4 -38 -9 -69.5t-16.5 -73.5
t-27 -75t-41.5 -67t-59 -56.5t-81 -37t-106 -14.5q-43 0 -98 10l13 55q49 -8 92 -7q56 1 100 20t73 50t49.5 76t31.5 92.5t17 104.5q2 17 2 37.5t-3 53t-13 60.5t-26.5 54.5t-46.5 42t-70 15.5z" />
    <glyph glyph-name="colon" unicode=":" horiz-adv-x="306" 
d="M45 47q0 28 18 46.5t46 18.5t46.5 -18.5t18.5 -46.5t-18.5 -46t-46.5 -18t-46 18t-18 46zM92 495q0 28 18 46.5t46 18.5t46.5 -18.5t18.5 -46.5t-18.5 -46t-46.5 -18t-46 18t-18 46z" />
    <glyph glyph-name="semicolon" unicode=";" horiz-adv-x="287" 
d="M97 496q0 28 18 46.5t46 18.5t46.5 -18.5t18.5 -46.5t-18.5 -46t-46.5 -18t-46 18t-18 46zM106 114q25 2 40 -13.5t13 -43.5q-2 -38 -26.5 -88t-75.5 -101l-38 18q53 87 40 164q-4 26 10.5 44t36.5 20z" />
    <glyph glyph-name="less" unicode="&#x3c;" 
d="M504 141l-6 -66l-434 217l5 43l480 217l-8 -66l-391 -172z" />
    <glyph glyph-name="equal" unicode="=" 
d="M531 256l-5 -52h-468l5 52h468zM557 445l-5 -52h-468l5 52h468z" />
    <glyph glyph-name="greater" unicode="&#x3e;" 
d="M41 75l8 66l392 173l-355 172l6 66l434 -217l-5 -43z" />
    <glyph glyph-name="question" unicode="?" horiz-adv-x="522" 
d="M182 217l16 177q84 28 128.5 60t49.5 84q7 67 -28 90t-100 23q-38 0 -135 -18l-7 55q83 19 147 20q63 2 105 -15t58.5 -46t21.5 -54.5t2 -52.5q-13 -120 -180 -184l-16 -139h-62zM131 47q-3 -28 13 -46t44 -18t48.5 18t23.5 46t-13.5 46.5t-44.5 18.5t-48 -18.5
t-23 -46.5z" />
    <glyph glyph-name="at" unicode="@" horiz-adv-x="851" 
d="M419 18q113 1 198 57l27 -46q-56 -35 -120.5 -51t-110.5 -15q-153 2 -242 94t-72 250q16 154 115 257t257 103q148 0 224.5 -91t59.5 -220q-13 -99 -75.5 -152.5t-159.5 -53.5h-90q-50 0 -83.5 19.5t-46.5 50.5t-16.5 57.5t-0.5 52.5q8 72 60.5 119t140.5 45l79 -2
l-29 -293q66 -1 110.5 38.5t53.5 118.5q6 49 -3.5 93t-35.5 81.5t-76.5 60t-120.5 22.5q-71 0 -128.5 -26.5t-94 -71t-57.5 -97t-27 -111.5q-13 -125 56.5 -206t207.5 -83zM335 330q-13 -133 100 -133h48l23 245l-30 3q-64 1 -100.5 -34.5t-40.5 -80.5z" />
    <glyph glyph-name="A" unicode="A" horiz-adv-x="642" 
d="M0 0l335 723h68l194 -723h-68l-56 212h-307l-97 -212h-69zM363 647l-172 -376h268z" />
    <glyph glyph-name="B" unicode="B" horiz-adv-x="598" 
d="M249 0h-179l76 721l175 2q107 2 168.5 -45t51.5 -135q-6 -54 -35.5 -97t-82.5 -64q51 -22 79 -69.5t21 -109.5q-11 -102 -82.5 -152.5t-191.5 -50.5zM478 543q7 64 -37 92t-126 27q-74 0 -111 -1l-63 -601h115q188 0 204 143q8 71 -33.5 109.5t-131.5 38.5h-63l6 55h59
q82 0 128 36t53 101z" />
    <glyph glyph-name="C" unicode="C" horiz-adv-x="612" 
d="M528 72l8 -57q-78 -25 -181 -25q-162 0 -235 102.5t-56 263.5q18 166 109 269.5t259 103.5q86 0 165 -25l-20 -57q-100 22 -152 22q-74 0 -130.5 -26.5t-90.5 -72.5t-52.5 -99t-24.5 -115q-6 -61 2.5 -113.5t33.5 -97t75.5 -70t122.5 -25.5q79 0 167 22z" />
    <glyph glyph-name="D" unicode="D" horiz-adv-x="699" 
d="M70 0l75 720q75 3 170 3q166 1 252 -103.5t69 -263.5q-17 -161 -113.5 -260t-264.5 -99q-5 0 -188 3zM311 667q-3 0 -108 -3l-63 -606q50 -2 123 -2q74 0 132 24t93.5 67t56 95t26.5 114q15 138 -52 225t-208 86z" />
    <glyph glyph-name="E" unicode="E" horiz-adv-x="551" 
d="M467 60l-6 -60h-391l75 721h391l-6 -59h-327l-25 -244h290l-7 -61h-290l-31 -297h327z" />
    <glyph glyph-name="F" unicode="F" horiz-adv-x="546" 
d="M134 0h-64l75 721h391l-6 -59h-327l-25 -244h299l-7 -61h-299z" />
    <glyph glyph-name="G" unicode="G" horiz-adv-x="681" 
d="M606 378l-36 -351q-93 -38 -215 -38q-85 0 -146 28t-94.5 78.5t-46 116t-4.5 144.5q18 164 113.5 268.5t264.5 104.5q88 0 174 -25l-21 -58q-92 23 -160 23q-74 0 -132 -26.5t-93 -72.5t-55 -99.5t-26 -114.5t2.5 -113.5t33 -97t75 -70t122.5 -25.5q79 0 148 20l26 243
h-167l6 65h231z" />
    <glyph glyph-name="H" unicode="H" horiz-adv-x="700" 
d="M560 0h-63l37 358h-363l-37 -358h-64l75 721h64l-32 -304h363l32 304h63z" />
    <glyph glyph-name="I" unicode="I" horiz-adv-x="393" 
d="M289 57l-6 -57h-246l6 57h93l64 608h-91l5 56h242l-5 -56h-91l-64 -608h93z" />
    <glyph glyph-name="J" unicode="J" horiz-adv-x="424" 
d="M359 719l-50 -477q-13 -128 -59.5 -189.5t-159.5 -65.5q-39 -2 -80 4l15 59q35 -4 63 -3q81 3 114 49t44 146l50 477h63z" />
    <glyph glyph-name="K" unicode="K" horiz-adv-x="628" 
d="M238 397l5 6l286 318h81l-292 -326l247 -395h-75zM134 0h-64l75 721h64z" />
    <glyph glyph-name="L" unicode="L" horiz-adv-x="522" 
d="M461 0h-391l75 721h64l-69 -661h327z" />
    <glyph glyph-name="M" unicode="M" horiz-adv-x="882" 
d="M162 720h76l177 -645l311 645h81l-28 -720h-68l30 605l-296 -605h-72l-170 605l-96 -605h-67z" />
    <glyph glyph-name="N" unicode="N" horiz-adv-x="705" 
d="M134 0h-64l75 721h55l314 -606l63 606h63l-75 -721h-58l-310 600z" />
    <glyph glyph-name="O" unicode="O" horiz-adv-x="742" 
d="M63 358q18 164 105.5 267.5t241.5 103.5q99 0 164.5 -52.5t90 -135.5t13.5 -185q-17 -162 -105.5 -264.5t-236.5 -102.5q-144 0 -216.5 105t-56.5 264zM612 356q3 47 2 91.5t-15.5 84.5t-37.5 70t-63.5 48t-94.5 18q-63 0 -114.5 -27t-83.5 -72.5t-51.5 -99t-25.5 -113.5
q-6 -61 1.5 -113.5t30.5 -96t68.5 -69t109.5 -25.5q83 0 144.5 45.5t91 111.5t38.5 147z" />
    <glyph glyph-name="P" unicode="P" horiz-adv-x="586" 
d="M485 515q8 79 -33.5 113.5t-137.5 34.5q-70 0 -111 -1l-69 -662h-64l75 721q85 1 175 1q118 0 179 -51.5t50 -155.5q-12 -116 -73.5 -171t-191.5 -55h-58l6 60h59q94 0 139 39t55 127z" />
    <glyph glyph-name="Q" unicode="Q" horiz-adv-x="767" 
d="M76 358q18 164 105.5 267.5t241.5 103.5q99 0 164.5 -52.5t90 -135.5t13.5 -185q-12 -116 -62.5 -204t-133.5 -130q41 -82 134 -117.5t212 -32.5v-54q-301 -8 -407 181q-45 -10 -85 -10q-144 0 -216.5 105t-56.5 264zM625 356q3 47 2 91.5t-15.5 84.5t-37.5 70t-63.5 48
t-94.5 18q-63 0 -114.5 -27t-83.5 -72.5t-51.5 -99t-25.5 -113.5q-6 -61 1.5 -113.5t30.5 -96t68.5 -69t109.5 -25.5q83 0 144.5 45.5t91 111.5t38.5 147z" />
    <glyph glyph-name="R" unicode="R" horiz-adv-x="603" 
d="M476 534q5 70 -36 99.5t-129 29.5q-68 0 -108 -1l-69 -662h-64l75 721q142 2 172 2q107 0 168.5 -45.5t53.5 -143.5q-16 -177 -184 -212l193 -322h-77l-185 315h-57l5 60h57q172 0 185 159z" />
    <glyph glyph-name="S" unicode="S" horiz-adv-x="531" 
d="M25 21l23 61q90 -27 171 -27q168 0 180 95q5 48 -30.5 92.5t-140.5 115.5q-75 50 -115 102t-36 113q0 13 4 29t18.5 40.5t37 43t65.5 31.5t98 12q101 -1 186 -26l-17 -56q-87 23 -176 23q-141 0 -152 -99q-5 -39 31 -79t106 -90q39 -28 61 -45t52 -44.5t45 -50
t24.5 -52.5t5.5 -61q-3 -29 -14.5 -54.5t-38 -50.5t-78 -39t-123.5 -13q-101 2 -187 29z" />
    <glyph glyph-name="T" unicode="T" horiz-adv-x="545" 
d="M261 0h-64l69 664h-211l6 57h484l-6 -57h-209z" />
    <glyph glyph-name="U" unicode="U" horiz-adv-x="665" 
d="M180 721l-47 -445q-7 -52 -5 -94.5t15.5 -71.5t51 -45t100.5 -16q109 0 153.5 54.5t56.5 172.5l47 445h63l-47 -445q-8 -76 -23.5 -126t-47 -88t-82 -55.5t-125.5 -17.5q-79 0 -129 20.5t-70 58t-25.5 90.5t3.5 118l47 445h64z" />
    <glyph glyph-name="V" unicode="V" horiz-adv-x="583" 
d="M277 0h-66l-176 721h66l149 -638l287 638h71z" />
    <glyph glyph-name="W" unicode="W" horiz-adv-x="868" 
d="M639 0h-63l-120 622l-243 -622h-67l-112 721h67l88 -616l240 616h68l118 -613l210 613h68z" />
    <glyph glyph-name="X" unicode="X" horiz-adv-x="629" 
d="M557 0h-70l-171 324l-243 -324h-73l283 375l-190 346h67l161 -294l221 294h72l-260 -346z" />
    <glyph glyph-name="Y" unicode="Y" horiz-adv-x="495" 
d="M235 0h-64l29 281l-175 440h67l143 -374l225 374h70l-266 -438z" />
    <glyph glyph-name="Z" unicode="Z" horiz-adv-x="596" 
d="M508 60l-6 -60h-477l5 55l457 604h-377l6 59h460l-5 -48l-461 -610h398z" />
    <glyph glyph-name="bracketleft" unicode="[" horiz-adv-x="227" 
d="M282 782l-6 -56h-124l-85 -810h124l-6 -56h-185l96 922h186z" />
    <glyph glyph-name="backslash" unicode="\" horiz-adv-x="459" 
d="M414 -88h-60l-309 849h60z" />
    <glyph glyph-name="bracketright" unicode="]" horiz-adv-x="227" 
d="M35 726l6 56h186l-97 -922h-185l6 56h123l85 810h-124z" />
    <glyph glyph-name="asciicircum" unicode="^" horiz-adv-x="833" 
 />
    <glyph glyph-name="underscore" unicode="_" horiz-adv-x="599" 
d="M527 -24l-7 -59h-449l7 59h449z" />
    <glyph glyph-name="grave" unicode="`" horiz-adv-x="274" 
d="M225 637l-54 -1l-126 193h69z" />
    <glyph glyph-name="a" unicode="a" horiz-adv-x="554" 
d="M430 0h-63l14 169q-31 -80 -84 -127.5t-106 -47.5q-79 0 -108.5 77t-18.5 207q5 53 12.5 92t26 79.5t46.5 65t74.5 39t108.5 12.5l147 -7zM127 270q-16 -216 70 -216q56 0 122 90t80 194l14 166l-84 4q-108 4 -150.5 -54.5t-51.5 -183.5z" />
    <glyph glyph-name="b" unicode="b" horiz-adv-x="564" 
d="M213 762l-35 -359q106 169 212 169q126 0 108 -223q-3 -42 -5.5 -64.5t-8 -59.5t-12 -58t-19 -49.5t-27.5 -44.5t-38 -34.5t-51.5 -27t-66.5 -14t-84 -3.5l-111 8l74 760h64zM432 329q7 90 -3 136.5t-47 46.5q-58 0 -134.5 -92t-88.5 -195l-17 -171l47 -2q78 -3 127.5 15
t72.5 64.5t29 77t12 101.5q1 13 2 19z" />
    <glyph glyph-name="c" unicode="c" horiz-adv-x="485" 
d="M131 324q-3 -27 -4.5 -43t-3.5 -44t-1 -46.5t3.5 -42t9 -38.5t16 -29.5t25 -21t35.5 -6.5q42 0 82 17.5t112 67.5l34 -47q-126 -99 -234 -97q-36 0 -62.5 13.5t-42 33.5t-25 51t-13 57.5t-2.5 63.5t3 58.5t6 52.5q16 137 80.5 192.5t172.5 53.5q33 -1 125 -16l-14 -58
q-86 14 -117 15q-74 3 -121.5 -38t-63.5 -149z" />
    <glyph glyph-name="d" unicode="d" horiz-adv-x="547" 
d="M422 562l19 200h60l-69 -762h-63l13 166q-34 -80 -84.5 -126t-101.5 -46q-62 0 -100.5 56t-32.5 180q2 36 4 63t9 65t17 65t29 57t44.5 48t63 29t84.5 9zM128 250q-12 -196 76 -196q47 0 113.5 86.5t83.5 199.5l14 163l-101 5q-47 2 -81 -14.5t-52.5 -40t-30.5 -62.5
t-15.5 -68.5t-6.5 -72.5z" />
    <glyph glyph-name="e" unicode="e" horiz-adv-x="505" 
d="M308 570q69 -3 108 -43t33 -96q-4 -47 -30 -81t-74.5 -55t-99.5 -33.5t-127 -23.5q-13 -185 93 -185q80 0 193 90l34 -49q-71 -54 -122 -77t-110 -23q-35 0 -61.5 11.5t-43 28t-26.5 44.5t-14 50t-4.5 56t0.5 52.5t3 47.5q8 68 21.5 115t40 89t73 62.5t113.5 19.5z
M292 515q-37 0 -65.5 -14t-45.5 -33.5t-29.5 -51t-18 -57t-10.5 -61.5q116 11 187 44.5t75 86.5q3 39 -20 62.5t-73 23.5z" />
    <glyph glyph-name="f" unicode="f" horiz-adv-x="379" 
d="M144 -160l-64 1l67 663h-102l5 56h103l1 10q5 42 14.5 73.5t29.5 63t58.5 49.5t92.5 19q44 0 85 -6l-11 -57q-50 7 -88 4q-34 -1 -57.5 -14.5t-35 -37t-16.5 -42.5t-9 -45q-1 -6 -1 -8l-1 -9h169l-4 -56h-171z" />
    <glyph glyph-name="g" unicode="g" horiz-adv-x="575" 
d="M373 28l16 139q-78 -130 -196 -130q-65 0 -96.5 59.5t-21.5 179.5q6 78 22 131t48.5 92.5t86.5 55.5t132 9l126 -7l-55 -537q-29 -205 -239 -207q-66 -1 -146 20l13 60q80 -20 133 -20q156 0 177 155zM138 294q-19 -199 63 -199q69 0 130.5 71t75.5 175l15 162l-61 3
q-110 8 -161 -39.5t-62 -172.5z" />
    <glyph glyph-name="h" unicode="h" horiz-adv-x="581" 
d="M460 0h-64l33 412q4 43 -2 66.5t-15.5 29t-24.5 5.5q-51 0 -127 -84.5t-98 -185.5l-22 -243h-65l80 761h64l-38 -364q40 76 98 125t111 49q121 0 103 -158z" />
    <glyph glyph-name="i" unicode="i" horiz-adv-x="291" 
d="M139 0h-64l59 560h64zM128 733q3 24 18.5 39.5t40.5 15.5q23 0 37.5 -16.5t11.5 -38.5q-2 -23 -18 -38.5t-42 -15.5q-22 0 -36 16t-12 38z" />
    <glyph glyph-name="j" unicode="j" horiz-adv-x="310" 
d="M101 77l50 483h64l-51 -487q-14 -128 -61.5 -187.5t-127.5 -65.5q-35 -3 -75 3l11 56q36 -3 61 1q56 9 87.5 55t41.5 142zM144 733q3 24 18.5 39.5t40.5 15.5q23 0 37.5 -16.5t11.5 -38.5q-2 -23 -18 -38.5t-42 -15.5q-22 0 -36 16t-12 38z" />
    <glyph glyph-name="k" unicode="k" horiz-adv-x="558" 
d="M218 195l8 52q84 0 146 50.5t72 134.5q2 38 -12.5 60.5t-42.5 22.5q-22 0 -57.5 -24t-71.5 -62t-64.5 -91.5t-34.5 -104.5l-25 -233h-61l81 762h60l-37 -366q32 65 91 119t125 54q43 0 76 -34t28 -104q-5 -66 -39.5 -118.5t-86.5 -82.5l123 -230h-70l-108 208
q-60 -17 -100 -13z" />
    <glyph glyph-name="l" unicode="l" horiz-adv-x="272" 
d="M136 0h-61l81 762h61z" />
    <glyph glyph-name="m" unicode="m" horiz-adv-x="890" 
d="M759 0h-64l43 412q4 43 -2.5 66.5t-16.5 29t-25 5.5q-42 0 -112 -69.5t-99 -158.5l-23 -285h-64l33 412q4 43 -2 66.5t-15.5 29t-24.5 5.5q-50 0 -131 -89.5t-95 -193.5l-22 -230h-64l58 560h64l-16 -163q33 69 95 121.5t114 52.5q121 0 103 -158l-1 -6q40 71 98.5 117.5
t109.5 46.5q120 0 102 -158z" />
    <glyph glyph-name="n" unicode="n" horiz-adv-x="581" 
d="M450 0h-64l43 412q4 43 -2.5 66.5t-16 29t-24.5 5.5q-50 0 -130.5 -89.5t-94.5 -193.5l-22 -230h-64l58 560h64l-16 -163q35 70 95.5 122t112.5 52q122 0 104 -158z" />
    <glyph glyph-name="o" unicode="o" horiz-adv-x="552" 
d="M485 281q-32 -292 -251 -292q-54 1 -92 26t-55 65.5t-23.5 93t2.5 107.5q13 126 79 207t182 82q189 0 158 -289zM129 281q-26 -234 113 -234q49 1 83.5 21.5t53.5 56.5t28.5 72t14.5 84q4 34 5 60t-2.5 60.5t-14 56.5t-33.5 38t-57 16q-48 -1 -84.5 -21.5t-57.5 -55.5
t-32.5 -72.5t-16.5 -81.5z" />
    <glyph glyph-name="p" unicode="p" horiz-adv-x="553" 
d="M119 560l65 -1l-17 -158q104 171 213 171q63 0 90.5 -50t15.5 -167q-14 -142 -36 -204q-57 -159 -220 -153l-106 4l-17 -184h-62zM420 335q11 81 1 129t-49 48q-51 0 -125.5 -84t-96.5 -189l-18 -174l101 -6q26 -1 48 4.5t38.5 14.5t30.5 25t23 30.5t17 37.5t12 39.5
t8 43t6 41.5t4 40z" />
    <glyph glyph-name="q" unicode="q" horiz-adv-x="556" 
d="M352 -180l30 348q-38 -89 -89 -131.5t-104 -42.5q-66 0 -100 62.5t-25 182.5q5 72 11 113t25 91.5t50.5 75t88 38.5t136.5 7l106 -5l-65 -739h-64zM130 259q-9 -87 8 -146t59 -59q52 0 122.5 92.5t82.5 191.5l13 166l-43 2q-76 7 -122.5 -4t-70.5 -49t-32.5 -77
t-16.5 -117z" />
    <glyph glyph-name="r" unicode="r" horiz-adv-x="420" 
d="M413 566l-11 -60q-18 3 -35 3q-65 -1 -128 -79.5t-75 -185.5l-25 -244h-64l58 560h64l-12 -125q75 135 178 135q28 0 50 -4z" />
    <glyph glyph-name="s" unicode="s" horiz-adv-x="407" 
d="M25 17l19 59q83 -23 135 -23q107 0 114 65q4 24 -15.5 52.5t-37.5 44t-52 42.5q-71 57 -104.5 101.5t-26.5 99.5q15 117 179 112q65 -1 136 -18l-15 -57q-66 17 -124 17q-109 0 -114 -56q-2 -37 20.5 -66.5t85.5 -80.5q72 -57 96 -85q43 -53 38 -111q-3 -24 -11 -42
t-27 -37.5t-56.5 -30t-91.5 -10.5q-70 0 -148 24z" />
    <glyph glyph-name="t" unicode="t" horiz-adv-x="362" 
d="M352 560l-6 -58h-156l-38 -364q-4 -41 5 -62t36 -20q44 1 121 39l25 -52q-82 -48 -150 -48q-115 0 -99 143l38 364h-93l6 54l93 4l14 129h62l-14 -129h156z" />
    <glyph glyph-name="u" unicode="u" horiz-adv-x="577" 
d="M419 340l23 220h60l-52 -560h-64l16 168q-26 -71 -81.5 -123t-107.5 -52q-53 0 -84 26.5t-38.5 59t-3.5 68.5l44 413h64l-44 -412q-3 -32 2 -53t17.5 -28.5t21.5 -9.5t24 -2q55 0 122 88t81 197z" />
    <glyph glyph-name="v" unicode="v" horiz-adv-x="491" 
d="M228 -3h-67l-126 563h71l104 -491q16 27 41 73.5t78.5 176t79.5 241.5h67q-42 -169 -114 -324.5t-134 -238.5z" />
    <glyph glyph-name="w" unicode="w" horiz-adv-x="755" 
d="M547 -3h-66l-89 482l-199 -484h-64l-94 565h66l69 -469l190 469h75l94 -485q12 26 31 71.5t59 173.5t60 240h61q-37 -196 -94 -346t-99 -217z" />
    <glyph glyph-name="x" unicode="x" horiz-adv-x="533" 
d="M297 292l168 -292h-73l-133 245l-180 -245h-79l226 296l-147 264h74l114 -218l163 218h78z" />
    <glyph glyph-name="y" unicode="y" horiz-adv-x="564" 
d="M416 414l14 146l59 -1l-54 -539q-30 -203 -233 -207q-66 -2 -152 20l13 60q25 -6 42.5 -10t50 -8t56.5 -2t53 10.5t49 25t36.5 47t22.5 72.5l26 216q-43 -81 -104.5 -127.5t-114.5 -46.5q-63 0 -85.5 48t-9.5 168l23 273h62l-19 -253q-12 -81 -5.5 -128.5t42.5 -47.5
q54 0 134.5 92t93.5 192z" />
    <glyph glyph-name="z" unicode="z" horiz-adv-x="497" 
d="M472 558l-5 -46q-62 -129 -156.5 -248t-192.5 -207h314v-57h-395v54q10 8 26.5 23.5t64.5 64t91 98t94.5 121.5t86.5 140h-316v57h388z" />
    <glyph glyph-name="braceleft" unicode="{" horiz-adv-x="312" 
d="M178 164l-12 -113q-6 -61 22.5 -98t86.5 -43l-5 -52q-80 4 -125 56t-36 136l12 113q5 47 -23.5 89t-82.5 48l6 57q55 6 92 43.5t42 83.5l11 103q20 187 201 195l-6 -54q-124 -13 -137 -142l-11 -103q-12 -117 -113 -156q90 -43 78 -163z" />
    <glyph glyph-name="bar" unicode="|" horiz-adv-x="357" 
d="M199 822h58l-99 -942h-58z" />
    <glyph glyph-name="braceright" unicode="}" horiz-adv-x="314" 
d="M88 51l12 113q6 58 35 100t78 63q-92 38 -80 156l11 103q13 129 -107 142l4 52q85 -4 128 -56t33 -137l-11 -103q-5 -46 24 -83.5t84 -43.5l-6 -57q-55 -6 -93 -48t-43 -89l-12 -113q-9 -88 -59 -139.5t-141 -55.5l7 55q58 6 94 43t42 98z" />
    <glyph glyph-name="asciitilde" unicode="~" 
d="M412 267q22 0 39.5 11.5t26 25t15 38t8.5 37t4 34.5h58q-20 -200 -156 -200q-33 0 -66.5 25.5t-56 56t-49 56t-47.5 25.5q-30 0 -51.5 -17.5t-31.5 -44.5t-14.5 -47t-5.5 -37h-58q21 201 165 201q35 0 68.5 -25.5t55.5 -56.5t48 -56.5t48 -25.5z" />
    <glyph glyph-name="uni00A0" unicode="&#xa0;" horiz-adv-x="0" 
 />
    <glyph glyph-name="exclamdown" unicode="&#xa1;" horiz-adv-x="409" 
d="M161 332h59l-46 -498h-70zM272 508q-3 -28 -23 -46.5t-48 -18.5t-44.5 18.5t-13.5 46.5q2 28 22.5 46t48.5 18t44 -18t14 -46z" />
    <glyph glyph-name="cent" unicode="&#xa2;" 
d="M283 -52l-54 10l24 134q-75 12 -119 58.5t-56 104t-4 127.5q7 56 26 103.5t52 87.5t85 65t119 29l26 142l54 -10l-24 -132q54 -1 124 -16l-15 -55q-60 12 -119 14l-84 -464q86 0 163 16l6 -57q-24 -5 -68.5 -9.5t-77.5 -6.5l-33 -2zM137 382q-21 -202 126 -232l83 458
q-64 -7 -111 -43.5t-69.5 -83t-28.5 -99.5z" />
    <glyph glyph-name="sterling" unicode="&#xa3;" 
d="M511 58l-6 -58h-455l12 58q78 8 91 102l19 180h-93l6 56h93l14 136q14 91 60.5 134t129.5 45q90 0 154 -60l-33 -43q-58 48 -125 46q-56 -2 -87 -34t-39 -105l-12 -119h249l-6 -56h-249l-19 -179q-10 -69 -41 -103h337z" />
    <glyph glyph-name="yen" unicode="&#xa5;" 
d="M522 392l-5 -52h-173l-42 -67l-29 -273h-64l29 271l-29 69h-180l5 52h153l-126 299h66l145 -365l223 365h71l-189 -299h145z" />
    <glyph glyph-name="brokenbar" unicode="&#xa6;" horiz-adv-x="355" 
d="M197 822h58l-36 -346h-58zM141 292h58l-41 -392h-58z" />
    <glyph glyph-name="section" unicode="&#xa7;" horiz-adv-x="522" 
d="M486 720l-17 -53q-106 30 -160 30q-104 0 -113 -91q-2 -18 8 -38.5t30.5 -42.5t37.5 -38t43.5 -38t34.5 -29q46 -41 65.5 -76.5t15.5 -85.5h-57q-1 23 -5 38t-20.5 35t-28 30.5t-49.5 44.5q-79 69 -94 85q-52 56 -45 118q3 25 12 47t28 45.5t56.5 37t89.5 13.5
q67 0 168 -32zM33 -30l17 56q109 -31 160 -31q105 0 114 93q2 18 -7.5 39t-30.5 43.5t-37 37.5t-43.5 38.5t-34.5 29.5q-50 44 -69 75.5t-14 80.5h57q1 -23 5 -38t20.5 -35t28 -30.5t49.5 -44.5q34 -30 40.5 -35.5t32.5 -30t31.5 -34.5t18 -30.5t14.5 -38.5t0 -39
q-14 -138 -184 -138q-67 0 -168 32z" />
    <glyph glyph-name="dieresis" unicode="&#xa8;" horiz-adv-x="428" 
d="M45 730q0 24 16 40.5t39 16.5q24 0 40.5 -16.5t16.5 -40.5q0 -23 -16.5 -39.5t-40.5 -16.5q-23 0 -39 16.5t-16 39.5zM271 730q0 24 16 40.5t39 16.5q24 0 40.5 -16.5t16.5 -40.5q0 -23 -16.5 -39.5t-40.5 -16.5q-23 0 -39 16.5t-16 39.5z" />
    <glyph glyph-name="copyright" unicode="&#xa9;" horiz-adv-x="886" 
d="M65 350q0 164 109.5 271t268.5 107t268.5 -107t109.5 -271q0 -166 -106 -272t-272 -106q-167 0 -272.5 106t-105.5 272zM123 350q0 -142 88.5 -231t231.5 -89t231.5 89t88.5 231q0 140 -92.5 230t-227.5 90t-227.5 -90t-92.5 -230zM353 372q8 72 36.5 97t79.5 23t94 -9
l11 47q-43 9 -101 11q-77 2 -120 -37t-52 -132q-11 -103 0 -146q20 -80 105 -81q67 -1 161 67l-24 39q-51 -34 -77.5 -46t-54.5 -12t-44 15.5t-19 44.5t-1.5 54t5.5 59q1 4 1 6z" />
    <glyph glyph-name="ordfeminine" unicode="&#xaa;" horiz-adv-x="386" 
d="M354 300l-5 -46h-306l5 46h306zM312 392h-52l10 89q-38 -93 -114 -93q-57 0 -79.5 54t-11.5 123q13 85 55.5 125t131.5 36l90 -5zM114 559q-8 -54 3 -89t45 -35q40 0 73.5 31.5t42.5 100.5l10 112l-38 2q-66 2 -95.5 -21t-40.5 -101z" />
    <glyph glyph-name="guillemotleft" unicode="&#xab;" horiz-adv-x="446" 
d="M323 107l-109 192l159 201h73l-159 -201l113 -192h-77zM143 107l-109 192l159 201h73l-159 -201l113 -192h-77z" />
    <glyph glyph-name="logicalnot" unicode="&#xac;" 
d="M522 346l-2 -22l-3 -30l-22 -208h-52l22 208h-396l5 52h448z" />
    <glyph glyph-name="registered" unicode="&#xae;" horiz-adv-x="740" 
d="M428 336h64l-87 140q79 18 90 96q5 50 -30.5 72t-87.5 22q-61 0 -94 -1l-34 -329h54l14 131h32zM441 572q-7 -55 -78 -55h-41l10 100q18 1 40 1q35 0 53 -10.5t16 -35.5zM107 494q0 -116 73.5 -189.5t189.5 -73.5t189.5 73.5t73.5 189.5q0 114 -76.5 188.5t-186.5 74.5
t-186.5 -74.5t-76.5 -188.5zM55 494q0 137 90.5 226t224.5 89q133 0 224 -89t91 -226q0 -139 -88 -227t-227 -88q-140 0 -227.5 87.5t-87.5 227.5z" />
    <glyph glyph-name="macron" unicode="&#xaf;" horiz-adv-x="436" 
d="M391 751l-7 -59h-339l7 59h339z" />
    <glyph glyph-name="degree" unicode="&#xb0;" horiz-adv-x="530" 
d="M153 638q0 -53 31 -85.5t81 -32.5q51 0 82 32.5t31 85.5q0 51 -31 84.5t-82 33.5q-50 0 -81 -33.5t-31 -84.5zM96 637q0 70 48.5 119t120.5 49t120.5 -49t48.5 -119q0 -71 -48.5 -119t-120.5 -48q-73 0 -121 48t-48 119z" />
    <glyph glyph-name="plusminus" unicode="&#xb1;" 
d="M71 294l6 52h207l22 214h55l-22 -214h204l-6 -52h-204l-17 -162h-55l17 162h-207zM531 54l-5 -52h-468l5 52h468z" />
    <glyph glyph-name="twosuperior" unicode="&#xb2;" horiz-adv-x="290" 
d="M242 440l-5 -46h-233l5 47q66 50 97.5 75t60 57t30.5 55q4 30 -15 44.5t-54 14.5q-32 0 -83 -12l-5 40q61 13 95 13q64 1 88.5 -27t20.5 -66q-5 -46 -52 -93.5t-126 -101.5h176z" />
    <glyph glyph-name="threesuperior" unicode="&#xb3;" horiz-adv-x="290" 
d="M81 541l4 40h19q43 1 67 17.5t26 41.5q3 27 -17 36.5t-50 9.5q-23 0 -72 -9l-6 40q46 11 81 11q59 1 90 -22t26 -62q-3 -31 -26 -50t-54 -27q38 -7 57.5 -31t14.5 -55q-5 -40 -39.5 -67.5t-97.5 -26.5q-50 2 -88 16l13 38q48 -12 80 -12q81 0 88 55q3 24 -21.5 41
t-75.5 16h-19z" />
    <glyph glyph-name="acute" unicode="&#xb4;" horiz-adv-x="278" 
d="M107 636l-62 1l111 192h77z" />
    <glyph glyph-name="mu" unicode="&#xb5;" horiz-adv-x="622" 
d="M438 110l47 450h64l-59 -560h-64l5 43q-33 -24 -78.5 -39.5t-86.5 -14.5q-79 0 -121 35l-19 -184h-58l74 720h64l-40 -387q-8 -71 19 -99.5t85 -28.5q86 0 168 65z" />
    <glyph glyph-name="mu" unicode="&#x3bc;" horiz-adv-x="622" 
d="M438 110l47 450h64l-59 -560h-64l5 43q-33 -24 -78.5 -39.5t-86.5 -14.5q-79 0 -121 35l-19 -184h-58l74 720h64l-40 -387q-8 -71 19 -99.5t85 -28.5q86 0 168 65z" />
    <glyph glyph-name="paragraph" unicode="&#xb6;" horiz-adv-x="600" 
d="M421 95l61 575h-69l-70 -667h-60l36 346h-60q-211 0 -190 196q19 177 238 177h290l-5 -52h-53l-61 -579q-14 -129 -65 -186t-143 -59q-34 -1 -80 5l11 56q39 -3 71 -3q68 3 103.5 44t45.5 147z" />
    <glyph glyph-name="periodcentered" unicode="&#xb7;" horiz-adv-x="339" 
d="M122 217q0 28 18 46.5t46 18.5t46.5 -18.5t18.5 -46.5t-18.5 -46t-46.5 -18t-46 18t-18 46z" />
    <glyph glyph-name="cedilla" unicode="&#xb8;" horiz-adv-x="266" 
d="M161 6h59q8 -176 -168 -189l-7 58q65 9 92 33.5t24 97.5z" />
    <glyph glyph-name="onesuperior" unicode="&#xb9;" horiz-adv-x="290" 
d="M238 435l-4 -43h-181l4 43h72l26 249l-86 -46l-16 36l100 55h52l-31 -294h64z" />
    <glyph glyph-name="ordmasculine" unicode="&#xba;" horiz-adv-x="396" 
d="M337 300l-4 -46h-306l4 46h306zM354 564q-9 -76 -51 -124t-115 -48q-75 2 -107.5 49.5t-23.5 122.5q9 74 52.5 119.5t113.5 45.5t104.5 -45.5t26.5 -119.5zM112 564q-11 -124 82 -124q50 0 75 37t30 87q4 45 -15 80.5t-66 35.5t-74.5 -35t-31.5 -81z" />
    <glyph glyph-name="guillemotright" unicode="&#xbb;" horiz-adv-x="446" 
d="M230 299l-149 -192h-77l153 192l-117 201h73zM410 299l-149 -192h-77l153 192l-117 201h73z" />
    <glyph glyph-name="onequarter" unicode="&#xbc;" horiz-adv-x="683" 
d="M63 70l-30 37l602 544l30 -37zM248 435l-4 -43h-181l4 43h72l26 249l-86 -46l-16 36l100 55h52l-31 -294h64zM376 129h108l19 175zM517 1h-46l9 87h-160l4 38l159 214h69l-22 -211h58l-4 -41h-58z" />
    <glyph glyph-name="onehalf" unicode="&#xbd;" horiz-adv-x="699" 
d="M63 70l-30 37l602 544l30 -37zM248 435l-4 -43h-181l4 43h72l26 249l-86 -46l-16 36l100 55h52l-31 -294h64zM645 44l-5 -46h-233l5 47q66 50 97.5 75t60 57t30.5 55q4 30 -15 44.5t-54 14.5q-32 0 -83 -12l-5 40q61 13 95 13q64 1 88.5 -27t20.5 -66q-5 -46 -52 -93.5
t-126 -101.5h176z" />
    <glyph glyph-name="threequarters" unicode="&#xbe;" horiz-adv-x="676" 
d="M63 70l-30 37l602 544l30 -37zM107 541l4 40h19q43 1 67 17.5t26 41.5q3 27 -17 36.5t-50 9.5q-23 0 -72 -9l-6 40q46 11 81 11q59 1 90 -22t26 -62q-3 -31 -26 -50t-54 -27q38 -7 57.5 -31t14.5 -55q-5 -40 -39.5 -67.5t-97.5 -26.5q-50 2 -88 16l13 38q48 -12 80 -12
q81 0 88 55q3 24 -21.5 41t-75.5 16h-19zM396 126h108l19 175zM537 -2h-46l9 87h-160l4 38l159 214h69l-22 -211h58l-4 -41h-58z" />
    <glyph glyph-name="questiondown" unicode="&#xbf;" horiz-adv-x="522" 
d="M340 325l-16 -177q-84 -28 -128.5 -60t-49.5 -84q-7 -67 28 -90t100 -23q38 0 135 18l7 -55q-83 -19 -147 -20q-63 -2 -105 15t-58.5 46t-21.5 54.5t-2 52.5q13 120 180 184l16 139h62zM391 495q-3 -28 -23 -46.5t-48 -18.5t-44.5 18.5t-13.5 46.5t23.5 46t48.5 18
t44 -18t13 -46z" />
    <glyph glyph-name="Agrave" unicode="&#xc0;" horiz-adv-x="595" 
d="M0 0l306 628h59l185 -628h-67l-50 175h-285l-82 -175h-66zM419 230l-92 316l-153 -316h245zM364 665l-62 -1l-107 165h77z" />
    <glyph glyph-name="Aacute" unicode="&#xc1;" horiz-adv-x="595" 
d="M306 628l-306 -628h66l82 175h285l50 -175h67l-185 628h-59zM327 546l92 -316h-245zM369 664l-62 1l92 164h77z" />
    <glyph glyph-name="Acircumflex" unicode="&#xc2;" horiz-adv-x="595" 
d="M306 628l-306 -628h66l82 175h285l50 -175h67l-185 628h-59zM327 546l92 -316h-245zM400 665l-57 94l-83 -96h-67l126 150h53l95 -148h-67z" />
    <glyph glyph-name="Atilde" unicode="&#xc3;" horiz-adv-x="595" 
d="M0 0l306 628h59l185 -628h-67l-50 175h-285l-82 -175h-66zM419 230l-92 316l-153 -316h245zM250 738q-47 0 -52 -68h-54q0 64 31 94.5t72 30.5q35 0 83.5 -34.5t68.5 -34.5q25 0 33.5 16t10.5 51h53q0 -39 -11 -65.5t-28.5 -37.5t-31 -15t-27.5 -4q-31 0 -59.5 16.5
t-50.5 33.5t-38 17z" />
    <glyph glyph-name="Adieresis" unicode="&#xc4;" horiz-adv-x="595" 
d="M0 0l306 628h59l185 -628h-67l-50 175h-285l-82 -175h-66zM419 230l-92 316l-153 -316h245zM167 730q0 24 16 40.5t39 16.5q24 0 40.5 -16.5t16.5 -40.5q0 -23 -16.5 -39.5t-40.5 -16.5q-23 0 -39 16.5t-16 39.5zM393 730q0 24 16 40.5t39 16.5q24 0 40.5 -16.5
t16.5 -40.5q0 -23 -16.5 -39.5t-40.5 -16.5q-23 0 -39 16.5t-16 39.5z" />
    <glyph glyph-name="Aring" unicode="&#xc5;" horiz-adv-x="595" 
d="M226 721q0 46 33.5 75.5t79.5 29.5q48 0 80.5 -29.5t32.5 -75.5q0 -41 -23.5 -67.5t-61.5 -34.5l183 -619h-67l-50 175h-285l-82 -175h-66l303 622q-35 9 -56 35t-21 64zM419 230l-92 316l-153 -316h245zM274 721q0 -29 18 -44.5t48 -15.5q31 0 48 16t17 44t-19.5 44.5
t-45.5 16.5t-46 -16.5t-20 -44.5z" />
    <glyph glyph-name="AE" unicode="&#xc6;" horiz-adv-x="858" 
d="M185 223l-117 -223h-68l385 721h458l-6 -59h-287l-25 -244h250l-7 -61h-250l-31 -297h287l-6 -60h-351l23 223h-255zM415 661l-199 -379h230l40 379h-71z" />
    <glyph glyph-name="Ccedilla" unicode="&#xc7;" horiz-adv-x="612" 
d="M528 72l8 -57q-61 -20 -138 -24q2 -160 -168 -174l-7 58q31 4 49 9.5t35 18t24.5 34t7.5 54.5q-154 5 -223 106.5t-52 258.5q18 166 109 269.5t259 103.5q86 0 165 -25l-20 -57q-100 22 -152 22q-74 0 -130.5 -26.5t-90.5 -72.5t-52.5 -99t-24.5 -115q-6 -61 2.5 -113.5
t33.5 -97t75.5 -70t122.5 -25.5q79 0 167 22z" />
    <glyph glyph-name="Egrave" unicode="&#xc8;" horiz-adv-x="532" 
d="M457 60l-6 -60h-381l66 622h381l-7 -59h-317l-22 -214h280l-7 -61h-280l-24 -228h317zM387 665l-62 -1l-107 165h77z" />
    <glyph glyph-name="Eacute" unicode="&#xc9;" horiz-adv-x="532" 
d="M451 0l6 60h-317l24 228h280l7 61h-280l22 214h317l7 59h-381l-66 -622h381zM330 664l-62 1l92 164h77z" />
    <glyph glyph-name="Ecircumflex" unicode="&#xca;" horiz-adv-x="532" 
d="M451 0l6 60h-317l24 228h280l7 61h-280l22 214h317l7 59h-381l-66 -622h381zM400 665l-57 94l-83 -96h-67l126 150h53l95 -148h-67z" />
    <glyph glyph-name="Edieresis" unicode="&#xcb;" horiz-adv-x="532" 
d="M457 60l-6 -60h-381l66 622h381l-7 -59h-317l-22 -214h280l-7 -61h-280l-24 -228h317zM173 730q0 24 16 40.5t39 16.5q24 0 40.5 -16.5t16.5 -40.5q0 -23 -16.5 -39.5t-40.5 -16.5q-23 0 -39 16.5t-16 39.5zM399 730q0 24 16 40.5t39 16.5q24 0 40.5 -16.5t16.5 -40.5
q0 -23 -16.5 -39.5t-40.5 -16.5q-23 0 -39 16.5t-16 39.5z" />
    <glyph glyph-name="Igrave" unicode="&#xcc;" horiz-adv-x="393" 
d="M289 57l-6 -57h-246l6 57h93l53 510h-91l6 56h242l-6 -56h-91l-53 -510h93zM264 665l-62 -1l-107 165h77z" />
    <glyph glyph-name="Iacute" unicode="&#xcd;" horiz-adv-x="393" 
d="M283 0l6 57h-93l53 510h91l6 56h-242l-6 -56h91l-53 -510h-93l-6 -57h246zM257 664l-62 1l92 164h77z" />
    <glyph glyph-name="Icircumflex" unicode="&#xce;" horiz-adv-x="378" 
d="M283 0l6 57h-93l53 510h91l6 56h-242l-6 -56h91l-53 -510h-93l-6 -57h246zM299 665l-57 94l-83 -96h-67l126 150h53l95 -148h-67z" />
    <glyph glyph-name="Idieresis" unicode="&#xcf;" horiz-adv-x="415" 
d="M289 57l-6 -57h-246l6 57h93l53 510h-91l6 56h242l-6 -56h-91l-53 -510h93zM70 730q0 24 16 40.5t39 16.5q24 0 40.5 -16.5t16.5 -40.5q0 -23 -16.5 -39.5t-40.5 -16.5q-23 0 -39 16.5t-16 39.5zM296 730q0 24 16 40.5t39 16.5q24 0 40.5 -16.5t16.5 -40.5
q0 -23 -16.5 -39.5t-40.5 -16.5q-23 0 -39 16.5t-16 39.5z" />
    <glyph glyph-name="Eth" unicode="&#xd0;" horiz-adv-x="676" 
d="M111 423l31 297q75 3 160 3q166 0 247 -102.5t64 -264.5q-16 -159 -116.5 -259t-261.5 -100q-42 0 -69 0.5t-52 1.5t-47 1l38 364h-81l6 59h81zM319 423l-6 -59h-144l-32 -306q50 -2 103 -2q72 0 129.5 24.5t93.5 67.5t57.5 95.5t27.5 112.5q15 138 -49.5 223t-205.5 85
q-20 0 -52 -1.5t-41 -1.5l-25 -238h144z" />
    <glyph glyph-name="Ntilde" unicode="&#xd1;" horiz-adv-x="681" 
d="M314 738q-47 0 -52 -68h-54q0 64 31 94.5t72 30.5q35 0 83.5 -34.5t68.5 -34.5q25 0 33.5 16t10.5 51h53q0 -39 -11 -65.5t-28.5 -37.5t-31 -15t-27.5 -4q-31 0 -59.5 16.5t-50.5 33.5t-38 17zM132 0h-62l65 624h55l318 -509l47 509h61l-59 -624h-54l-318 506z" />
    <glyph glyph-name="Ograve" unicode="&#xd2;" horiz-adv-x="685" 
d="M63 311q15 141 97.5 231.5t216.5 90.5t197 -90.5t48 -231.5t-98 -231.5t-214 -90.5q-132 0 -197 90.5t-50 231.5zM559 311q7 70 -7 127.5t-60.5 97t-120.5 39.5q-109 0 -170.5 -77t-73.5 -187q-7 -68 8.5 -125.5t61.5 -97t118 -39.5q107 0 169.5 77.5t74.5 184.5z
M437 665l-62 -1l-107 165h77z" />
    <glyph glyph-name="Oacute" unicode="&#xd3;" horiz-adv-x="685" 
d="M63 311q-15 -141 50 -231.5t197 -90.5q131 0 214 90.5t98 231.5t-48 231.5t-197 90.5t-216.5 -90.5t-97.5 -231.5zM559 311q-12 -107 -74.5 -184.5t-169.5 -77.5q-72 0 -118 39.5t-61.5 97t-8.5 125.5q12 110 73.5 187t170.5 77q74 0 120.5 -39.5t60.5 -97t7 -127.5z
M411 664l-62 1l92 164h77z" />
    <glyph glyph-name="Ocircumflex" unicode="&#xd4;" horiz-adv-x="685" 
d="M63 311q-15 -141 50 -231.5t197 -90.5q131 0 214 90.5t98 231.5t-48 231.5t-197 90.5t-216.5 -90.5t-97.5 -231.5zM559 311q-12 -107 -74.5 -184.5t-169.5 -77.5q-72 0 -118 39.5t-61.5 97t-8.5 125.5q12 110 73.5 187t170.5 77q74 0 120.5 -39.5t60.5 -97t7 -127.5z
M460 665l-57 94l-83 -96h-67l126 150h53l95 -148h-67z" />
    <glyph glyph-name="Otilde" unicode="&#xd5;" horiz-adv-x="685" 
d="M63 311q15 141 97.5 231.5t216.5 90.5t197 -90.5t48 -231.5t-98 -231.5t-214 -90.5q-132 0 -197 90.5t-50 231.5zM559 311q7 70 -7 127.5t-60.5 97t-120.5 39.5q-109 0 -170.5 -77t-73.5 -187q-7 -68 8.5 -125.5t61.5 -97t118 -39.5q107 0 169.5 77.5t74.5 184.5z
M310 738q-47 0 -52 -68h-54q0 64 31 94.5t72 30.5q35 0 83.5 -34.5t68.5 -34.5q25 0 33.5 16t10.5 51h53q0 -39 -11 -65.5t-28.5 -37.5t-31 -15t-27.5 -4q-31 0 -59.5 16.5t-50.5 33.5t-38 17z" />
    <glyph glyph-name="Odieresis" unicode="&#xd6;" horiz-adv-x="685" 
d="M63 311q15 141 97.5 231.5t216.5 90.5t197 -90.5t48 -231.5t-98 -231.5t-214 -90.5q-132 0 -197 90.5t-50 231.5zM559 311q7 70 -7 127.5t-60.5 97t-120.5 39.5q-109 0 -170.5 -77t-73.5 -187q-7 -68 8.5 -125.5t61.5 -97t118 -39.5q107 0 169.5 77.5t74.5 184.5z
M221 730q0 24 16 40.5t39 16.5q24 0 40.5 -16.5t16.5 -40.5q0 -23 -16.5 -39.5t-40.5 -16.5q-23 0 -39 16.5t-16 39.5zM447 730q0 24 16 40.5t39 16.5q24 0 40.5 -16.5t16.5 -40.5q0 -23 -16.5 -39.5t-40.5 -16.5q-23 0 -39 16.5t-16 39.5z" />
    <glyph glyph-name="multiply" unicode="&#xd7;" 
d="M286 354l192 173l34 -37l-192 -174l153 -171l-38 -35l-154 170l-188 -170l-35 37l189 171l-153 171l40 36z" />
    <glyph glyph-name="Oslash" unicode="&#xd8;" horiz-adv-x="694" 
d="M34 14l-34 39l73 73q-51 95 -37 232q18 164 105.5 267.5t241.5 103.5q131 0 203 -91l69 69l39 -36l-79 -78q50 -98 36 -237q-17 -162 -105.5 -264.5t-236.5 -102.5q-133 0 -207 93zM376 668q-63 0 -114.5 -27t-83.5 -72.5t-51.5 -99t-25.5 -113.5q-11 -108 19 -183
l421 420q-55 75 -165 75zM585 356q12 110 -18 188l-421 -418q56 -74 165 -74q83 0 144.5 45.5t91 111.5t38.5 147z" />
    <glyph glyph-name="Ugrave" unicode="&#xd9;" horiz-adv-x="618" 
d="M173 623l-42 -396q-16 -178 152 -178q81 0 125 43.5t53 134.5l42 396h65l-42 -396q-25 -239 -249 -239q-236 0 -211 239l42 396h65zM394 665l-62 -1l-107 165h77z" />
    <glyph glyph-name="Uacute" unicode="&#xda;" horiz-adv-x="618" 
d="M131 227l42 396h-65l-42 -396q-25 -239 211 -239q224 0 249 239l42 396h-65l-42 -396q-9 -91 -53 -134.5t-125 -43.5q-168 0 -152 178zM361 664l-62 1l92 164h77z" />
    <glyph glyph-name="Ucircumflex" unicode="&#xdb;" horiz-adv-x="618" 
d="M131 227l42 396h-65l-42 -396q-25 -239 211 -239q224 0 249 239l42 396h-65l-42 -396q-9 -91 -53 -134.5t-125 -43.5q-168 0 -152 178zM411 665l-57 94l-83 -96h-67l126 150h53l95 -148h-67z" />
    <glyph glyph-name="Udieresis" unicode="&#xdc;" horiz-adv-x="618" 
d="M173 623l-42 -396q-16 -178 152 -178q81 0 125 43.5t53 134.5l42 396h65l-42 -396q-25 -239 -249 -239q-236 0 -211 239l42 396h65zM176 730q0 24 16 40.5t39 16.5q24 0 40.5 -16.5t16.5 -40.5q0 -23 -16.5 -39.5t-40.5 -16.5q-23 0 -39 16.5t-16 39.5zM402 730
q0 24 16 40.5t39 16.5q24 0 40.5 -16.5t16.5 -40.5q0 -23 -16.5 -39.5t-40.5 -16.5q-23 0 -39 16.5t-16 39.5z" />
    <glyph glyph-name="Yacute" unicode="&#xdd;" horiz-adv-x="455" 
d="M161 0h64l26 253l239 368h-69l-196 -309l-131 310h-69l162 -371zM277 664l-62 1l92 164h77z" />
    <glyph glyph-name="Thorn" unicode="&#xde;" horiz-adv-x="594" 
d="M190 552l-59 -552h-64l76 724h61l-12 -112h105q119 0 184.5 -44.5t54.5 -142.5q-11 -97 -75 -131.5t-200 -34.5h-48l6 60h49q98 0 146.5 21t57.5 85q8 76 -37 102t-144 26q-60 0 -101 -1z" />
    <glyph glyph-name="germandbls" unicode="&#xdf;" horiz-adv-x="601" 
d="M203 10l22 57q74 -19 112 -19q102 0 118 88q7 42 -5 71t-59 66q-13 11 -35.5 29t-31.5 25.5t-22.5 21.5t-17.5 25t-7 27t-1 36q3 26 25.5 51.5t48.5 43.5t49.5 47.5t27.5 63.5q2 33 -29 53.5t-76 16.5q-60 -6 -94 -38.5t-39 -78.5l-62 -596h-62l62 597q8 75 64.5 123
t145.5 52q73 0 116.5 -38.5t38.5 -91.5q-4 -40 -28 -76.5t-50.5 -57t-49 -42t-24.5 -35.5q-3 -23 13 -40.5t73 -60.5q110 -81 95 -194q-10 -56 -56 -101.5t-135 -45.5q-59 0 -127 21z" />
    <glyph glyph-name="agrave" unicode="&#xe0;" horiz-adv-x="554" 
d="M430 0h-63l14 169q-31 -80 -84 -127.5t-106 -47.5q-79 0 -108.5 77t-18.5 207q5 53 12.5 92t26 79.5t46.5 65t74.5 39t108.5 12.5l147 -7zM127 270q-16 -216 70 -216q56 0 122 90t80 194l14 166l-84 4q-108 4 -150.5 -54.5t-51.5 -183.5zM406 637l-62 -1l-126 193h77z
" />
    <glyph glyph-name="aacute" unicode="&#xe1;" horiz-adv-x="554" 
d="M367 0h63l49 559l-147 7q-62 2 -108.5 -12.5t-74.5 -39t-46.5 -65t-26 -79.5t-12.5 -92q-7 -85 1.5 -146t40 -99.5t85.5 -38.5q53 0 106 47.5t84 127.5zM127 270q9 125 51.5 183.5t150.5 54.5l84 -4l-14 -166q-14 -104 -80 -194t-122 -90q-86 0 -70 216zM350 636l-62 1
l111 192h77z" />
    <glyph glyph-name="acircumflex" unicode="&#xe2;" horiz-adv-x="565" 
d="M367 0h63l49 559l-147 7q-62 2 -108.5 -12.5t-74.5 -39t-46.5 -65t-26 -79.5t-12.5 -92q-7 -85 1.5 -146t40 -99.5t85.5 -38.5q53 0 106 47.5t84 127.5zM127 270q9 125 51.5 183.5t150.5 54.5l84 -4l-14 -166q-14 -104 -80 -194t-122 -90q-86 0 -70 216zM420 636l-70 122
l-102 -122h-73l151 177h53l111 -177h-70z" />
    <glyph glyph-name="atilde" unicode="&#xe3;" horiz-adv-x="589" 
d="M430 0h-63l14 169q-31 -80 -84 -127.5t-106 -47.5q-79 0 -108.5 77t-18.5 207q5 53 12.5 92t26 79.5t46.5 65t74.5 39t108.5 12.5l147 -7zM127 270q-16 -216 70 -216q56 0 122 90t80 194l14 166l-84 4q-108 4 -150.5 -54.5t-51.5 -183.5zM268 738q-47 0 -52 -68h-54
q0 64 31 94.5t72 30.5q35 0 83.5 -34.5t68.5 -34.5q25 0 33.5 16t10.5 51h53q0 -39 -11 -65.5t-28.5 -37.5t-31 -15t-27.5 -4q-31 0 -59.5 16.5t-50.5 33.5t-38 17z" />
    <glyph glyph-name="adieresis" unicode="&#xe4;" horiz-adv-x="593" 
d="M430 0h-63l14 169q-31 -80 -84 -127.5t-106 -47.5q-79 0 -108.5 77t-18.5 207q5 53 12.5 92t26 79.5t46.5 65t74.5 39t108.5 12.5l147 -7zM127 270q-16 -216 70 -216q56 0 122 90t80 194l14 166l-84 4q-108 4 -150.5 -54.5t-51.5 -183.5zM180 730q0 24 16 40.5t39 16.5
q24 0 40.5 -16.5t16.5 -40.5q0 -23 -16.5 -39.5t-40.5 -16.5q-23 0 -39 16.5t-16 39.5zM406 730q0 24 16 40.5t39 16.5q24 0 40.5 -16.5t16.5 -40.5q0 -23 -16.5 -39.5t-40.5 -16.5q-23 0 -39 16.5t-16 39.5z" />
    <glyph glyph-name="aring" unicode="&#xe5;" horiz-adv-x="554" 
d="M430 0h-63l14 169q-31 -80 -84 -127.5t-106 -47.5q-79 0 -108.5 77t-18.5 207q5 53 12.5 92t26 79.5t46.5 65t74.5 39t108.5 12.5l147 -7zM127 270q-16 -216 70 -216q56 0 122 90t80 194l14 166l-84 4q-108 4 -150.5 -54.5t-51.5 -183.5zM268 731q0 -29 18 -44.5
t48 -15.5q31 0 48 16t17 44t-19.5 44.5t-45.5 16.5t-46 -16.5t-20 -44.5zM220 731q0 46 33.5 75.5t79.5 29.5q48 0 80.5 -29.5t32.5 -75.5q0 -48 -32 -76t-81 -28q-47 0 -80 28t-33 76z" />
    <glyph glyph-name="ae" unicode="&#xe6;" horiz-adv-x="831" 
d="M634 570q69 -3 108 -43t33 -96q-6 -37 -25.5 -66t-47.5 -48.5t-72 -35t-86.5 -25t-101.5 -18.5q-13 -185 90 -185q80 0 193 90l34 -49q-71 -54 -122 -77t-110 -23q-131 0 -145 163q-40 -71 -95 -117t-103 -46q-147 0 -119 284q4 44 7.5 67.5t11 60t18 56t29 43.5t43 36
t61 19.5t82.5 5.5l157 -7l-6 -47q58 59 166 58zM128 270q-16 -216 64 -216q52 0 120 91t82 193l14 166l-94 4q-46 2 -78.5 -8.5t-51.5 -28t-31 -51t-16.5 -66t-8.5 -84.5zM618 515q-37 0 -65.5 -14t-44.5 -31.5t-28.5 -51t-17.5 -55t-12 -61.5q111 11 184 43.5t77 83.5
q3 39 -20 62.5t-73 23.5z" />
    <glyph glyph-name="ccedilla" unicode="&#xe7;" horiz-adv-x="485" 
d="M131 324q-3 -27 -4.5 -43t-3.5 -44t-1 -46.5t3.5 -42t9 -38.5t16 -29.5t25 -21t35.5 -6.5q42 0 82 17.5t112 67.5l34 -47q-66 -51 -117 -73q2 -90 -34 -141.5t-134 -59.5l-7 58q63 8 90 32t26 92q-25 -5 -58 -5q-36 0 -62.5 13.5t-42 33.5t-25 51t-13 57.5t-2.5 63.5
t3 58.5t6 52.5q16 137 80.5 192.5t172.5 53.5q33 -1 125 -16l-14 -58q-86 14 -117 15q-74 3 -121.5 -38t-63.5 -149z" />
    <glyph glyph-name="egrave" unicode="&#xe8;" horiz-adv-x="505" 
d="M308 570q69 -3 108 -43t33 -96q-4 -47 -30 -81t-74.5 -55t-99.5 -33.5t-127 -23.5q-13 -185 93 -185q80 0 193 90l34 -49q-71 -54 -122 -77t-110 -23q-35 0 -61.5 11.5t-43 28t-26.5 44.5t-14 50t-4.5 56t0.5 52.5t3 47.5q8 68 21.5 115t40 89t73 62.5t113.5 19.5z
M292 515q-37 0 -65.5 -14t-45.5 -33.5t-29.5 -51t-18 -57t-10.5 -61.5q116 11 187 44.5t75 86.5q3 39 -20 62.5t-73 23.5zM382 637l-62 -1l-126 193h77z" />
    <glyph glyph-name="eacute" unicode="&#xe9;" horiz-adv-x="505" 
d="M308 570q-67 1 -113.5 -19.5t-73 -62.5t-40 -89t-21.5 -115q-2 -29 -3 -47.5t-0.5 -52.5t4.5 -56t14 -50t26.5 -44.5t43 -28t61.5 -11.5q59 0 110 23t122 77l-34 49q-113 -90 -193 -90q-106 0 -93 185q76 11 127 23.5t99.5 33.5t74.5 55t30 81q6 56 -33 96t-108 43z
M292 515q50 0 73 -23.5t20 -62.5q-4 -53 -75 -86.5t-187 -44.5q5 36 10.5 61.5t18 57t29.5 51t45.5 33.5t65.5 14zM292 636l-62 1l111 192h77z" />
    <glyph glyph-name="ecircumflex" unicode="&#xea;" horiz-adv-x="509" 
d="M308 570q-67 1 -113.5 -19.5t-73 -62.5t-40 -89t-21.5 -115q-2 -29 -3 -47.5t-0.5 -52.5t4.5 -56t14 -50t26.5 -44.5t43 -28t61.5 -11.5q59 0 110 23t122 77l-34 49q-113 -90 -193 -90q-106 0 -93 185q76 11 127 23.5t99.5 33.5t74.5 55t30 81q6 56 -33 96t-108 43z
M292 515q50 0 73 -23.5t20 -62.5q-4 -53 -75 -86.5t-187 -44.5q5 36 10.5 61.5t18 57t29.5 51t45.5 33.5t65.5 14zM384 636l-70 122l-102 -122h-73l151 177h53l111 -177h-70z" />
    <glyph glyph-name="edieresis" unicode="&#xeb;" horiz-adv-x="523" 
d="M308 570q69 -3 108 -43t33 -96q-4 -47 -30 -81t-74.5 -55t-99.5 -33.5t-127 -23.5q-13 -185 93 -185q80 0 193 90l34 -49q-71 -54 -122 -77t-110 -23q-35 0 -61.5 11.5t-43 28t-26.5 44.5t-14 50t-4.5 56t0.5 52.5t3 47.5q8 68 21.5 115t40 89t73 62.5t113.5 19.5z
M292 515q-37 0 -65.5 -14t-45.5 -33.5t-29.5 -51t-18 -57t-10.5 -61.5q116 11 187 44.5t75 86.5q3 39 -20 62.5t-73 23.5zM130 730q0 24 16 40.5t39 16.5q24 0 40.5 -16.5t16.5 -40.5q0 -23 -16.5 -39.5t-40.5 -16.5q-23 0 -39 16.5t-16 39.5zM356 730q0 24 16 40.5t39 16.5
q24 0 40.5 -16.5t16.5 -40.5q0 -23 -16.5 -39.5t-40.5 -16.5q-23 0 -39 16.5t-16 39.5z" />
    <glyph glyph-name="igrave" unicode="&#xec;" horiz-adv-x="308" 
d="M165 0h-64l59 560h64zM233 637l-62 -1l-126 193h77z" />
    <glyph glyph-name="iacute" unicode="&#xed;" horiz-adv-x="311" 
d="M80 0h64l59 560h-64zM200 636l-62 1l111 192h77z" />
    <glyph glyph-name="icircumflex" unicode="&#xee;" horiz-adv-x="312" 
d="M76 0h64l59 560h-64zM273 636l-70 122l-102 -122h-73l151 177h53l111 -177h-70z" />
    <glyph glyph-name="idieresis" unicode="&#xef;" horiz-adv-x="311" 
d="M160 0h-64l59 560h64zM25 730q0 24 16 40.5t39 16.5q24 0 40.5 -16.5t16.5 -40.5q0 -23 -16.5 -39.5t-40.5 -16.5q-23 0 -39 16.5t-16 39.5zM251 730q0 24 16 40.5t39 16.5q24 0 40.5 -16.5t16.5 -40.5q0 -23 -16.5 -39.5t-40.5 -16.5q-23 0 -39 16.5t-16 39.5z" />
    <glyph glyph-name="eth" unicode="&#xf0;" 
d="M282 530l-31 27l75 79q-39 25 -94 45l21 51q63 -19 114 -52l74 77l31 -31l-70 -72q71 -62 100.5 -151.5t22.5 -192.5q-2 -31 -7 -64.5t-22 -81t-42.5 -83t-72 -61.5t-106.5 -26q-113 0 -166.5 71t-46.5 175q3 39 17.5 76.5t42 71.5t74.5 54.5t106 20.5q51 0 103 -22
l-20 -55q-46 17 -87 17q-75 0 -121.5 -46t-52.5 -117q-2 -37 4.5 -69t22.5 -60.5t48.5 -45t78.5 -16.5q49 0 87 28.5t57 72t28.5 81.5t11.5 71q16 210 -102 309z" />
    <glyph glyph-name="ntilde" unicode="&#xf1;" horiz-adv-x="587" 
d="M450 0h-64l43 412q4 43 -2.5 66.5t-16 29t-24.5 5.5q-50 0 -130.5 -89.5t-94.5 -193.5l-22 -230h-64l58 560h64l-16 -163q35 70 95.5 122t112.5 52q122 0 104 -158zM256 738q-47 0 -52 -68h-54q0 64 31 94.5t72 30.5q35 0 83.5 -34.5t68.5 -34.5q25 0 33.5 16t10.5 51h53
q0 -39 -11 -65.5t-28.5 -37.5t-31 -15t-27.5 -4q-31 0 -59.5 16.5t-50.5 33.5t-38 17z" />
    <glyph glyph-name="ograve" unicode="&#xf2;" horiz-adv-x="552" 
d="M485 281q-32 -292 -251 -292q-54 1 -92 26t-55 65.5t-23.5 93t2.5 107.5q13 126 79 207t182 82q189 0 158 -289zM129 281q-26 -234 113 -234q49 1 83.5 21.5t53.5 56.5t28.5 72t14.5 84q4 34 5 60t-2.5 60.5t-14 56.5t-33.5 38t-57 16q-48 -1 -84.5 -21.5t-57.5 -55.5
t-32.5 -72.5t-16.5 -81.5zM409 637l-62 -1l-126 193h77z" />
    <glyph glyph-name="oacute" unicode="&#xf3;" horiz-adv-x="552" 
d="M485 281q31 289 -158 289q-116 -1 -182 -82t-79 -207q-9 -55 -2.5 -107.5t23.5 -93t55 -65.5t92 -26q219 0 251 292zM129 281q5 44 16.5 81.5t32.5 72.5t57.5 55.5t84.5 21.5q34 0 57 -16t33.5 -38t14 -56.5t2.5 -60.5t-5 -60q-5 -48 -14.5 -84t-28.5 -72t-53.5 -56.5
t-83.5 -21.5q-139 0 -113 234zM340 636l-62 1l111 192h77z" />
    <glyph glyph-name="ocircumflex" unicode="&#xf4;" horiz-adv-x="560" 
d="M485 281q31 289 -158 289q-116 -1 -182 -82t-79 -207q-9 -55 -2.5 -107.5t23.5 -93t55 -65.5t92 -26q219 0 251 292zM129 281q5 44 16.5 81.5t32.5 72.5t57.5 55.5t84.5 21.5q34 0 57 -16t33.5 -38t14 -56.5t2.5 -60.5t-5 -60q-5 -48 -14.5 -84t-28.5 -72t-53.5 -56.5
t-83.5 -21.5q-139 0 -113 234zM425 636l-70 122l-102 -122h-73l151 177h53l111 -177h-70z" />
    <glyph glyph-name="otilde" unicode="&#xf5;" horiz-adv-x="572" 
d="M485 281q-32 -292 -251 -292q-54 1 -92 26t-55 65.5t-23.5 93t2.5 107.5q13 126 79 207t182 82q189 0 158 -289zM129 281q-26 -234 113 -234q49 1 83.5 21.5t53.5 56.5t28.5 72t14.5 84q4 34 5 60t-2.5 60.5t-14 56.5t-33.5 38t-57 16q-48 -1 -84.5 -21.5t-57.5 -55.5
t-32.5 -72.5t-16.5 -81.5zM261 738q-47 0 -52 -68h-54q0 64 31 94.5t72 30.5q35 0 83.5 -34.5t68.5 -34.5q25 0 33.5 16t10.5 51h53q0 -39 -11 -65.5t-28.5 -37.5t-31 -15t-27.5 -4q-31 0 -59.5 16.5t-50.5 33.5t-38 17z" />
    <glyph glyph-name="odieresis" unicode="&#xf6;" horiz-adv-x="578" 
d="M485 281q-32 -292 -251 -292q-54 1 -92 26t-55 65.5t-23.5 93t2.5 107.5q13 126 79 207t182 82q189 0 158 -289zM129 281q-26 -234 113 -234q49 1 83.5 21.5t53.5 56.5t28.5 72t14.5 84q4 34 5 60t-2.5 60.5t-14 56.5t-33.5 38t-57 16q-48 -1 -84.5 -21.5t-57.5 -55.5
t-32.5 -72.5t-16.5 -81.5zM175 730q0 24 16 40.5t39 16.5q24 0 40.5 -16.5t16.5 -40.5q0 -23 -16.5 -39.5t-40.5 -16.5q-23 0 -39 16.5t-16 39.5zM401 730q0 24 16 40.5t39 16.5q24 0 40.5 -16.5t16.5 -40.5q0 -23 -16.5 -39.5t-40.5 -16.5q-23 0 -39 16.5t-16 39.5z" />
    <glyph glyph-name="divide" unicode="&#xf7;" 
d="M257 506q2 24 20 40.5t41 16.5q24 0 38.5 -16.5t12.5 -40.5q-3 -23 -21 -39.5t-42 -16.5q-23 0 -37.5 16.5t-11.5 39.5zM218 140q3 24 20.5 40.5t40.5 16.5q24 0 39 -16.5t12 -40.5q-2 -23 -20.5 -39.5t-42.5 -16.5q-23 0 -37 16.5t-12 39.5zM526 294l5 52h-468l-5 -52
h468z" />
    <glyph glyph-name="oslash" unicode="&#xf8;" horiz-adv-x="674" 
d="M541 281q-32 -292 -251 -292q-93 1 -137 72l-51 -51l-37 37l66 66q-20 71 -9 168q13 126 79 207t182 82q95 0 134 -73l55 55l37 -37l-72 -72q14 -62 4 -162zM185 281q-8 -64 -1 -116l285 284q-24 63 -93 63q-48 -1 -84.5 -21.5t-57.5 -55.5t-32.5 -72.5t-16.5 -81.5z
M298 47q49 1 83.5 21.5t53.5 56.5t28.5 72t14.5 84q6 67 4 107l-283 -281q28 -60 99 -60z" />
    <glyph glyph-name="ugrave" unicode="&#xf9;" horiz-adv-x="577" 
d="M419 340l23 220h60l-52 -560h-64l16 168q-26 -71 -81.5 -123t-107.5 -52q-53 0 -84 26.5t-38.5 59t-3.5 68.5l44 413h64l-44 -412q-3 -32 2 -53t17.5 -28.5t21.5 -9.5t24 -2q55 0 122 88t81 197zM376 637l-62 -1l-126 193h77z" />
    <glyph glyph-name="uacute" unicode="&#xfa;" horiz-adv-x="577" 
d="M442 560l-23 -220q-14 -109 -81 -197t-122 -88q-15 0 -24 2t-21.5 9.5t-17.5 28.5t-2 53l44 412h-64l-44 -413q-4 -36 3.5 -68.5t38.5 -59t84 -26.5q52 0 107.5 52t81.5 123l-16 -168h64l52 560h-60zM331 636l-62 1l111 192h77z" />
    <glyph glyph-name="ucircumflex" unicode="&#xfb;" horiz-adv-x="577" 
d="M442 560l-23 -220q-14 -109 -81 -197t-122 -88q-15 0 -24 2t-21.5 9.5t-17.5 28.5t-2 53l44 412h-64l-44 -413q-4 -36 3.5 -68.5t38.5 -59t84 -26.5q52 0 107.5 52t81.5 123l-16 -168h64l52 560h-60zM408 636l-70 122l-102 -122h-73l151 177h53l111 -177h-70z" />
    <glyph glyph-name="udieresis" unicode="&#xfc;" horiz-adv-x="577" 
d="M419 340l23 220h60l-52 -560h-64l16 168q-26 -71 -81.5 -123t-107.5 -52q-53 0 -84 26.5t-38.5 59t-3.5 68.5l44 413h64l-44 -412q-3 -32 2 -53t17.5 -28.5t21.5 -9.5t24 -2q55 0 122 88t81 197zM159 730q0 24 16 40.5t39 16.5q24 0 40.5 -16.5t16.5 -40.5
q0 -23 -16.5 -39.5t-40.5 -16.5q-23 0 -39 16.5t-16 39.5zM385 730q0 24 16 40.5t39 16.5q24 0 40.5 -16.5t16.5 -40.5q0 -23 -16.5 -39.5t-40.5 -16.5q-23 0 -39 16.5t-16 39.5z" />
    <glyph glyph-name="yacute" unicode="&#xfd;" horiz-adv-x="564" 
d="M430 560l-14 -146q-13 -100 -93.5 -192t-134.5 -92q-36 0 -42.5 47.5t5.5 128.5l19 253h-62l-23 -273q-13 -120 9.5 -168t85.5 -48q53 0 114.5 46.5t104.5 127.5l-26 -216q-6 -42 -22.5 -72.5t-36.5 -47t-49 -25t-53 -10.5t-56.5 2t-50 8t-42.5 10l-13 -60
q86 -22 152 -20q203 4 233 207l54 539zM320 636l-62 1l111 192h77z" />
    <glyph glyph-name="thorn" unicode="&#xfe;" horiz-adv-x="601" 
d="M169 2l-17 -184h-62l91 905l64 -1l-33 -321q104 171 213 171q62 0 89 -50t15 -167q-14 -139 -33 -197q-55 -166 -221 -160zM463 335q11 81 2 129t-48 48q-51 0 -125.5 -84t-96.5 -189l-18 -174l101 -6q33 -1 60 8.5t44.5 23t31.5 39.5t21.5 45.5t14 54t8.5 52.5t5 53z
" />
    <glyph glyph-name="ydieresis" unicode="&#xff;" horiz-adv-x="564" 
d="M416 414l14 146l59 -1l-54 -539q-30 -203 -233 -207q-66 -2 -152 20l13 60q25 -6 42.5 -10t50 -8t56.5 -2t53 10.5t49 25t36.5 47t22.5 72.5l26 216q-43 -81 -104.5 -127.5t-114.5 -46.5q-63 0 -85.5 48t-9.5 168l23 273h62l-19 -253q-12 -81 -5.5 -128.5t42.5 -47.5
q54 0 134.5 92t93.5 192zM148 730q0 24 16 40.5t39 16.5q24 0 40.5 -16.5t16.5 -40.5q0 -23 -16.5 -39.5t-40.5 -16.5q-23 0 -39 16.5t-16 39.5zM374 730q0 24 16 40.5t39 16.5q24 0 40.5 -16.5t16.5 -40.5q0 -23 -16.5 -39.5t-40.5 -16.5q-23 0 -39 16.5t-16 39.5z" />
    <glyph glyph-name="Amacron" unicode="&#x100;" horiz-adv-x="595" 
 />
    <glyph glyph-name="amacron" unicode="&#x101;" horiz-adv-x="557" 
 />
    <glyph glyph-name="Abreve" unicode="&#x102;" horiz-adv-x="595" 
 />
    <glyph glyph-name="abreve" unicode="&#x103;" horiz-adv-x="555" 
 />
    <glyph glyph-name="Aogonek" unicode="&#x104;" horiz-adv-x="669" 
 />
    <glyph glyph-name="aogonek" unicode="&#x105;" horiz-adv-x="554" 
 />
    <glyph glyph-name="Cacute" unicode="&#x106;" horiz-adv-x="573" 
 />
    <glyph glyph-name="cacute" unicode="&#x107;" horiz-adv-x="490" 
 />
    <glyph glyph-name="Ccircumflex" unicode="&#x108;" horiz-adv-x="573" 
 />
    <glyph glyph-name="ccircumflex" unicode="&#x109;" horiz-adv-x="500" 
 />
    <glyph glyph-name="Cdotaccent" unicode="&#x10a;" horiz-adv-x="573" 
 />
    <glyph glyph-name="cdotaccent" unicode="&#x10b;" horiz-adv-x="490" 
 />
    <glyph glyph-name="Ccaron" unicode="&#x10c;" horiz-adv-x="573" 
 />
    <glyph glyph-name="ccaron" unicode="&#x10d;" horiz-adv-x="500" 
 />
    <glyph glyph-name="Dcaron" unicode="&#x10e;" horiz-adv-x="652" 
 />
    <glyph glyph-name="dcaron" unicode="&#x10f;" horiz-adv-x="679" 
 />
    <glyph glyph-name="Dcroat" unicode="&#x110;" horiz-adv-x="676" 
 />
    <glyph glyph-name="dcroat" unicode="&#x111;" horiz-adv-x="608" 
 />
    <glyph glyph-name="Emacron" unicode="&#x112;" horiz-adv-x="532" 
 />
    <glyph glyph-name="emacron" unicode="&#x113;" horiz-adv-x="521" 
 />
    <glyph glyph-name="Ebreve" unicode="&#x114;" horiz-adv-x="532" 
 />
    <glyph glyph-name="ebreve" unicode="&#x115;" horiz-adv-x="521" 
 />
    <glyph glyph-name="Edotaccent" unicode="&#x116;" horiz-adv-x="532" 
 />
    <glyph glyph-name="edotaccent" unicode="&#x117;" horiz-adv-x="521" 
 />
    <glyph glyph-name="Eogonek" unicode="&#x118;" horiz-adv-x="541" 
 />
    <glyph glyph-name="eogonek" unicode="&#x119;" horiz-adv-x="521" 
 />
    <glyph glyph-name="Ecaron" unicode="&#x11a;" horiz-adv-x="532" 
 />
    <glyph glyph-name="ecaron" unicode="&#x11b;" horiz-adv-x="521" 
 />
    <glyph glyph-name="Gcircumflex" unicode="&#x11c;" horiz-adv-x="618" 
 />
    <glyph glyph-name="gcircumflex" unicode="&#x11d;" horiz-adv-x="578" 
 />
    <glyph glyph-name="Gbreve" unicode="&#x11e;" horiz-adv-x="618" 
 />
    <glyph glyph-name="gbreve" unicode="&#x11f;" horiz-adv-x="575" 
 />
    <glyph glyph-name="Gdotaccent" unicode="&#x120;" horiz-adv-x="618" 
 />
    <glyph glyph-name="gdotaccent" unicode="&#x121;" horiz-adv-x="575" 
 />
    <glyph glyph-name="Gcommaaccent" unicode="&#x122;" horiz-adv-x="681" 
 />
    <glyph glyph-name="gcommaaccent" unicode="&#x123;" horiz-adv-x="575" 
 />
    <glyph glyph-name="Hcircumflex" unicode="&#x124;" horiz-adv-x="682" 
 />
    <glyph glyph-name="hcircumflex" unicode="&#x125;" horiz-adv-x="581" 
 />
    <glyph glyph-name="Hbar" unicode="&#x126;" horiz-adv-x="700" 
 />
    <glyph glyph-name="hbar" unicode="&#x127;" horiz-adv-x="581" 
 />
    <glyph glyph-name="Itilde" unicode="&#x128;" horiz-adv-x="393" 
 />
    <glyph glyph-name="itilde" unicode="&#x129;" horiz-adv-x="312" 
 />
    <glyph glyph-name="uni012A" unicode="&#x12a;" horiz-adv-x="384" 
 />
    <glyph glyph-name="imacron" unicode="&#x12b;" horiz-adv-x="311" 
 />
    <glyph glyph-name="Ibreve" unicode="&#x12c;" horiz-adv-x="391" 
 />
    <glyph glyph-name="uni012D" unicode="&#x12d;" horiz-adv-x="311" 
 />
    <glyph glyph-name="Iogonek" unicode="&#x12e;" horiz-adv-x="393" 
 />
    <glyph glyph-name="iogonek" unicode="&#x12f;" horiz-adv-x="311" 
 />
    <glyph glyph-name="Idotaccent" unicode="&#x130;" horiz-adv-x="393" 
 />
    <glyph glyph-name="dotlessi" unicode="&#x131;" horiz-adv-x="311" 
d="M149 0h-64l59 560h64z" />
    <glyph glyph-name="IJ" unicode="&#x132;" horiz-adv-x="539" 
 />
    <glyph glyph-name="ij" unicode="&#x133;" horiz-adv-x="622" 
 />
    <glyph glyph-name="Jcircumflex" unicode="&#x134;" horiz-adv-x="439" 
 />
    <glyph glyph-name="jcircumflex" unicode="&#x135;" horiz-adv-x="279" 
 />
    <glyph glyph-name="Kcommaaccent" unicode="&#x136;" horiz-adv-x="628" 
 />
    <glyph glyph-name="kcommaaccent" unicode="&#x137;" horiz-adv-x="565" 
 />
    <glyph glyph-name="kgreenlandic" unicode="&#x138;" horiz-adv-x="558" 
 />
    <glyph glyph-name="Lacute" unicode="&#x139;" horiz-adv-x="522" 
 />
    <glyph glyph-name="lacute" unicode="&#x13a;" horiz-adv-x="272" 
 />
    <glyph glyph-name="Lcommaaccent" unicode="&#x13b;" horiz-adv-x="522" 
 />
    <glyph glyph-name="lcommaaccent" unicode="&#x13c;" horiz-adv-x="265" 
 />
    <glyph glyph-name="Lcaron" unicode="&#x13d;" horiz-adv-x="522" 
 />
    <glyph glyph-name="lcaron" unicode="&#x13e;" horiz-adv-x="421" 
 />
    <glyph glyph-name="Ldot" unicode="&#x13f;" horiz-adv-x="522" 
 />
    <glyph glyph-name="ldot" unicode="&#x140;" horiz-adv-x="604" 
 />
    <glyph glyph-name="Lslash" unicode="&#x141;" horiz-adv-x="522" 
d="M461 0h-391l34 333l-118 -56v51l124 59l35 334h64l-32 -302l166 79l-1 -53l-170 -81l-32 -304h327z" />
    <glyph glyph-name="lslash" unicode="&#x142;" horiz-adv-x="274" 
d="M113 0h-61l36 343l-113 -52v51l119 55l39 365h61l-36 -336l141 66l-1 -53l-146 -67z" />
    <glyph glyph-name="Nacute" unicode="&#x143;" horiz-adv-x="681" 
 />
    <glyph glyph-name="nacute" unicode="&#x144;" horiz-adv-x="581" 
 />
    <glyph glyph-name="Ncommaaccent" unicode="&#x145;" horiz-adv-x="705" 
 />
    <glyph glyph-name="ncommaaccent" unicode="&#x146;" horiz-adv-x="581" 
 />
    <glyph glyph-name="Ncaron" unicode="&#x147;" horiz-adv-x="681" 
 />
    <glyph glyph-name="ncaron" unicode="&#x148;" horiz-adv-x="608" 
 />
    <glyph glyph-name="napostrophe" unicode="&#x149;" horiz-adv-x="597" 
 />
    <glyph glyph-name="Eng" unicode="&#x14a;" horiz-adv-x="705" 
 />
    <glyph glyph-name="eng" unicode="&#x14b;" horiz-adv-x="581" 
 />
    <glyph glyph-name="Omacron" unicode="&#x14c;" horiz-adv-x="685" 
 />
    <glyph glyph-name="omacron" unicode="&#x14d;" horiz-adv-x="577" 
 />
    <glyph glyph-name="Obreve" unicode="&#x14e;" horiz-adv-x="685" 
 />
    <glyph glyph-name="obreve" unicode="&#x14f;" horiz-adv-x="558" 
 />
    <glyph glyph-name="Ohungarumlaut" unicode="&#x150;" horiz-adv-x="685" 
 />
    <glyph glyph-name="ohungarumlaut" unicode="&#x151;" horiz-adv-x="605" 
 />
    <glyph glyph-name="OE" unicode="&#x152;" horiz-adv-x="972" 
d="M64 356q9 79 32.5 145t63 118t100.5 81t138 29q139 0 198 -103l10 95h351l-7 -59h-287l-25 -244h250l-7 -61h-250l-31 -297h287l-6 -60h-351l9 92q-79 -103 -218 -103q-97 0 -159.5 49.5t-85.5 131t-12 186.5zM566 356q9 57 4.5 113t-19 100.5t-55.5 71.5t-105 27
t-113.5 -26.5t-79.5 -73t-47 -98.5t-23 -114q-6 -60 0.5 -112.5t28 -97.5t64.5 -71t105 -26q208 0 240 307z" />
    <glyph glyph-name="oe" unicode="&#x153;" horiz-adv-x="862" 
d="M665 570q69 -3 108 -43t33 -96q-6 -37 -25.5 -66t-47.5 -48.5t-72 -35t-86.5 -25t-101.5 -18.5v-1q-13 -184 90 -184q80 0 193 90l34 -49q-71 -54 -122 -77t-110 -23q-103 0 -133 99q-63 -104 -194 -104q-54 1 -91.5 26t-53.5 65.5t-22 93t3 107.5q8 82 36.5 144.5
t85.5 103t135 41.5q109 0 144 -100q56 101 197 100zM130 281q-7 -41 -5 -82.5t10.5 -75t35 -55t68.5 -21.5q39 1 69.5 15.5t48.5 36t30.5 54t18.5 61.5t10 67q3 29 4.5 49.5t1 50.5t-6.5 50.5t-17 40.5t-31.5 30t-49.5 10q-48 -1 -84 -21.5t-56.5 -56t-31 -72.5t-15.5 -81z
M649 515q-37 0 -65.5 -14t-44.5 -31.5t-28.5 -51t-17.5 -55t-12 -61.5q111 11 184 43.5t77 83.5q3 39 -20 62.5t-73 23.5z" />
    <glyph glyph-name="Racute" unicode="&#x154;" horiz-adv-x="575" 
 />
    <glyph glyph-name="racute" unicode="&#x155;" horiz-adv-x="428" 
 />
    <glyph glyph-name="Rcommaaccent" unicode="&#x156;" horiz-adv-x="603" 
 />
    <glyph glyph-name="rcommaaccent" unicode="&#x157;" horiz-adv-x="446" 
 />
    <glyph glyph-name="Rcaron" unicode="&#x158;" horiz-adv-x="575" 
 />
    <glyph glyph-name="rcaron" unicode="&#x159;" horiz-adv-x="449" 
 />
    <glyph glyph-name="Sacute" unicode="&#x15a;" horiz-adv-x="514" 
 />
    <glyph glyph-name="sacute" unicode="&#x15b;" horiz-adv-x="427" 
 />
    <glyph glyph-name="Scircumflex" unicode="&#x15c;" horiz-adv-x="514" 
 />
    <glyph glyph-name="scircumflex" unicode="&#x15d;" horiz-adv-x="430" 
 />
    <glyph glyph-name="Scedilla" unicode="&#x15e;" horiz-adv-x="561" 
 />
    <glyph glyph-name="scedilla" unicode="&#x15f;" horiz-adv-x="427" 
 />
    <glyph glyph-name="Scaron" unicode="&#x160;" horiz-adv-x="514" 
d="M319 665h-53l-96 148h70l54 -104l76 104h75zM48 81l-23 -60q96 -32 181 -32q217 0 231 146q7 61 -32.5 107.5t-130.5 94.5q-76 41 -104.5 68t-23.5 70q5 49 38 68.5t101 19.5q80 0 165 -22l19 56q-89 26 -176 27q-53 1 -94 -11.5t-62.5 -30t-35 -40.5t-17.5 -38t-4 -27
q-3 -64 30.5 -104.5t113.5 -81.5q86 -44 118.5 -79.5t27.5 -74.5q-11 -87 -158 -87q-66 0 -164 31z" />
    <glyph glyph-name="scaron" unicode="&#x161;" horiz-adv-x="452" 
d="M44 76l-19 -59q78 -24 148 -24q54 0 91.5 10.5t56.5 30t27 37.5t11 42q2 25 -5.5 49t-16.5 40t-32 38.5t-32.5 31t-37.5 29.5q-7 5 -10 8q-63 51 -85.5 80.5t-20.5 66.5q5 56 114 56q58 0 124 -17l15 57q-71 17 -136 18q-164 5 -179 -112q-7 -55 26.5 -99.5t104.5 -101.5
q34 -27 52 -42.5t37.5 -44t15.5 -52.5q-7 -65 -114 -65q-52 0 -135 23zM266 636h-53l-111 177h70l70 -134l101 134h74z" />
    <glyph glyph-name="Tcommaaccent" unicode="&#x162;" horiz-adv-x="545" 
 />
    <glyph glyph-name="tcommaaccent" unicode="&#x163;" horiz-adv-x="362" 
 />
    <glyph glyph-name="Tcaron" unicode="&#x164;" horiz-adv-x="515" 
 />
    <glyph glyph-name="tcaron" unicode="&#x165;" horiz-adv-x="510" 
 />
    <glyph glyph-name="Tbar" unicode="&#x166;" horiz-adv-x="545" 
 />
    <glyph glyph-name="tbar" unicode="&#x167;" horiz-adv-x="372" 
 />
    <glyph glyph-name="Utilde" unicode="&#x168;" horiz-adv-x="618" 
 />
    <glyph glyph-name="utilde" unicode="&#x169;" horiz-adv-x="585" 
 />
    <glyph glyph-name="Umacron" unicode="&#x16a;" horiz-adv-x="618" 
 />
    <glyph glyph-name="umacron" unicode="&#x16b;" horiz-adv-x="579" 
 />
    <glyph glyph-name="Ubreve" unicode="&#x16c;" horiz-adv-x="618" 
 />
    <glyph glyph-name="ubreve" unicode="&#x16d;" horiz-adv-x="577" 
 />
    <glyph glyph-name="Uring" unicode="&#x16e;" horiz-adv-x="618" 
 />
    <glyph glyph-name="uring" unicode="&#x16f;" horiz-adv-x="577" 
 />
    <glyph glyph-name="Uhungarumlaut" unicode="&#x170;" horiz-adv-x="618" 
 />
    <glyph glyph-name="uhungarumlaut" unicode="&#x171;" horiz-adv-x="620" 
 />
    <glyph glyph-name="Uogonek" unicode="&#x172;" horiz-adv-x="665" 
 />
    <glyph glyph-name="uogonek" unicode="&#x173;" horiz-adv-x="577" 
 />
    <glyph glyph-name="Wcircumflex" unicode="&#x174;" horiz-adv-x="788" 
 />
    <glyph glyph-name="wcircumflex" unicode="&#x175;" horiz-adv-x="755" 
 />
    <glyph glyph-name="Ycircumflex" unicode="&#x176;" horiz-adv-x="455" 
 />
    <glyph glyph-name="ycircumflex" unicode="&#x177;" horiz-adv-x="564" 
 />
    <glyph glyph-name="Ydieresis" unicode="&#x178;" horiz-adv-x="455" 
d="M106 730q0 24 16 40.5t39 16.5q24 0 40.5 -16.5t16.5 -40.5q0 -23 -16.5 -39.5t-40.5 -16.5q-23 0 -39 16.5t-16 39.5zM332 730q0 24 16 40.5t39 16.5q24 0 40.5 -16.5t16.5 -40.5q0 -23 -16.5 -39.5t-40.5 -16.5q-23 0 -39 16.5t-16 39.5zM225 0h-64l26 251l-162 371h69
l131 -310l196 309h69l-239 -368z" />
    <glyph glyph-name="Zacute" unicode="&#x179;" horiz-adv-x="535" 
 />
    <glyph glyph-name="zacute" unicode="&#x17a;" horiz-adv-x="497" 
 />
    <glyph glyph-name="Zdotaccent" unicode="&#x17b;" horiz-adv-x="535" 
 />
    <glyph glyph-name="zdotaccent" unicode="&#x17c;" horiz-adv-x="497" 
 />
    <glyph glyph-name="Zcaron" unicode="&#x17d;" horiz-adv-x="501" 
d="M472 0v60h-364l373 511v48h-429v-59h339l-366 -505v-55h447zM309 665h-53l-96 148h70l54 -104l76 104h75z" />
    <glyph glyph-name="zcaron" unicode="&#x17e;" horiz-adv-x="497" 
d="M467 512l5 46h-388v-57h316q-35 -68 -85.5 -139t-97 -123.5t-88 -96t-67.5 -66.5l-25 -22v-54h395v57h-314q98 88 192.5 207t156.5 248zM311 636h-53l-111 177h70l70 -134l101 134h74z" />
    <glyph glyph-name="longs" unicode="&#x17f;" horiz-adv-x="379" 
d="M144 -160l-64 1l67 663h-102l5 56h103l1 10q5 42 14.5 73.5t29.5 63t58.5 49.5t92.5 19q44 0 85 -6l-11 -57q-50 7 -88 4q-34 -1 -57.5 -14.5t-35 -37t-16.5 -42.5t-9 -45q-1 -6 -1 -8z" />
    <glyph glyph-name="florin" unicode="&#x192;" horiz-adv-x="389" 
d="M104 77l43 427h-102l5 56h103l1 10q5 42 14.5 73.5t29.5 63t58.5 49.5t92.5 19q39 0 85 -6l-11 -57q-50 7 -88 4q-34 -1 -57.5 -14.5t-35 -37t-16.5 -42.5t-9 -45q-1 -6 -1 -8l-1 -9h169l-4 -56h-171l-42 -431q-14 -128 -61.5 -187.5t-127.5 -65.5q-34 -3 -75 3l11 56
q36 -3 61 1q59 9 89 54t40 143z" />
    <glyph glyph-name="circumflex" unicode="&#x2c6;" horiz-adv-x="405" 
d="M290 636l-70 122l-102 -122h-73l151 177h53l111 -177h-70z" />
    <glyph glyph-name="caron" unicode="&#x2c7;" horiz-adv-x="405" 
d="M229 636h-53l-111 177h70l70 -134l101 134h74z" />
    <glyph glyph-name="breve" unicode="&#x2d8;" horiz-adv-x="370" 
d="M46 795h56q-1 -33 17.5 -57t63.5 -24q39 0 58 24.5t19 55.5h65q-2 -54 -40.5 -93t-104.5 -39q-70 0 -103.5 37.5t-30.5 95.5z" />
    <glyph glyph-name="dotaccent" unicode="&#x2d9;" horiz-adv-x="202" 
d="M45 727q0 24 16 40.5t39 16.5q24 0 40.5 -16.5t16.5 -40.5q0 -23 -16.5 -39.5t-40.5 -16.5q-23 0 -39 16.5t-16 39.5z" />
    <glyph glyph-name="ring" unicode="&#x2da;" horiz-adv-x="306" 
d="M88 731q0 -29 18 -44.5t48 -15.5q31 0 48 16t17 44t-19.5 44.5t-45.5 16.5t-46 -16.5t-20 -44.5zM40 731q0 46 33.5 75.5t79.5 29.5q48 0 80.5 -29.5t32.5 -75.5q0 -48 -32 -76t-81 -28q-47 0 -80 28t-33 76z" />
    <glyph glyph-name="ogonek" unicode="&#x2db;" horiz-adv-x="243" 
d="M110 24l59 -13q-56 -41 -59 -80q-2 -28 22.5 -47t65.5 -23l-17 -51q-70 6 -104.5 40t-29.5 79q5 57 63 95z" />
    <glyph glyph-name="tilde" unicode="&#x2dc;" horiz-adv-x="442" 
d="M151 738q-47 0 -52 -68h-54q0 64 31 94.5t72 30.5q35 0 83.5 -34.5t68.5 -34.5q25 0 33.5 16t10.5 51h53q0 -39 -11 -65.5t-28.5 -37.5t-31 -15t-27.5 -4q-31 0 -59.5 16.5t-50.5 33.5t-38 17z" />
    <glyph glyph-name="hungarumlaut" unicode="&#x2dd;" horiz-adv-x="419" 
d="M102 636h-57l102 193h72zM242 636h-57l117 193h72z" />
    <glyph glyph-name="Delta" unicode="&#x394;" horiz-adv-x="608" 
d="M371 723l194 -723h-597l335 723h68zM330 647l-271 -595h423z" />
    <glyph glyph-name="Delta" unicode="&#x2206;" horiz-adv-x="608" 
d="M371 723l194 -723h-597l335 723h68zM330 647l-271 -595h423z" />
    <glyph glyph-name="Omega" unicode="&#x3a9;" horiz-adv-x="794" 
d="M291 52l-6 -51l-247 -1l6 52h165q-70 59 -107 143.5t-26 185.5q7 67 32 128t66.5 110.5t104 79t137.5 29.5q99 0 166 -53t92.5 -131.5t16.5 -168.5q-22 -201 -199 -323h194l-6 -52h-278l6 52q93 57 150.5 139.5t68.5 183.5q5 50 -3.5 99t-31 93.5t-69 72t-110.5 27.5
t-115.5 -27.5t-83.5 -72t-50.5 -93.5t-23.5 -99q-20 -186 151 -323z" />
    <glyph glyph-name="Omega" unicode="&#x2126;" horiz-adv-x="794" 
d="M291 52l-6 -51l-247 -1l6 52h165q-70 59 -107 143.5t-26 185.5q7 67 32 128t66.5 110.5t104 79t137.5 29.5q99 0 166 -53t92.5 -131.5t16.5 -168.5q-22 -201 -199 -323h194l-6 -52h-278l6 52q93 57 150.5 139.5t68.5 183.5q5 50 -3.5 99t-31 93.5t-69 72t-110.5 27.5
t-115.5 -27.5t-83.5 -72t-50.5 -93.5t-23.5 -99q-20 -186 151 -323z" />
    <glyph glyph-name="pi" unicode="&#x3c0;" horiz-adv-x="637" 
d="M57 500l6 61h569l-6 -61h-72l-53 -500h-63l52 499h-299l-52 -499h-64l53 500h-71z" />
    <glyph glyph-name="endash" unicode="&#x2013;" horiz-adv-x="599" 
d="M527 352l-7 -59h-449l7 59h449z" />
    <glyph glyph-name="emdash" unicode="&#x2014;" horiz-adv-x="779" 
d="M707 352l-7 -59h-629l7 59h629z" />
    <glyph glyph-name="quoteleft" unicode="&#x2018;" horiz-adv-x="155" 
d="M86 522q-25 -2 -40 13.5t-13 43.5q2 38 26.5 88t75.5 101l38 -18q-53 -87 -40 -164q4 -26 -10.5 -44t-36.5 -20z" />
    <glyph glyph-name="quoteright" unicode="&#x2019;" horiz-adv-x="165" 
d="M117 764q25 2 40 -13.5t13 -43.5q-2 -38 -26.5 -88t-75.5 -101l-38 18q53 87 40 164q-4 26 10.5 44t36.5 20z" />
    <glyph glyph-name="quotesinglbase" unicode="&#x201a;" horiz-adv-x="189" 
d="M72 115q25 2 40 -13.5t13 -43.5q-2 -38 -26.5 -88t-75.5 -101l-38 18q53 87 40 164q-4 26 10.5 44t36.5 20z" />
    <glyph glyph-name="quotedblleft" unicode="&#x201c;" horiz-adv-x="318" 
d="M251 522q-25 -2 -40 13.5t-13 43.5q2 38 26.5 88t75.5 101l38 -18q-53 -87 -40 -164q4 -26 -10.5 -44t-36.5 -20zM86 522q-25 -2 -40 13.5t-13 43.5q2 38 26.5 88t75.5 101l38 -18q-53 -87 -40 -164q4 -26 -10.5 -44t-36.5 -20z" />
    <glyph glyph-name="quotedblright" unicode="&#x201d;" horiz-adv-x="338" 
d="M115 765q25 2 40 -13.5t13 -43.5q-2 -38 -26.5 -88t-75.5 -101l-38 18q53 87 40 164q-4 26 10.5 44t36.5 20zM285 765q25 2 40 -13.5t13 -43.5q-2 -38 -26.5 -88t-75.5 -101l-38 18q53 87 40 164q-4 26 10.5 44t36.5 20z" />
    <glyph glyph-name="quotedblbase" unicode="&#x201e;" horiz-adv-x="352" 
d="M68 125q25 2 40 -13.5t13 -43.5q-2 -38 -26.5 -88t-75.5 -101l-38 18q53 87 40 164q-4 26 10.5 44t36.5 20zM238 125q25 2 40 -13.5t13 -43.5q-2 -38 -26.5 -88t-75.5 -101l-38 18q53 87 40 164q-4 26 10.5 44t36.5 20z" />
    <glyph glyph-name="dagger" unicode="&#x2020;" horiz-adv-x="505" 
d="M470 510l-6 -55h-182l-51 -485h-62l51 485h-185l6 55h185l22 212h62l-22 -212h182z" />
    <glyph glyph-name="daggerdbl" unicode="&#x2021;" horiz-adv-x="473" 
d="M438 510l-5 -55h-157l-22 -215h156l-6 -55h-156l-28 -265h-58l28 265h-155l6 55h155l22 215h-154l5 55h155l23 212h58l-23 -212h156z" />
    <glyph glyph-name="bullet" unicode="&#x2022;" horiz-adv-x="417" 
d="M75 320q0 58 37.5 96.5t95.5 38.5q57 0 95.5 -38.5t38.5 -96.5q0 -57 -38.5 -94.5t-95.5 -37.5q-58 0 -95.5 37.5t-37.5 94.5z" />
    <glyph glyph-name="ellipsis" unicode="&#x2026;" horiz-adv-x="956" 
d="M105 47q0 28 18 46.5t46 18.5t46.5 -18.5t18.5 -46.5t-18.5 -46t-46.5 -18t-46 18t-18 46zM417 47q0 28 18 46.5t46 18.5t46.5 -18.5t18.5 -46.5t-18.5 -46t-46.5 -18t-46 18t-18 46zM722 47q0 28 18 46.5t46 18.5t46.5 -18.5t18.5 -46.5t-18.5 -46t-46.5 -18t-46 18
t-18 46z" />
    <glyph glyph-name="perthousand" unicode="&#x2030;" horiz-adv-x="1049" 
d="M694 157q-8 -71 31.5 -119t105.5 -48q74 0 118.5 46.5t52.5 120.5q8 73 -28 120.5t-108 47.5q-74 0 -119 -47.5t-53 -120.5zM752 157q6 53 34 85.5t76 32.5q49 0 70 -32.5t15 -85.5q-12 -118 -110 -118q-49 0 -69.5 31.5t-15.5 86.5zM66 107l34 -37l545 544l-34 37z
M125 557q-5 -55 15.5 -86.5t69.5 -31.5q98 0 110 118q6 53 -14.5 85.5t-70.5 32.5q-48 0 -76 -32.5t-34 -85.5zM67 557q8 74 51.5 121t117.5 47q67 0 107 -49t32 -119q-8 -75 -51 -121t-117 -46q-68 0 -108 47.5t-32 119.5zM383 157q-5 -55 15.5 -86.5t69.5 -31.5
q98 0 110 118q6 53 -15 85.5t-70 32.5q-48 0 -76 -32.5t-34 -85.5zM325 157q8 74 51.5 121t117.5 47q67 0 107 -49t32 -119q-8 -75 -51 -121t-117 -46q-68 0 -108 47.5t-32 119.5z" />
    <glyph glyph-name="guilsinglleft" unicode="&#x2039;" horiz-adv-x="266" 
d="M143 107l-109 192l159 201h73l-159 -201l113 -192h-77z" />
    <glyph glyph-name="guilsinglright" unicode="&#x203a;" horiz-adv-x="266" 
d="M230 299l-149 -192h-77l153 192l-117 201h73z" />
    <glyph glyph-name="fraction" unicode="&#x2044;" horiz-adv-x="779" 
d="M34 -30l-34 37l745 744l34 -37z" />
    <glyph glyph-name="zerosuperior" unicode="&#x2070;" horiz-adv-x="290" 
 />
    <glyph glyph-name="foursuperior" unicode="&#x2074;" horiz-adv-x="353" 
 />
    <glyph glyph-name="fivesuperior" unicode="&#x2075;" horiz-adv-x="290" 
 />
    <glyph glyph-name="sixsuperior" unicode="&#x2076;" horiz-adv-x="290" 
 />
    <glyph glyph-name="sevensuperior" unicode="&#x2077;" horiz-adv-x="290" 
 />
    <glyph glyph-name="eightsuperior" unicode="&#x2078;" horiz-adv-x="290" 
 />
    <glyph glyph-name="ninesuperior" unicode="&#x2079;" horiz-adv-x="290" 
 />
    <glyph glyph-name="zeroinferior" unicode="&#x2080;" horiz-adv-x="290" 
 />
    <glyph glyph-name="oneinferior" unicode="&#x2081;" horiz-adv-x="290" 
d="M238 -66l-4 -43h-181l4 43h72l26 249l-86 -46l-16 36l100 55h52l-31 -294h64z" />
    <glyph glyph-name="twoinferior" unicode="&#x2082;" horiz-adv-x="290" 
d="M242 -61l-5 -46h-233l5 47q66 50 97.5 75t60 57t30.5 55q4 30 -15 44.5t-54 14.5q-32 0 -83 -12l-5 40q61 13 95 13q64 1 88.5 -27t20.5 -66q-5 -46 -52 -93.5t-126 -101.5h176z" />
    <glyph glyph-name="threeinferior" unicode="&#x2083;" horiz-adv-x="290" 
d="M81 36l4 40h19q43 1 67 17.5t26 41.5q3 27 -17 36.5t-50 9.5q-23 0 -72 -9l-6 40q46 11 81 11q59 1 90 -22t26 -62q-3 -31 -26 -50t-54 -27q38 -7 57.5 -31t14.5 -55q-5 -40 -39.5 -67.5t-97.5 -26.5q-50 2 -88 16l13 38q48 -12 80 -12q81 0 88 55q3 24 -21.5 41
t-75.5 16h-19z" />
    <glyph glyph-name="fourinferior" unicode="&#x2084;" horiz-adv-x="353" 
 />
    <glyph glyph-name="fiveinferior" unicode="&#x2085;" horiz-adv-x="290" 
 />
    <glyph glyph-name="sixinferior" unicode="&#x2086;" horiz-adv-x="290" 
 />
    <glyph glyph-name="seveninferior" unicode="&#x2087;" horiz-adv-x="290" 
 />
    <glyph glyph-name="eightinferior" unicode="&#x2088;" horiz-adv-x="290" 
 />
    <glyph glyph-name="nineinferior" unicode="&#x2089;" horiz-adv-x="290" 
 />
    <glyph glyph-name="Euro" unicode="&#x20ac;" 
d="M532 392l-12 -52h-357q-4 -56 7.5 -106t39.5 -92t79 -67t119 -26q75 0 129 12l8 -57q-66 -16 -142 -14q-153 2 -232.5 103t-69.5 247h-99l12 52h94q24 142 114 224.5t236 82.5q65 0 130 -15l-13 -53q-73 12 -120 12q-121 0 -192.5 -69.5t-92.5 -181.5h362z" />
    <glyph glyph-name="afii61352" unicode="&#x2116;" horiz-adv-x="1076" 
d="M134 0h-64l75 721h55l314 -606l63 606h63l-75 -721h-58l-310 600zM1017 300l-4 -46h-306l4 46h306zM1034 564q-9 -76 -51 -124t-115 -48q-75 2 -107.5 49.5t-23.5 122.5q9 74 52.5 119.5t113.5 45.5t104.5 -45.5t26.5 -119.5zM792 564q-11 -124 82 -124q50 0 75 37t30 87
q4 45 -15 80.5t-66 35.5t-74.5 -35t-31.5 -81z" />
    <glyph glyph-name="trademark" unicode="&#x2122;" horiz-adv-x="809" 
d="M212 392h-54l29 281h-121l6 50h294l-6 -50h-119zM438 726h57l71 -229l117 229h59l-6 -334h-57l7 239l-96 -192h-61l-56 193l-41 -240h-56z" />
    <glyph glyph-name="onethird" unicode="&#x2153;" horiz-adv-x="646" 
 />
    <glyph glyph-name="twothirds" unicode="&#x2154;" horiz-adv-x="666" 
 />
    <glyph glyph-name="oneeighth" unicode="&#x215b;" horiz-adv-x="646" 
 />
    <glyph glyph-name="threeeighths" unicode="&#x215c;" horiz-adv-x="657" 
 />
    <glyph glyph-name="fiveeighths" unicode="&#x215d;" horiz-adv-x="652" 
 />
    <glyph glyph-name="seveneighths" unicode="&#x215e;" horiz-adv-x="648" 
 />
    <glyph glyph-name="arrowleft" unicode="&#x2190;" horiz-adv-x="875" 
d="M765 353v-59h-563l223 -221h-81l-234 234v32l234 231h79l-219 -217h561z" />
    <glyph glyph-name="arrowup" unicode="&#x2191;" horiz-adv-x="875" 
d="M465 -6h-59v561l-217 -219v79l231 234h32l234 -234v-81l-221 223v-563z" />
    <glyph glyph-name="arrowright" unicode="&#x2192;" horiz-adv-x="875" 
d="M130 294v59h561l-219 217h79l234 -231v-32l-234 -234h-81l223 221h-563z" />
    <glyph glyph-name="arrowdown" unicode="&#x2193;" horiz-adv-x="875" 
d="M410 649h59v-561l217 219v-79l-231 -234h-32l-234 234v81l221 -223v563z" />
    <glyph glyph-name="arrowupleft" unicode="&#x2196;" horiz-adv-x="875" 
d="M719 79l-42 -41l-427 426l2 -308l-56 56l-2 329l22 22h331l57 -57l-314 1z" />
    <glyph glyph-name="arrowupright" unicode="&#x2197;" horiz-adv-x="875" 
d="M236 36l-42 41l429 428l-314 -1l57 57h331l22 -22l-2 -329l-56 -56l2 308z" />
    <glyph glyph-name="arrowdownright" unicode="&#x2198;" horiz-adv-x="875" 
d="M194 502l42 41l427 -426l-2 308l56 -56l2 -329l-22 -22h-331l-57 57l314 -1z" />
    <glyph glyph-name="arrowdownleft" unicode="&#x2199;" horiz-adv-x="875" 
d="M677 543l42 -41l-429 -428l314 1l-57 -57h-331l-22 22l2 329l56 56l-2 -308z" />
    <glyph glyph-name="product" unicode="&#x220f;" horiz-adv-x="665" 
d="M535 0h-63l69 660h-363l-69 -660h-64l75 723h490z" />
    <glyph glyph-name="summation" unicode="&#x2211;" horiz-adv-x="591" 
d="M495 60l-6 -60h-421l6 62l292 296l-231 285l6 58h421l-6 -59h-341l218 -263l-5 -49l-275 -270h342z" />
    <glyph glyph-name="minus" unicode="&#x2212;" 
d="M531 346l-5 -52h-468l5 52h468z" />
    <glyph glyph-name="radical" unicode="&#x221a;" horiz-adv-x="667" 
d="M305 -3h-63l-122 496h-110l7 66l157 1l106 -480l335 738h72z" />
    <glyph glyph-name="infinity" unicode="&#x221e;" horiz-adv-x="710" 
d="M684 343q-11 -79 -65 -114t-105 -35q-100 0 -174 103q-37 -37 -57 -53.5t-56.5 -32.5t-78.5 -16q-61 0 -95 43.5t-28 100.5q6 74 54.5 113.5t100.5 39.5q57 0 98 -27.5t77 -79.5q97 114 196 114q22 0 44.5 -6.5t45.5 -22.5t35.5 -49t7.5 -78zM542 448q-40 0 -88.5 -35.5
t-76.5 -75.5q59 -94 140 -93q51 1 78 30t31 72q5 42 -17 72t-67 30zM154 247q45 0 77 21t86 75q-66 99 -139 99q-49 0 -73.5 -30.5t-28.5 -70.5q-3 -35 17 -64.5t61 -29.5z" />
    <glyph glyph-name="integral" unicode="&#x222b;" horiz-adv-x="403" 
d="M91 -5l63 602q8 81 46.5 126t123.5 49q35 2 86 -5l-13 -56q-51 6 -88 2q-28 -3 -46 -13t-27.5 -27.5t-13 -34t-6.5 -42.5l-63 -602q-8 -82 -45.5 -126.5t-123.5 -48.5q-35 -2 -86 5l13 56q51 -6 88 -2q48 5 67.5 35.5t24.5 81.5z" />
    <glyph glyph-name="approxequal" unicode="&#x2248;" 
d="M398 382q29 0 48.5 9t29 26.5t12.5 28t6 30.5q1 4 1 6h59q-16 -157 -162 -157q-41 0 -114.5 46.5t-107.5 46.5q-64 0 -76 -85h-57q14 140 145 140q33 0 64.5 -14t52.5 -31.5t48 -31.5t51 -14zM401 209q64 0 76 85h57q-14 -140 -145 -140q-42 0 -80 23t-72 45.5t-64 22.5
q-29 0 -48.5 -9t-29 -26.5t-12.5 -28t-6 -30.5q-1 -4 -1 -6h-59q16 157 162 157q41 0 114.5 -46.5t107.5 -46.5z" />
    <glyph glyph-name="notequal" unicode="&#x2260;" horiz-adv-x="599" 
d="M540 445l-5 -52h-178l-50 -137h233l-5 -52h-247l-53 -148h-57l54 148h-165l5 52h179l50 137h-234l5 52h248l58 159h56l-58 -159h164z" />
    <glyph glyph-name="lessequal" unicode="&#x2264;" 
d="M526 2l5 52h-468l-5 -52h468zM507 141l-6 -66l-434 217l5 43l480 217l-8 -66l-391 -172z" />
    <glyph glyph-name="greaterequal" unicode="&#x2265;" 
d="M531 54l-5 -52h-468l5 52h468zM63 75l8 66l392 173l-355 172l6 66l434 -217l-5 -43z" />
    <glyph glyph-name="lozenge" unicode="&#x25ca;" horiz-adv-x="603" 
d="M365 653l163 -322l-230 -331h-68l-155 329l222 324h68zM325 594l-181 -268l124 -266l188 274z" />
    <glyph glyph-name="smileface" unicode="&#x263a;" horiz-adv-x="791" 
d="M45 331q0 145 103 248t248 103t247.5 -103t102.5 -248t-102.5 -247.5t-247.5 -102.5t-248 102.5t-103 247.5zM233 467q0 -21 14.5 -35t35.5 -14q20 0 34.5 14t14.5 35t-14.5 35.5t-34.5 14.5t-35 -14.5t-15 -35.5zM473 467q0 -21 14.5 -35t35.5 -14q20 0 34.5 14t14.5 35
t-14.5 35.5t-34.5 14.5t-35 -14.5t-15 -35.5zM202 326l-42 -8q0 -99 68.5 -170t173.5 -71q101 0 171 71.5t70 169.5l-42 8q0 -92 -60 -146.5t-139 -54.5q-81 0 -140.5 54t-59.5 147z" />
    <glyph glyph-name="uni2776" unicode="&#x2776;" horiz-adv-x="1099" 
d="M100 323q0 186 131.5 318t317.5 132q185 0 317.5 -132.5t132.5 -317.5q0 -186 -132 -317.5t-318 -131.5q-187 0 -318 131t-131 318zM396 50h275l5 48h-111l56 525h-43l-160 -80l19 -41l127 60l-50 -464h-112z" />
    <glyph glyph-name="uni2777" unicode="&#x2777;" horiz-adv-x="1099" 
d="M100 323q0 186 131.5 318t317.5 132q185 0 317.5 -132.5t132.5 -317.5q0 -186 -132 -317.5t-318 -131.5q-187 0 -318 131t-131 318zM692 50l4 48h-262q144 119 212.5 198.5t81.5 167.5q2 21 -2 45t-18.5 53.5t-54 48.5t-98.5 18q-51 -1 -130 -22l9 -47q71 20 117 20
q61 0 95.5 -25.5t27.5 -90.5q-3 -28 -16 -56.5t-28 -51t-49 -57.5t-57 -57t-75 -69.5t-82 -75.5l-4 -47h329z" />
    <glyph glyph-name="uni2778" unicode="&#x2778;" horiz-adv-x="1099" 
d="M100 323q0 186 131.5 318t317.5 132q185 0 317.5 -132.5t132.5 -317.5q0 -186 -132 -317.5t-318 -131.5q-187 0 -318 131t-131 318zM471 374l-5 -50h48q50 -1 83.5 -13.5t48.5 -32.5t20 -41t2 -45q-6 -55 -49 -81.5t-110 -24.5q-56 0 -127 15l-17 -48q76 -17 138 -18
q40 0 73 6.5t55 17t39 25.5t26.5 28.5t15.5 29.5t8 25t3 18q8 56 -21 102.5t-84 62.5q52 11 83 49.5t34 81.5q8 66 -39 110t-141 42q-62 -1 -126 -17l5 -48q72 15 117 15q61 0 98.5 -23t31.5 -79q-10 -104 -173 -107h-37z" />
    <glyph glyph-name="uni2779" unicode="&#x2779;" horiz-adv-x="1099" 
d="M100 323q0 186 131.5 318t317.5 132q185 0 317.5 -132.5t132.5 -317.5q0 -186 -132 -317.5t-318 -131.5q-187 0 -318 131t-131 318zM542 51h52l19 173h62l4 49h-62l38 356h-83l-282 -358l-5 -47h275zM565 273h-217l251 317z" />
    <glyph glyph-name="uni277A" unicode="&#x277a;" horiz-adv-x="1099" 
d="M100 323q0 186 131.5 318t317.5 132q185 0 317.5 -132.5t132.5 -317.5q0 -186 -132 -317.5t-318 -131.5q-187 0 -318 131t-131 318zM416 332h50q43 0 70.5 -2t56 -8.5t44 -19t24 -34.5t4.5 -53q-5 -57 -40.5 -92.5t-110.5 -35.5q-68 0 -138 17l-14 -49q59 -18 146 -19
q54 -1 95.5 15.5t62 36.5t34 50.5t16 43t4.5 28.5q6 55 -12.5 92t-54 52.5t-83 21.5t-99.5 0l21 198h241l5 48h-292z" />
    <glyph glyph-name="uni277B" unicode="&#x277b;" horiz-adv-x="1099" 
d="M100 323q0 186 131.5 318t317.5 132q185 0 317.5 -132.5t132.5 -317.5q0 -186 -132 -317.5t-318 -131.5q-187 0 -318 131t-131 318zM505 85q-37 0 -63.5 16.5t-38 42t-18 55.5t-5 56.5t1.5 46.5q12 131 67 206.5t158 76.5q37 0 91 -9l12 43q-35 11 -100 11
q-62 0 -111 -24t-78 -59.5t-48.5 -82.5t-27 -85.5t-10.5 -76.5q1 -22 -1 -54t8.5 -68.5t26 -68t51 -52t84.5 -20.5q79 0 129.5 49t58.5 130q8 77 -28.5 125.5t-116.5 48.5q-53 0 -116 -33l14 -44q48 28 96 28q60 0 82.5 -35.5t17.5 -89.5q-7 -58 -42.5 -95.5t-93.5 -37.5z
" />
    <glyph glyph-name="uni277C" unicode="&#x277c;" horiz-adv-x="1099" 
d="M100 323q0 186 131.5 318t317.5 132q185 0 317.5 -132.5t132.5 -317.5q0 -186 -132 -317.5t-318 -131.5q-187 0 -318 131t-131 318zM444 36h52l226 529v47h-351v-46h300z" />
    <glyph glyph-name="uni277D" unicode="&#x277d;" horiz-adv-x="1099" 
d="M100 323q0 186 131.5 318t317.5 132q185 0 317.5 -132.5t132.5 -317.5q0 -186 -132 -317.5t-318 -131.5q-187 0 -318 131t-131 318zM514 37q102 0 153 43t57 102q12 115 -115 167q51 18 86.5 55t41.5 89q6 56 -31 99.5t-126 43.5q-72 0 -126.5 -36.5t-61.5 -103.5
q-5 -52 21.5 -89.5t71.5 -58.5q-57 -20 -98 -60.5t-47 -101.5q-2 -25 4.5 -48.5t23.5 -47t54.5 -38t91.5 -15.5zM669 184q-6 -52 -50 -75.5t-100 -23.5q-57 1 -93.5 24t-33.5 76q6 102 145 138q26 -8 45 -16t43 -24t35.5 -41.5t8.5 -57.5zM445 496q5 48 44.5 71t85.5 23
q50 0 82.5 -22.5t27.5 -73.5q-10 -89 -134 -125q-115 45 -106 127z" />
    <glyph glyph-name="uni277E" unicode="&#x277e;" horiz-adv-x="1099" 
d="M100 323q0 186 131.5 318t317.5 132q185 0 317.5 -132.5t132.5 -317.5q0 -186 -132 -317.5t-318 -131.5q-187 0 -318 131t-131 318zM562 585q39 0 67 -18.5t40 -45.5t19 -58t5 -55.5t-1 -38.5q-28 -280 -223 -282q-37 -1 -76 5l-11 -45q48 -8 81 -8q65 0 115.5 23
t78.5 54.5t47.5 80t26.5 84t12 81.5q4 17 2 43t-5 56t-16 60t-31 54t-51 39.5t-76 15.5q-82 0 -135.5 -52.5t-61.5 -133.5q-8 -67 33 -118t126 -51q61 0 115 23l-11 44q-48 -18 -99 -18q-61 0 -88.5 33.5t-22.5 86.5q5 57 42.5 99t97.5 42z" />
    <glyph glyph-name="uni277F" unicode="&#x277f;" horiz-adv-x="1099" 
d="M100 323q0 186 131.5 318t317.5 132q185 0 317.5 -132.5t132.5 -317.5q0 -186 -132 -317.5t-318 -131.5q-187 0 -318 131t-131 318zM749 329q14 132 -27 215t-143 84q-107 -1 -163.5 -82t-71.5 -217q-9 -87 4 -150.5t55.5 -103t112.5 -40.5q107 1 163 79.5t70 214.5z
M399 329q26 245 173 249q145 -4 119 -249q-7 -67 -24 -119t-56 -89t-94 -37q-144 1 -118 245z" />
    <glyph glyph-name="U_Accent" horiz-adv-x="680" 
d="M224 623l-42 -396q-16 -178 152 -178q81 0 125 43.5t53 134.5l42 396h65l-42 -396q-25 -239 -249 -239q-236 0 -211 239l42 396h65z" />
    <glyph glyph-name="O_Accent" horiz-adv-x="709" 
d="M91 311q15 141 97.5 231.5t216.5 90.5t197 -90.5t48 -231.5t-98 -231.5t-214 -90.5q-132 0 -197 90.5t-50 231.5zM587 311q7 70 -7 127.5t-60.5 97t-120.5 39.5q-109 0 -170.5 -77t-73.5 -187q-7 -68 8.5 -125.5t61.5 -97t118 -39.5q107 0 169.5 77.5t74.5 184.5z" />
    <glyph glyph-name="E_Accent" horiz-adv-x="561" 
d="M475 60l-6 -60h-381l66 622h381l-7 -59h-317l-22 -214h280l-7 -61h-280l-24 -228h317z" />
    <glyph glyph-name="A_Accent" horiz-adv-x="561" 
d="M-11 0l306 628h59l185 -628h-67l-50 175h-285l-82 -175h-66zM408 230l-92 316l-153 -316h245z" />
    <glyph glyph-name="grave_Versal" horiz-adv-x="259" 
d="M214 665l-62 -1l-107 165h77z" />
    <glyph glyph-name="acute_Versal" horiz-adv-x="259" 
d="M107 664l-62 1l92 164h77z" />
    <glyph glyph-name="circumflex_Versal" horiz-adv-x="364" 
d="M252 665l-57 94l-83 -96h-67l126 150h53l95 -148h-67z" />
    <glyph glyph-name="one.pnum_onum" horiz-adv-x="344" 
d="M220 0h-64l52 490l-156 -81l-24 51l187 99h64z" />
    <glyph glyph-name="two.pnum_onum" horiz-adv-x="487" 
d="M420 60l-6 -60h-379l6 58q188 126 250 189.5t71 137.5q5 43 -18 72t-58 40t-77 11q-54 0 -145 -25l-11 58q95 26 161 27t112 -16t68 -46.5t30.5 -60t6.5 -63.5q-7 -81 -79 -159.5t-212 -162.5h280z" />
    <glyph glyph-name="three.pnum_onum" horiz-adv-x="515" 
d="M122 196l6 60h45q196 3 209 129q5 46 -18 74.5t-58 38.5t-81 10q-48 0 -142 -18l-5 57q81 20 152 21q114 3 170.5 -51t46.5 -132q-3 -52 -40.5 -98.5t-100.5 -59.5q66 -19 101.5 -75.5t25.5 -123.5q-2 -17 -6.5 -33.5t-21.5 -45.5t-43.5 -50t-77.5 -37t-117 -15
q-79 1 -167 22l21 58q77 -17 153 -19q81 -2 132.5 29.5t59.5 98.5q3 29 -2.5 54.5t-24 50t-59 39.5t-100.5 16h-58z" />
    <glyph glyph-name="four.pnum_onum" 
d="M432 -150h-64l23 212h-338l6 58l346 439h102l-46 -437h76l-6 -60h-76zM131 122h266l41 389z" />
    <glyph glyph-name="five.pnum_onum" horiz-adv-x="515" 
d="M140 211h-61l37 349h352l-6 -58h-291l-25 -238q63 8 120.5 0.5t100 -26.5t64.5 -63.5t15 -111.5q-2 -17 -5 -34t-19.5 -52.5t-41 -60t-74.5 -44t-115 -18.5q-105 1 -176 23l16 59q82 -21 167 -21q167 0 182 155q4 37 -6 63.5t-28.5 41.5t-52.5 23t-68 10.5t-85 2.5z" />
    <glyph glyph-name="six.pnum_onum" horiz-adv-x="541" 
d="M245 48q71 0 114.5 46t51.5 116q7 67 -20.5 110t-101.5 43q-60 0 -117 -34l-17 54q75 40 141 40q98 0 143 -59.5t35 -153.5q-11 -99 -72.5 -159t-157.5 -60q-51 0 -89.5 18t-59.5 47t-36 64.5t-18 71.5t-5.5 68t1.5 53q4 47 13 93.5t33.5 104.5t59.5 101t95 72.5
t136 29.5q78 0 122 -13l-15 -53q-58 11 -111 11q-126 -1 -193.5 -93.5t-81.5 -252.5q0 -24 -2.5 -56.5t6 -69.5t22.5 -67.5t46.5 -51t77.5 -20.5z" />
    <glyph glyph-name="seven.pnum_onum" horiz-adv-x="490" 
d="M208 -145h-64l278 649h-367v56h430v-58z" />
    <glyph glyph-name="eight.pnum_onum" horiz-adv-x="577" 
d="M248 -9q-53 1 -93 13.5t-63 31.5t-36.5 44t-17.5 47.5t-2 46.5q8 75 58 124t119 73q-55 26 -87 72t-26 109q6 56 41 96t83.5 57.5t104.5 17.5q57 0 98 -16t61 -42.5t28 -55.5t5 -60q-7 -64 -50.5 -109.5t-106.5 -66.5q155 -65 140 -204q-3 -33 -18 -62.5t-44 -56.5
t-79 -43t-115 -16zM437 171q3 32 -7 59t-25 43.5t-41 31.5t-44 21.5t-43 14.5q-29 -7 -55.5 -18.5t-55.5 -31t-47 -50.5t-20 -69q-4 -65 41 -93t114 -29q68 0 122 28.5t61 92.5zM164 552q-10 -100 130 -155q151 44 163 153q6 62 -33 89.5t-101 27.5q-57 0 -105 -28t-54 -87z
" />
    <glyph glyph-name="zero.pnum_onum" horiz-adv-x="548" 
d="M478 281q-32 -292 -251 -292q-54 1 -92 26t-55 65.5t-23.5 93t2.5 107.5q13 126 79 207t182 82q189 0 158 -289zM122 281q-26 -234 113 -234q49 1 83.5 21.5t53.5 56.5t28.5 72t14.5 84q4 34 5 60t-2.5 60.5t-14 56.5t-33.5 38t-57 16q-48 -1 -84.5 -21.5t-57.5 -55.5
t-32.5 -72.5t-16.5 -81.5z" />
    <glyph glyph-name="nine.pnum_onum" horiz-adv-x="530" 
d="M252 505q-74 0 -119 -51t-52 -120q-6 -64 27.5 -105t107.5 -41q63 0 121 22l13 -54q-64 -28 -140 -28q-70 0 -117 31.5t-64.5 77t-11.5 97.5q10 99 74.5 162.5t164.5 63.5q52 0 92.5 -18.5t62.5 -48t38 -66.5t19 -73t5.5 -68t-2.5 -52q-4 -38 -9 -69.5t-16.5 -73.5
t-27 -75t-41.5 -67t-59 -56.5t-81 -37t-106 -14.5q-43 0 -98 10l13 55q49 -8 92 -7q56 1 100 20t73 50t49.5 76t31.5 92.5t17 104.5q2 17 2 37.5t-3 53t-13 60.5t-26.5 54.5t-46.5 42t-70 15.5z" />
    <glyph glyph-name="caron_Versal" horiz-adv-x="365" 
d="M209 665h-53l-96 148h70l54 -104l76 104h75z" />
    <glyph glyph-name="S_Accent" horiz-adv-x="534" 
d="M45 21l23 60q98 -31 164 -31q147 0 158 87q5 39 -27.5 74.5t-118.5 79.5q-80 41 -113.5 81.5t-30.5 104.5q0 12 4 27t17.5 38t35 40.5t62.5 30t94 11.5q87 -1 176 -27l-19 -56q-85 22 -165 22q-68 0 -101 -19.5t-38 -68.5q-5 -43 23.5 -70t104.5 -68q91 -48 130.5 -94.5
t32.5 -107.5q-14 -146 -231 -146q-85 0 -181 32z" />
    <glyph glyph-name="I_Accent" horiz-adv-x="396" 
d="M294 57l-6 -57h-246l6 57h93l53 510h-91l6 56h242l-6 -56h-91l-53 -510h93z" />
    <glyph glyph-name="N_Accent" horiz-adv-x="680" 
d="M129 0h-62l65 624h55l318 -509l47 509h61l-59 -624h-54l-318 506z" />
    <glyph glyph-name="Y_Accent" horiz-adv-x="545" 
d="M272 0h-64l26 251l-162 371h69l131 -310l196 309h69l-239 -368z" />
    <glyph glyph-name="fl.alt" horiz-adv-x="689" 
d="M608 69l16 -58q-45 -16 -85 -16q-115 0 -99 143l55 562q-92 20 -148 16q-68 -3 -93.5 -34t-32.5 -86l-4 -36h149l-7 -56h-149l-58 -664h-62l58 664h-103l7 56h103l4 37q10 78 61 126t139 47q75 0 156 -18l47 -8l-60 -606q-4 -43 3.5 -62.5t37.5 -19.5q29 0 65 13z" />
    <glyph glyph-name="Dot_close" horiz-adv-x="1099" 
d="M100 323q0 186 131.5 318t317.5 132q185 0 317.5 -132.5t132.5 -317.5q0 -186 -132 -317.5t-318 -131.5q-187 0 -318 131t-131 318zM372 575l-48 -44l176 -196l-218 -197l37 -42l218 197l178 -199l49 43l-179 200l218 197l-37 42l-218 -198z" />
    <glyph glyph-name="Dot_plus" horiz-adv-x="1099" 
d="M100 323q0 186 131.5 318t317.5 132q185 0 317.5 -132.5t132.5 -317.5q0 -186 -132 -317.5t-318 -131.5q-187 0 -318 131t-131 318zM596 604h-59l-25 -244h-235l-7 -59h235l-23 -226h59l23 226h235l7 59h-235z" />
    <glyph glyph-name="Dot_right" horiz-adv-x="1099" 
d="M760 333l-278 270l-57 -539zM99 323q0 186 131.5 318t317.5 132q185 0 317.5 -132.5t132.5 -317.5q0 -186 -132 -317.5t-318 -131.5q-187 0 -318 131t-131 318z" />
    <glyph glyph-name="Dot_left" horiz-adv-x="1099" 
d="M679 603l-336 -270l279 -269zM119 323q0 186 131.5 318t317.5 132q185 0 317.5 -132.5t132.5 -317.5q0 -186 -132 -317.5t-318 -131.5q-187 0 -318 131t-131 318z" />
    <glyph glyph-name="Dot_minus" horiz-adv-x="1099" 
d="M100 323q0 186 131.5 318t317.5 132q185 0 317.5 -132.5t132.5 -317.5q0 -186 -132 -317.5t-318 -131.5q-187 0 -318 131t-131 318zM811 363h-529l-7 -55h529z" />
    <glyph glyph-name="Dot_question" horiz-adv-x="1099" 
d="M999 323q0 -187 -131 -318t-318 -131q-186 0 -318 131.5t-132 317.5q0 185 132.5 317.5t317.5 132.5q186 0 317.5 -132t131.5 -318zM519 332l-7 -123h57l9 88q150 60 157 169q2 26 -3 49.5t-20.5 50t-54.5 41.5t-98 14q-52 -1 -134 -19l7 -51q97 17 125 17
q62 0 93.5 -20.5t26.5 -83.5q-4 -48 -43 -77.5t-115 -54.5zM475 83q-2 -26 13 -42.5t40 -16.5q26 0 44.5 17t20.5 42q2 26 -14.5 43t-41.5 17t-42.5 -17t-19.5 -43z" />
    <glyph glyph-name="Dot_Send" horiz-adv-x="2458" 
d="M450 739h1500q106 0 193 -57.5t135.5 -152t48.5 -202.5t-48.5 -202t-135.5 -151.5t-193 -57.5h-1500q-106 0 -194 57.5t-137.5 151.5t-49.5 202t49.5 202.5t137.5 152t194 57.5zM1714 571l-50 -477q120 -3 152 -3q112 0 181.5 65t80.5 173q11 112 -47.5 178t-177.5 66
q-75 0 -139 -2zM1143 94h84l35 333l210 -333h78l50 475h-84l-35 -329l-207 329h-81zM1050 94l8 78h-208l14 133h185l9 81h-185l11 107h208l8 79h-290l-50 -478h290zM383 188l-30 -78q62 -24 142 -24q51 0 88.5 14t56.5 37t27.5 42t11.5 38q6 50 -20.5 83t-88.5 65
q-77 40 -88 50q-17 15 -15 35q2 19 24 31.5t56 12.5q44 0 118 -14l25 82q-62 15 -134 15q-82 0 -125.5 -40t-47.5 -84q-6 -55 19.5 -86t82.5 -58q62 -28 84.5 -49.5t19.5 -41.5q-7 -50 -84 -50q-57 0 -122 20zM1831 493q93 0 131 -40.5t30 -123.5q-16 -158 -186 -158
q-34 0 -50 1l34 321h41z" />
    <glyph glyph-name="kreska" horiz-adv-x="221" 
d="M96 636h-51l61 193h70z" />
    <glyph glyph-name="H_Accent" horiz-adv-x="682" 
d="M552 0h-63l31 299h-355l-31 -299h-64l65 624h64l-28 -266h355l28 266h63z" />
    <glyph glyph-name="C_Accent" horiz-adv-x="573" 
d="M502 70l9 -55q-80 -25 -182 -25q-137 0 -209 82.5t-57 233.5q16 152 100.5 236.5t225.5 84.5q83 0 164 -25l-16 -56q-89 20 -155 20q-116 0 -179.5 -70t-76.5 -190q-12 -119 41 -188t168 -69q83 0 167 21z" />
    <glyph glyph-name="R_Accent" horiz-adv-x="575" 
d="M133 0h-63l65 620q142 2 152 2q113 0 176.5 -37.5t55.5 -133.5q-12 -157 -161 -190l159 -261h-78l-151 254h-128zM456 451q4 46 -19 71.5t-57 32.5t-90 7q-58 0 -98 -1l-26 -247h128q153 0 162 137z" />
    <glyph glyph-name="T_Accent" horiz-adv-x="515" 
d="M251 0h-64l59 563h-191l6 57h454l-6 -57h-199z" />
    <glyph glyph-name="D_Accent" horiz-adv-x="652" 
d="M70 0l65 620q73 3 147 3q165 0 244 -80.5t63 -227.5q-16 -155 -100.5 -236.5t-249.5 -81.5q-56 0 -108 1.5t-61 1.5zM274 563q-11 0 -81 -2l-53 -503q50 -2 101 -2q140 0 205 68t78 191q14 128 -45.5 188t-204.5 60z" />
    <glyph glyph-name="G_Accent" horiz-adv-x="623" 
d="M548 349l-34 -325q-85 -35 -182 -35q-144 0 -213.5 90t-55.5 230q16 151 98.5 234.5t235.5 83.5q70 0 156 -25l-15 -55q-85 20 -148 20q-234 0 -262 -258q-13 -120 41 -189.5t170 -69.5q57 0 115 17l23 219h-167l7 63h231z" />
    <glyph glyph-name="comma_Accent" horiz-adv-x="316" 
d="M160 -34q23 2 36.5 -13t13.5 -41q0 -33 -23.5 -75t-67.5 -84l-35 16q39 72 31 136q-3 25 10 42t35 19z" />
    <glyph glyph-name="DC4" horiz-adv-x="296" 
 />
    <glyph glyph-name="threeinferior.001" horiz-adv-x="290" 
d="M77 33l3 46h23q82 1 85 54q2 25 -16.5 33t-46.5 8q-27 0 -75 -10l-8 46q48 12 85 12q62 1 92 -21.5t26 -63.5q-3 -63 -69 -77q31 -6 52 -30.5t18 -53.5q-8 -96 -136 -95q-53 2 -92 17l13 44q54 -13 83 -13q76 0 79 50q2 23 -21 39t-72 15h-23z" />
    <glyph glyph-name="zeroinferior.001" horiz-adv-x="290" 
 />
    <glyph glyph-name="zero.pnum_lnum" 
d="M541 346q-17 -165 -85.5 -260.5t-198.5 -96.5q-85 1 -136 48.5t-67 125t-5 183.5t41.5 184t92.5 128.5t151 50.5q84 -1 135 -51t67 -129t5 -183zM115 346q-30 -296 144 -298q67 0 114 45.5t68 108t29 144.5q32 298 -145 302q-178 -4 -210 -302z" />
    <glyph glyph-name="one.pnum_lnum" horiz-adv-x="416" 
d="M241 0h-64l68 634l-156 -75l-24 51l197 99h54z" />
    <glyph glyph-name="two.pnum_lnum" horiz-adv-x="557" 
d="M440 60l-6 -60h-409l6 58q38 35 102 94t93 86t70.5 70.5t60.5 71.5t35.5 63.5t19.5 69.5q5 43 -5.5 72.5t-34 45t-51 21.5t-62.5 6q-54 0 -145 -25l-11 58q95 26 161 27q51 1 90 -10t61.5 -29.5t38.5 -41.5t19.5 -46t6.5 -43.5t-1 -33.5q-8 -58 -35.5 -112t-80.5 -112.5
t-106.5 -107t-142.5 -122.5h326z" />
    <glyph glyph-name="three.pnum_lnum" horiz-adv-x="559" 
d="M147 343l6 60h45q196 3 209 129q5 46 -18 74.5t-58 38.5t-81 10q-48 0 -142 -18l-5 57q81 20 152 21q114 3 170.5 -51t46.5 -132q-3 -52 -40.5 -98.5t-100.5 -59.5q66 -19 101.5 -75.5t25.5 -123.5q-2 -17 -6.5 -33.5t-21.5 -45.5t-43.5 -50t-77.5 -37t-117 -15
q-79 1 -167 22l21 58q77 -17 153 -19q81 -2 132.5 29.5t59.5 98.5q3 29 -2.5 54.5t-24 50t-59 39.5t-100.5 16h-58z" />
    <glyph glyph-name="four.pnum_lnum" 
d="M396 0h-64l23 212h-338l6 58l346 439h102l-46 -437h76l-6 -60h-76zM95 272h266l41 389z" />
    <glyph glyph-name="five.pnum_lnum" horiz-adv-x="563" 
d="M160 350h-61l37 349h352l-6 -58h-291l-25 -238q63 8 120.5 0.5t100 -26.5t64.5 -63.5t15 -111.5q-2 -17 -5 -34t-19.5 -52.5t-41 -60t-74.5 -44t-115 -18.5q-105 1 -176 23l16 59q83 -21 167 -21q167 0 182 155q4 37 -6 63.5t-28.5 41.5t-52.5 23t-68 10.5t-85 2.5z" />
    <glyph glyph-name="six.pnum_lnum" horiz-adv-x="573" 
d="M257 47q71 0 114.5 46t51.5 117q7 67 -20.5 110t-101.5 43q-60 0 -117 -34l-17 54q75 40 141 40q98 0 143 -59.5t35 -153.5q-11 -99 -72.5 -159t-157.5 -60q-51 0 -90.5 18t-60.5 47t-36 64.5t-18 71.5t-5.5 68t1.5 53q4 47 13.5 94t34 104.5t59.5 100.5t95.5 72.5
t136.5 29.5q78 0 122 -13l-15 -53q-58 11 -111 11q-126 -1 -193.5 -93.5t-81.5 -252.5q0 -24 -2.5 -57t6 -69.5t22.5 -67.5t46.5 -51.5t77.5 -20.5z" />
    <glyph glyph-name="seven.pnum_lnum" horiz-adv-x="530" 
d="M208 -1h-64l278 649h-367v56h430v-58z" />
    <glyph glyph-name="eight.pnum_lnum" horiz-adv-x="572" 
d="M243 -9q-53 1 -93 13.5t-63 31.5t-36.5 44t-17.5 47.5t-2 46.5q8 75 58 124t119 73q-55 26 -87 72t-26 109q6 56 41 96t83.5 57.5t104.5 17.5q57 0 98 -16t61 -42.5t28 -55.5t5 -60q-7 -64 -50.5 -109.5t-106.5 -66.5q155 -65 140 -204q-3 -33 -18 -62.5t-44 -56.5
t-79 -43t-115 -16zM432 171q3 32 -7 59t-25 43.5t-41 31.5t-44 21.5t-43 14.5q-29 -7 -55.5 -18.5t-55.5 -31t-47 -50.5t-20 -69q-4 -65 41 -93t114 -29q68 0 122 28.5t61 92.5zM159 552q-10 -100 130 -155q151 44 163 153q6 62 -33 89.5t-101 27.5q-57 0 -105 -28t-54 -87z
" />
    <glyph glyph-name="nine.tnum_onum" 
d="M288 518q-74 0 -119 -51t-52 -120q-6 -64 27.5 -105t107.5 -41q63 0 121 22l13 -54q-64 -28 -140 -28q-70 0 -117 31.5t-64.5 77t-11.5 97.5q10 99 74.5 162.5t164.5 63.5q52 0 92.5 -18.5t62.5 -48t38 -66.5t19 -73t5.5 -68t-2.5 -52q-4 -38 -9 -69.5t-16.5 -73.5
t-27 -75t-41.5 -67t-59 -56.5t-81 -37t-106 -14.5q-43 0 -98 10l13 55q49 -8 92 -7q56 1 100 20t73 50t49.5 76t31.5 92.5t17 104.5q2 17 2 37.5t-3 53t-13 60.5t-26.5 54.5t-46.5 42t-70 15.5z" />
    <glyph glyph-name="one.tnum_onum" 
d="M482 52l-5 -52h-368l5 52h148l47 438l-156 -81l-24 51l187 99h64l-54 -507h156z" />
    <glyph glyph-name="two.tnum_onum" 
d="M480 60l-6 -60h-379l6 58q188 126 250 189.5t71 137.5q5 43 -18 72t-58 40t-77 11q-54 0 -145 -25l-11 58q95 26 161 27t112 -16t68 -46.5t30.5 -60t6.5 -63.5q-7 -81 -79 -159.5t-212 -162.5h280z" />
    <glyph glyph-name="three.tnum_onum" 
d="M193 199l6 60h45q196 3 209 129q5 46 -18 74.5t-58 38.5t-81 10q-48 0 -142 -18l-5 57q81 20 152 21q114 3 170.5 -51t46.5 -132q-3 -52 -40.5 -98.5t-100.5 -59.5q66 -19 101.5 -75.5t25.5 -123.5q-2 -17 -6.5 -33.5t-21.5 -45.5t-43.5 -50t-77.5 -37t-117 -15
q-79 1 -167 22l21 58q77 -17 153 -19q81 -2 132.5 29.5t59.5 98.5q3 29 -2.5 54.5t-24 50t-59 39.5t-100.5 16h-58z" />
    <glyph glyph-name="four.tnum_onum" horiz-adv-x="575" 
d="M409 -146h-64l23 212h-338l6 58l346 439h102l-46 -437h76l-6 -60h-76zM108 126h266l41 389z" />
    <glyph glyph-name="five.tnum_onum" 
d="M181 211h-61l37 349h352l-6 -58h-291l-25 -238q63 8 120.5 0.5t100 -26.5t64.5 -63.5t15 -111.5q-2 -17 -5 -34t-19.5 -52.5t-41 -60t-74.5 -44t-115 -18.5q-105 1 -176 23l16 59q82 -21 167 -21q167 0 182 155q4 37 -6 63.5t-28.5 41.5t-52.5 23t-68 10.5t-85 2.5z" />
    <glyph glyph-name="six.tnum_onum" 
d="M269 48q71 0 114.5 46t51.5 116q7 67 -20.5 110t-101.5 43q-60 0 -117 -34l-17 54q75 40 141 40q98 0 143 -59.5t35 -153.5q-11 -99 -72.5 -159t-157.5 -60q-51 0 -89.5 18t-59.5 47t-36 64.5t-18 71.5t-5.5 68t1.5 53q4 47 13 93.5t33.5 104.5t59.5 101t95 72.5
t136 29.5q78 0 122 -13l-15 -53q-58 11 -111 11q-126 -1 -193.5 -93.5t-81.5 -252.5q0 -24 -2.5 -56.5t6 -69.5t22.5 -67.5t46.5 -51t77.5 -20.5z" />
    <glyph glyph-name="seven.tnum_onum" 
d="M218 -153h-64l278 649h-367v56h430v-58z" />
    <glyph glyph-name="eight.tnum_onum" 
d="M258 -9q-53 1 -93 13.5t-63 31.5t-36.5 44t-17.5 47.5t-2 46.5q8 75 58 124t119 73q-55 26 -87 72t-26 109q6 56 41 96t83.5 57.5t104.5 17.5q57 0 98 -16t61 -42.5t28 -55.5t5 -60q-7 -64 -50.5 -109.5t-106.5 -66.5q155 -65 140 -204q-3 -33 -18 -62.5t-44 -56.5
t-79 -43t-115 -16zM447 171q3 32 -7 59t-25 43.5t-41 31.5t-44 21.5t-43 14.5q-29 -7 -55.5 -18.5t-55.5 -31t-47 -50.5t-20 -69q-4 -65 41 -93t114 -29q68 0 122 28.5t61 92.5zM174 552q-10 -100 130 -155q151 44 163 153q6 62 -33 89.5t-101 27.5q-57 0 -105 -28t-54 -87z
" />
    <glyph glyph-name="nine.pnum_lnum" horiz-adv-x="578" 
d="M302 658q-74 0 -119 -51t-52 -120q-6 -64 27.5 -105t107.5 -41q63 0 121 22l13 -54q-64 -28 -140 -28q-70 0 -117 31.5t-64.5 77t-11.5 97.5q10 99 74.5 162.5t164.5 63.5q52 0 92.5 -18.5t62.5 -48t38 -66.5t19 -73t5.5 -68t-2.5 -52q-4 -38 -9 -69.5t-16.5 -73.5
t-27 -75t-41.5 -67t-59 -56.5t-81 -37t-106 -14.5q-43 0 -98 10l13 55q49 -8 92 -7q56 1 100 20t73 50t49.5 76t31.5 92.5t17 104.5q2 17 2 37.5t-3 53t-13 60.5t-26.5 54.5t-46.5 42t-70 15.5z" />
    <glyph glyph-name="zero.tnum_onum" 
d="M511 271q-14 -128 -76 -205t-179 -77q-71 1 -114 46.5t-54.5 110t-2.5 143.5q13 125 76.5 202.5t175.5 78.5q58 0 97 -26t56 -68t23 -95.5t-2 -109.5zM148 289q-4 -57 -1.5 -111t32.5 -92.5t85 -38.5q160 4 184 224q26 241 -118 241q-46 -1 -80.5 -20.5t-55 -53t-31 -70
t-15.5 -79.5z" />
    <glyph glyph-name="slashed_zero" 
d="M541 346q-17 -165 -85.5 -260.5t-198.5 -96.5q-85 1 -136 48.5t-67 125t-5 183.5t41.5 184t92.5 128.5t151 50.5q84 -1 135 -51t67 -129t5 -183zM115 346q-30 -296 144 -298q67 0 114 45.5t68 108t29 144.5q32 298 -145 302q-178 -4 -210 -302zM237 348q0 28 18 46.5
t46 18.5t46.5 -18.5t18.5 -46.5t-18.5 -46t-46.5 -18t-46 18t-18 46z" />
    <glyph glyph-name="slashed_zero.tnum_onum" 
d="M511 271q-14 -128 -76 -205t-179 -77q-71 1 -114 46.5t-54.5 110t-2.5 143.5q13 125 76.5 202.5t175.5 78.5q58 0 97 -26t56 -68t23 -95.5t-2 -109.5zM148 289q-4 -57 -1.5 -111t32.5 -92.5t85 -38.5q160 4 184 224q26 241 -118 241q-46 -1 -80.5 -20.5t-55 -53t-31 -70
t-15.5 -79.5zM239 286q0 28 18 46.5t46 18.5t46.5 -18.5t18.5 -46.5t-18.5 -46t-46.5 -18t-46 18t-18 46z" />
    <glyph glyph-name="IJ.alt" horiz-adv-x="805" 
d="M289 57l-6 -57h-246l6 57h93l64 608h-91l5 56h242l-5 -56h-91l-64 -608h93zM740 719l-50 -477q-13 -128 -59.5 -189.5t-159.5 -65.5q-39 -2 -80 4l15 59q34 -4 63 -3q81 3 114 49t44 146l50 477h63z" />
    <glyph glyph-name="ffl.alt" horiz-adv-x="947" 
d="M866 69l16 -58q-45 -16 -85 -16q-115 0 -99 143l55 562q-92 20 -148 16q-65 -3 -92.5 -34.5t-32.5 -85.5l-4 -36h148l-7 -56h-149l-58 -664h-62l58 664h-197l-65 -663h-64l67 663h-102l5 56h103l1 10q5 42 14.5 73.5t29.5 63t58.5 49.5t92.5 19q31 0 63 -4l-11 -57
q-38 4 -66 2q-34 -1 -57.5 -14.5t-35 -37t-16.5 -42.5t-9 -45q-1 -6 -1 -8l-1 -9h198l4 37q9 87 63 129t137 44q75 0 156 -18l47 -8l-60 -606q-4 -43 3.5 -62.5t37.5 -19.5q29 0 65 13z" />
    <glyph glyph-name="kcommaaccent.alt" horiz-adv-x="549" 
 />
    <glyph glyph-name="lcaron.alt" horiz-adv-x="326" 
 />
    <glyph glyph-name="lslash.alt" horiz-adv-x="274" 
d="M-25 291v51l119 55l38 365h62l-35 -335l140 65l-1 -53l-145 -66l-24 -235q-4 -43 3.5 -62.5t37.5 -19.5q29 0 65 13l16 -58q-45 -16 -85 -16q-115 0 -99 143l21 205z" />
    <glyph glyph-name="lcommaaccent.alt" horiz-adv-x="326" 
 />
    <glyph glyph-name="ldot.alt" horiz-adv-x="403" 
 />
    <glyph glyph-name="lacute.alt" horiz-adv-x="326" 
 />
    <glyph glyph-name="l.alt" horiz-adv-x="326" 
d="M245 69l16 -58q-45 -16 -85 -16q-115 0 -99 143l65 624h62l-65 -624q-4 -43 3.5 -62.5t37.5 -19.5q29 0 65 13z" />
    <glyph glyph-name="k.alt" horiz-adv-x="549" 
d="M154 175l-18 -175h-61l81 762h60l-56 -529q47 15 83.5 35t77.5 56t73.5 95t54.5 140h58q-49 -191 -158 -284l147 -275h-70l-125 240q-58 -37 -147 -65z" />
    <glyph glyph-name="notdef" horiz-adv-x="220" 
 />
    <glyph glyph-name="_0000" horiz-adv-x="791" 
d="M45 331q0 145 103 248t248 103t247.5 -103t102.5 -248t-102.5 -247.5t-247.5 -102.5t-248 102.5t-103 247.5zM233 467q0 -21 14.5 -35t35.5 -14q20 0 34.5 14t14.5 35t-14.5 35.5t-34.5 14.5t-35 -14.5t-15 -35.5zM473 467q0 -21 14.5 -35t35.5 -14q20 0 34.5 14t14.5 35
t-14.5 35.5t-34.5 14.5t-35 -14.5t-15 -35.5zM202 326l-42 -8q0 -99 68.5 -170t173.5 -71q101 0 171 71.5t70 169.5l-42 8q0 -92 -60 -146.5t-139 -54.5q-81 0 -140.5 54t-59.5 147z" />
    <glyph glyph-name="_0001" horiz-adv-x="761" 
d="M45 66q0 16 14 50t14 48q0 4 -2 7.5t-2 5.5q0 6 2 11.5t2 7.5q0 9 -9 14v29q0 19 6.5 57t6.5 54q0 30 -13.5 94t-13.5 97q0 34 18.5 60t51.5 28l182 24q54 -5 160 6.5t148 11.5q22 0 34 -1t28.5 -8.5t24.5 -22.5q19 -137 19 -200l-4 -10q5 -53 -14 -159t-15 -157
q-3 -7 -7 -16.5t-5.5 -13.5t-4.5 -9.5t-6.5 -8t-9 -6t-13.5 -6.5q-58 -14 -168.5 -19t-148.5 -10q-14 -9 -56 -9l-18 4h-39q-20 0 -57 -4.5t-58 -4.5q-20 0 -33.5 17t-13.5 39z" />
    <glyph glyph-name="Nouvelle_Noire" horiz-adv-x="704" 
d="M45 40q0 6 5 19t5 18q0 2 -0.5 3t-0.5 2q0 2 0.5 4t0.5 3q0 3 -3 5v11q0 7 2.5 21t2.5 20q0 11 -5 35.5t-5 36.5q0 13 6.5 22.5t19.5 10.5l68 9q240 18 478 18q26 0 33 -12q7 -58 7 -75l-1 -4q1 -20 -6 -59.5t-5 -59.5q-2 -3 -3.5 -7t-2 -5.5t-2 -3.5t-3.5 -3.5t-6 -2.5
q-15 -4 -88.5 -5t-187.5 -4.5t-206 -12.5q-5 -3 -21 -3l-7 1h-14q-8 0 -22 -1.5t-21 -1.5q-18 0 -18 21zM441 324h-68v299h68l130 -198v198h68v-299h-68l-130 196v-196zM142 324h-68v299h68l130 -198v198h63v-299h-63l-130 196v-196z" />
    <glyph glyph-name="Nouvelle_Noire_Stroke" horiz-adv-x="761" 
d="M45 66q0 16 14 50t14 48q0 4 -2 7.5t-2 5.5q0 6 2 11.5t2 7.5q0 9 -9 14v29q0 19 6.5 57t6.5 54q0 30 -13.5 94t-13.5 97q0 34 18.5 60t51.5 28l182 24q54 -5 160 6.5t148 11.5q22 0 34 -1t28.5 -8.5t24.5 -22.5q19 -137 19 -200l-4 -10q5 -53 -14 -159t-15 -157
q-3 -7 -7 -16.5t-5.5 -13.5t-4.5 -9.5t-6.5 -8t-9 -6t-13.5 -6.5q-58 -14 -168.5 -19t-148.5 -10q-14 -9 -56 -9l-18 4h-39q-20 0 -57 -4.5t-58 -4.5q-20 0 -33.5 17t-13.5 39z" />
    <glyph glyph-name=".notdef.004" horiz-adv-x="220" 
 />
    <glyph glyph-name="logicalnot.case" 
d="M522 406l-2 -22l-3 -30l-22 -208h-52l22 208h-396l5 52h448z" />
    <glyph glyph-name="minus.case" 
d="M531 406l-5 -52h-468l5 52h468z" />
    <glyph glyph-name="plusminus.case" 
d="M71 354l6 52h207l22 214h55l-22 -214h204l-6 -52h-204l-17 -162h-55l17 162h-207zM531 114l-5 -52h-468l5 52h468z" />
    <glyph glyph-name="notequal.case" 
d="M540 505l-5 -52h-178l-50 -137h233l-5 -52h-247l-53 -148h-57l54 148h-165l5 52h179l50 137h-234l5 52h248l58 159h56l-58 -159h164z" />
    <glyph glyph-name="lessequal.case" 
d="M526 62l5 52h-468l-5 -52h468zM507 201l-6 -66l-434 217l5 43l480 217l-8 -66l-391 -172z" />
    <glyph glyph-name="greaterequal.case" 
d="M531 114l-5 -52h-468l5 52h468zM63 135l8 66l392 173l-355 172l6 66l434 -217l-5 -43z" />
    <glyph glyph-name="approxequal.case" 
d="M398 442q29 0 48.5 9t29 26.5t12.5 28t6 30.5q1 4 1 6h59q-16 -157 -162 -157q-41 0 -114.5 46.5t-107.5 46.5q-64 0 -76 -85h-57q14 140 145 140q33 0 64.5 -14t52.5 -31.5t48 -31.5t51 -14zM401 269q64 0 76 85h57q-14 -140 -145 -140q-42 0 -80 23t-72 45.5t-64 22.5
q-29 0 -48.5 -9t-29 -26.5t-12.5 -28t-6 -30.5q-1 -4 -1 -6h-59q16 157 162 157q41 0 114.5 -46.5t107.5 -46.5z" />
    <glyph glyph-name="infinity.case" horiz-adv-x="747" 
d="M684 403q-11 -79 -65 -114t-105 -35q-100 0 -174 103q-37 -37 -57 -53.5t-56.5 -32.5t-78.5 -16q-61 0 -95 43.5t-28 100.5q6 74 54.5 113.5t100.5 39.5q57 0 98 -27.5t77 -79.5q97 114 196 114q22 0 44.5 -6.5t45.5 -22.5t35.5 -49t7.5 -78zM542 508q-40 0 -88.5 -35.5
t-76.5 -75.5q59 -94 140 -93q51 1 78 30t31 72q5 42 -17 72t-67 30zM154 307q45 0 77 21t86 75q-66 99 -139 99q-49 0 -73.5 -30.5t-28.5 -70.5q-3 -35 17 -64.5t61 -29.5z" />
    <glyph glyph-name="less.case" 
d="M504 201l-6 -66l-434 217l5 43l480 217l-8 -66l-391 -172z" />
    <glyph glyph-name="equal.case" 
d="M531 316l-5 -52h-468l5 52h468zM557 505l-5 -52h-468l5 52h468z" />
    <glyph glyph-name="greater.case" 
d="M41 135l8 66l392 173l-355 172l6 66l434 -217l-5 -43z" />
    <glyph glyph-name="multiply.case" 
d="M286 414l192 173l34 -37l-192 -174l153 -171l-38 -35l-154 170l-188 -170l-35 37l189 171l-153 171l40 36z" />
    <glyph glyph-name="divide.case" 
d="M257 566q2 24 20 40.5t41 16.5q24 0 38.5 -16.5t12.5 -40.5q-3 -23 -21 -39.5t-42 -16.5q-23 0 -37.5 16.5t-11.5 39.5zM218 200q3 24 20.5 40.5t40.5 16.5q24 0 39 -16.5t12 -40.5q-2 -23 -20.5 -39.5t-42.5 -16.5q-23 0 -37 16.5t-12 39.5zM526 354l5 52h-468l-5 -52
h468z" />
    <glyph glyph-name="endash.case" horiz-adv-x="600" 
d="M527 412l-7 -59h-449l7 59h449z" />
    <glyph glyph-name="emdash.case" horiz-adv-x="777" 
d="M707 412l-7 -59h-629l7 59h629z" />
    <glyph glyph-name="asciitilde.case" 
d="M412 327q22 0 39.5 11.5t26 25t15 38t8.5 37t4 34.5h58q-20 -200 -156 -200q-33 0 -66.5 25.5t-56 56t-49 56t-47.5 25.5q-30 0 -51.5 -17.5t-31.5 -44.5t-14.5 -47t-5.5 -37h-58q21 201 165 201q35 0 68.5 -25.5t55.5 -56.5t48 -56.5t48 -25.5z" />
    <glyph glyph-name="periodcentered.case" horiz-adv-x="381" 
d="M122 277q0 28 18 46.5t46 18.5t46.5 -18.5t18.5 -46.5t-18.5 -46t-46.5 -18t-46 18t-18 46z" />
    <glyph glyph-name="questiondown.case" horiz-adv-x="492" 
d="M340 488l-16 -177q-84 -28 -128.5 -60t-49.5 -84q-7 -67 28 -90t100 -23q38 0 135 18l7 -55q-83 -19 -147 -20q-63 -2 -105 15t-58.5 46t-21.5 54.5t-2 52.5q13 120 180 184l16 139h62zM391 658q-3 -28 -23 -46.5t-48 -18.5t-44.5 18.5t-13.5 46.5t23.5 46t48.5 18
t44 -18t13 -46z" />
    <glyph glyph-name="exclamdown.case" horiz-adv-x="362" 
d="M161 482h59l-46 -498h-70zM272 658q-3 -28 -23 -46.5t-48 -18.5t-44.5 18.5t-13.5 46.5q2 28 22.5 46t48.5 18t44 -18t14 -46z" />
    <glyph glyph-name="braceleft.case" horiz-adv-x="373" 
d="M178 204l-12 -113q-6 -61 22.5 -98t86.5 -43l-5 -52q-80 4 -125 56t-36 136l12 113q5 47 -23.5 89t-82.5 48l6 57q55 6 92 43.5t42 83.5l11 103q20 187 201 195l-6 -54q-124 -13 -137 -142l-11 -103q-12 -117 -113 -156q90 -43 78 -163z" />
    <glyph glyph-name="braceright.case" horiz-adv-x="373" 
d="M88 91l12 113q6 58 35 100t78 63q-92 38 -80 156l11 103q13 129 -107 142l4 52q85 -4 128 -56t33 -137l-11 -103q-5 -46 24 -83.5t84 -43.5l-6 -57q-55 -6 -93 -48t-43 -89l-12 -113q-9 -88 -59 -139.5t-141 -55.5l7 55q58 6 94 43t42 98z" />
    <glyph glyph-name="guilsinglleft.case" horiz-adv-x="312" 
d="M143 178l-109 192l159 201h73l-159 -201l113 -192h-77z" />
    <glyph glyph-name="guilsinglright.case" horiz-adv-x="315" 
d="M230 369l-149 -192h-77l153 192l-117 201h73z" />
    <glyph glyph-name="bracketleft.case" horiz-adv-x="280" 
d="M282 821l-6 -56h-124l-85 -810h124l-6 -56h-185l96 922h186z" />
    <glyph glyph-name="bracketright.case" horiz-adv-x="280" 
d="M35 765l6 56h186l-97 -922h-185l6 56h123l85 810h-124z" />
    <glyph glyph-name="parenleft.case" horiz-adv-x="328" 
d="M81 361q-16 -133 15 -259.5t101 -195.5h-75q-66 86 -91 210t-10 239q15 124 76.5 259.5t155.5 219.5h83q-96 -69 -167.5 -205.5t-87.5 -267.5z" />
    <glyph glyph-name="parenright.case" horiz-adv-x="328" 
d="M179 361q17 134 -18 269t-114 204h76q74 -84 102.5 -219t13.5 -260q-15 -115 -70 -239.5t-141 -209.5h-83q87 71 152.5 198t81.5 257z" />
    <glyph glyph-name="plus.case" 
d="M292 626h55l-22 -215h207l-6 -52h-207l-23 -222h-55l23 222h-207l6 52h207z" />
    <glyph glyph-name="hyphen.case" horiz-adv-x="499" 
d="M445 439l-7 -59h-349l7 59h349z" />
    <glyph glyph-name="guillemotleft.case" horiz-adv-x="539" 
d="M323 177l-109 192l159 201h73l-159 -201l113 -192h-77zM143 177l-109 192l159 201h73l-159 -201l113 -192h-77z" />
    <glyph glyph-name="guillemotright.case" horiz-adv-x="539" 
d="M230 370l-149 -192h-77l153 192l-117 201h73zM410 370l-149 -192h-77l153 192l-117 201h73z" />
    </font>
</defs>
</svg>
