<?xml version="1.0" standalone="no"?>
<!DOCTYPE svg PUBLIC "-//W3C//DTD SVG 1.1//EN" "http://www.w3.org/Graphics/SVG/1.1/DTD/svg11.dtd" >
<svg>
<metadata>
Created by FontForge 20120731 at Tue Mar 29 01:36:51 2016
 By ,,,
Copyright (c) 2011 by Anton Studer, Nouvelle Noire. All rights reserved.
</metadata>
<defs>
<font id="NNMedien-BoldItalic" horiz-adv-x="590" >
  <font-face 
    font-family="NN Medien"
    font-weight="700"
    font-style="italic"
    font-stretch="normal"
    units-per-em="1000"
    panose-1="2 1 8 3 4 2 0 2 0 4"
    ascent="818"
    descent="-182"
    x-height="560"
    cap-height="728"
    bbox="-110 -311 2327 855"
    underline-thickness="60"
    underline-position="-190"
    slope="-12"
    unicode-range="U+0020-FB04"
  />
<missing-glyph horiz-adv-x="0" 
 />
    <glyph glyph-name="ff" unicode="ff" horiz-adv-x="731" 
d="M192 -160l-144 1l66 610h-104l6 104h108l5 37q10 93 65.5 137t160.5 46q30 0 56 -2l-14 -121l-37 2q-42 0 -63.5 -16t-27.5 -59l-3 -24h168l5 37q10 93 65.5 137t160.5 46q44 0 106 -7l-14 -121q-42 5 -87 7q-42 0 -63.5 -16t-27.5 -59l-3 -24h144l-5 -104h-149l-64 -611
l-144 1l66 610h-168z" />
    <glyph glyph-name="fi" unicode="fi" horiz-adv-x="610" 
d="M516 0h-149l47 444l-158 1l-65 -605l-144 1l67 600h-104l5 114h106l3 21q11 55 36.5 94.5t55.5 61t73.5 34t81 16t87.5 3.5q65 0 129 -7l-19 -124q-70 7 -118 7h-16q-29 0 -44.5 -0.5t-40.5 -4.5t-38.5 -12.5t-25 -26t-14.5 -42.5l-2 -18h306z" />
    <glyph glyph-name="fl" unicode="fl" horiz-adv-x="649" 
d="M548 0h-146l69 651q-83 5 -111 5q-96 -4 -105 -81l-2 -20h116l-12 -108h-116l-65 -607h-140l65 607h-91l12 108h91l2 21q21 199 264 199q90 0 194 -13h56z" />
    <glyph glyph-name="ffi" unicode="ffi" horiz-adv-x="927" 
d="M506 -158l-144 -1l67 605h-173l-64 -605h-144l66 605h-104l6 109h108l5 37q10 93 65.5 137t160.5 46q30 0 56 -2l-14 -121l-37 2q-42 0 -63.5 -16t-27.5 -59l-3 -24h170l3 21q11 55 36.5 94.5t55.5 61t73.5 34t81 16t87.5 3.5q65 0 129 -7l-19 -124q-70 7 -118 7h-16
q-29 0 -44.5 -0.5t-40.5 -4.5t-38.5 -12.5t-25 -26t-14.5 -42.5l-2 -18h306l-59 -557h-149l47 449l-158 1z" />
    <glyph glyph-name="ffl" unicode="ffl" horiz-adv-x="969" 
d="M868 0h-146l69 651q-83 5 -111 5q-96 -4 -105 -81l-2 -20h116l-12 -108h-116l-65 -607h-140l65 605h-165l-64 -605l-144 1l66 604h-104l6 110h108l5 37q10 93 65.5 137t160.5 46q30 0 56 -2l-14 -121l-37 2q-42 0 -63.5 -16t-27.5 -59l-3 -24h167l2 21q21 199 264 199
q90 0 194 -13h56z" />
    <glyph glyph-name="fj" unicode="fj" horiz-adv-x="607" 
d="M191 -160l-144 1l67 600h-104l5 114h106l3 21q11 55 36.5 94.5t55.5 61t73.5 34t81 16t87.5 3.5q65 0 129 -7l-19 -124q-70 7 -118 7h-16q-29 0 -44.5 -0.5t-40.5 -4.5t-38.5 -12.5t-25 -26t-14.5 -42.5l-2 -18h306l-61 -557q-16 -93 -75 -140.5t-183 -46.5l15 132
q52 2 72 21.5t27 63.5l44 414h-157z" />
    <glyph glyph-name="ffj" unicode="ffj" horiz-adv-x="927" 
d="M511 -160l-144 1l67 600h-180l-62 -601l-144 1l66 610h-104l6 104h108l5 37q10 93 65.5 137t160.5 46q30 0 56 -2l-14 -121l-37 2q-42 0 -63.5 -16t-27.5 -59l-3 -24h175l3 21q10 55 34.5 94.5t54.5 61.5t74.5 34t82 15.5t88.5 3.5q65 0 129 -7l-19 -124q-70 7 -118 7
h-16q-29 0 -44.5 -0.5t-40.5 -4.5t-38.5 -12.5t-25 -26t-14.5 -42.5l-2 -18h306l-61 -557q-16 -93 -75 -140.5t-183 -46.5l15 132q52 2 72 21.5t27 63.5l44 414h-157z" />
    <glyph glyph-name=".notdef" horiz-adv-x="0" 
 />
    <glyph glyph-name=".null" horiz-adv-x="0" 
 />
    <glyph glyph-name="nonmarkingreturn" horiz-adv-x="333" 
 />
    <glyph glyph-name="space" unicode=" " horiz-adv-x="220" 
 />
    <glyph glyph-name="exclam" unicode="!" horiz-adv-x="368" 
d="M243 249h-124l37 510h157zM75 70q0 38 27 65.5t66 27.5q38 0 65 -27.5t27 -65.5t-27 -65t-65 -27q-39 0 -66 27t-27 65z" />
    <glyph glyph-name="quotedbl" unicode="&#x22;" horiz-adv-x="450" 
d="M149 479h-100l11 290h140zM369 479h-100l11 290h140z" />
    <glyph glyph-name="numbersign" unicode="#" horiz-adv-x="753" 
d="M54 158l8 73h133l16 157h-133l8 73h132l17 164h94l-18 -164h170l18 164h87l-17 -164h130l-8 -73h-130l-16 -157h130l-8 -73h-130l-15 -159h-90l16 159h-170l-16 -159h-90l15 159h-133zM303 388l-17 -157h170l17 157h-170z" />
    <glyph glyph-name="dollar" unicode="$" 
d="M187 -118l-81 13l26 102q-71 11 -127 27l41 129q69 -16 120 -24l45 194q-88 40 -127.5 86.5t-31.5 130.5q3 30 20.5 61t50 61.5t88.5 49.5t125 19q24 0 36 -1l24 95l81 -9l-23 -91q69 -8 114 -20l-39 -130q-59 11 -109 16l-47 -186q93 -48 132.5 -94t29.5 -122
q-4 -35 -20 -67t-48 -63.5t-92.5 -50.5t-141.5 -19q-8 0 -20 1zM339 598h-18q-52 0 -87 -15t-38 -46q-2 -16 2.5 -28t19.5 -23.5t27 -18t42 -20.5l13 -6zM246 121h2q65 0 98 16.5t38 54.5q3 22 -20.5 44t-77.5 50z" />
    <glyph glyph-name="percent" unicode="%" horiz-adv-x="754" 
d="M85 103l47 -48l559 560l-47 49zM159 558q-9 -81 52 -81q59 1 69 81q4 34 -8 58t-46 24q-59 0 -67 -82zM56 558q7 74 51 120.5t128 47.5q68 0 109.5 -49t34.5 -119q-19 -173 -180 -173q-71 1 -111 52t-32 121zM478 162q-9 -81 52 -81q61 1 69 81q4 34 -8 58t-45 24
q-60 0 -68 -82zM375 162q8 75 52 121t128 47q70 0 110.5 -49t32.5 -119q-19 -173 -179 -173q-72 1 -112 52t-32 121z" />
    <glyph glyph-name="ampersand" unicode="&#x26;" horiz-adv-x="733" 
d="M718 0h-189l-63 66q-89 -73 -201 -75q-113 -1 -179 52.5t-57 158.5q11 115 135 185q-84 63 -68 170q13 78 72.5 121t150.5 42q95 -1 141 -49t35 -122q-18 -108 -141 -179l120 -121q50 60 97 158l117 -50q-20 -47 -52 -96t-54 -75l-22 -26zM167 209q-3 -42 30 -64.5
t79 -24.5q69 0 109 33l-148 157q-68 -40 -70 -101zM227 545q0 -46 43 -88l9 -9q73 43 79 99q4 26 -13 39.5t-43 13.5q-32 0 -53 -15.5t-22 -39.5z" />
    <glyph glyph-name="quotesingle" unicode="'" horiz-adv-x="221" 
d="M170 479h-100v290h151z" />
    <glyph glyph-name="parenleft" unicode="(" horiz-adv-x="317" 
d="M127 331q-14 -129 24 -256.5t111 -198.5h-132q-68 86 -97.5 211t-18.5 238q13 126 70 261t149 218h144q-96 -70 -166.5 -206.5t-83.5 -266.5z" />
    <glyph glyph-name="parenright" unicode=")" horiz-adv-x="295" 
d="M170 331q13 131 -29 267t-123 206h135q71 -86 106 -225t22 -254q-13 -118 -63 -241t-134 -208h-144q87 71 151.5 198t78.5 257z" />
    <glyph glyph-name="asterisk" unicode="*" horiz-adv-x="600" 
d="M387 364l-82 154l82 56l-21 93l-97 -1l13 179h116l-32 -178l175 60l24 -109l-178 -44l97 -145zM103 436l129 139l-167 50l40 111l164 -70l-37 -91l73 -57l-113 -152z" />
    <glyph glyph-name="plus" unicode="+" 
d="M28 260l11 107h205l22 207h111l-22 -207h205l-11 -107h-205l-22 -207h-111l22 207h-205z" />
    <glyph glyph-name="comma" unicode="," horiz-adv-x="317" 
d="M157 175q40 4 64 -22t21 -68q-8 -125 -153 -272l-57 34q40 73 49.5 120t2.5 107q-3 41 18 69t55 32z" />
    <glyph glyph-name="hyphen" unicode="-" horiz-adv-x="499" 
d="M456 382l-13 -102h-400l13 102h400z" />
    <glyph glyph-name="period" unicode="." horiz-adv-x="337" 
d="M35 70q0 41 29.5 71t71.5 30q41 0 71 -30t30 -71q0 -42 -30 -71.5t-71 -29.5q-42 0 -71.5 29.5t-29.5 71.5z" />
    <glyph glyph-name="slash" unicode="/" horiz-adv-x="487" 
d="M145 -89l-130 -1l307 851l130 1z" />
    <glyph glyph-name="zero" unicode="0" 
d="M571 345q-16 -160 -98.5 -260t-217.5 -101q-92 1 -149.5 49.5t-77.5 127.5t-10 184q17 160 97.5 263t219.5 104q75 -1 127.5 -30.5t76.5 -79.5t33 -116t-1 -141zM173 345q-4 -60 -1 -112t27.5 -87t68.5 -36q67 1 104 68t47 167q4 61 1.5 115t-28 92.5t-71.5 39.5
q-45 -1 -78 -40t-48 -91t-22 -116z" />
    <glyph glyph-name="one" unicode="1" 
d="M483 0h-404l14 132h133l43 408l-125 -64l-51 113l222 117h124l-61 -574h119z" />
    <glyph glyph-name="two" unicode="2" 
d="M514 138l-14 -138h-466l11 111q185 161 257.5 240t79.5 147q4 40 -23 61.5t-78 21.5q-68 0 -162 -19l-10 132q114 20 175 21q70 1 123 -16t81.5 -46.5t41 -65t8.5 -74.5q-10 -89 -73 -173t-205 -202h254z" />
    <glyph glyph-name="three" unicode="3" 
d="M153 302l13 126l44 -1q151 3 160 97q3 33 -27 47.5t-77 14.5q-60 0 -155 -19l-8 126q98 23 176 24q136 3 195.5 -50.5t48.5 -137.5q-6 -51 -37 -93t-90 -64q134 -52 114 -181q-4 -30 -14 -57t-32.5 -54.5t-54 -47t-82 -32t-113.5 -11.5q-87 1 -189 26l41 124
q84 -19 163 -21q123 -3 133 82q3 18 -1.5 34t-19 33t-51.5 26.5t-93 8.5h-44z" />
    <glyph glyph-name="four" unicode="4" 
d="M445 0h-139l20 187h-313l10 100l323 428l174 -1l-43 -412h106l-12 -115h-106zM172 299h167l29 272z" />
    <glyph glyph-name="five" unicode="5" 
d="M223 307h-123l42 399h394l-15 -141h-258l-14 -139q126 18 206 -38.5t68 -168.5q-11 -103 -82.5 -166t-198.5 -64q-100 -1 -207 28l44 133q89 -24 183 -24q31 0 53.5 9.5t32.5 25t14 26t5 20.5q5 52 -29.5 76t-114.5 24z" />
    <glyph glyph-name="six" unicode="6" 
d="M282 112q50 0 78 28.5t33 76.5q10 98 -76 98q-34 0 -92 -17l7 116q40 21 103 21q109 0 162 -65t43 -163q-10 -101 -77.5 -160.5t-183.5 -59.5q-51 0 -92 14.5t-66 38t-44 54t-26 62.5t-13 63t-3.5 55.5t1.5 40.5q6 79 30 147.5t68 127.5t117.5 93t169.5 34q74 0 130 -16
l-30 -120q-57 12 -116 12q-97 -1 -158 -69.5t-65 -211.5q-6 -200 100 -200z" />
    <glyph glyph-name="seven" unicode="7" 
d="M245 -1h-157l315 582h-331l14 134h482l-12 -120z" />
    <glyph glyph-name="eight" unicode="8" 
d="M249 -12q-73 1 -122.5 21t-70.5 52.5t-27.5 62t-3.5 61.5q2 49 41.5 97.5t105.5 73.5q-52 23 -78 69t-20 105q10 92 85.5 140.5t170.5 48.5q51 0 91.5 -12.5t64 -32t38 -45.5t19 -50t1.5 -48q-5 -51 -38.5 -93.5t-83.5 -64.5q55 -25 85 -74t20 -120q-4 -24 -13.5 -47.5
t-31 -50t-51 -46.5t-77 -33.5t-105.5 -13.5zM390 195q7 46 -31 74.5t-87 35.5q-104 -43 -106 -113q-3 -41 25.5 -61t71.5 -20q51 0 84 17.5t43 66.5zM215 525q-1 -13 1.5 -26t10.5 -29.5t28.5 -31t50.5 -22.5q87 33 95 104q4 42 -19.5 61.5t-63.5 19.5t-70 -19t-33 -57z" />
    <glyph glyph-name="nine" unicode="9" 
d="M313 591q-52 2 -78 -23.5t-36 -81.5q-7 -45 13 -78t63 -34q52 -2 91 13l-18 -112q-48 -20 -107 -18q-103 4 -154 73t-36 164q18 109 94.5 168.5t186.5 53.5q52 -2 92 -19.5t64 -41.5t39.5 -58.5t22 -65t7.5 -68t-0.5 -58.5t-4.5 -46q-7 -54 -17 -97.5t-33.5 -96
t-56.5 -88.5t-88.5 -61t-126.5 -26q-102 -2 -172 22l27 115q79 -11 127 -10q76 3 120.5 48.5t62.5 135.5q13 87 15 150t-21.5 100t-75.5 40z" />
    <glyph glyph-name="colon" unicode=":" horiz-adv-x="355" 
d="M78 490q0 41 29.5 71t71.5 30q41 0 71 -30t30 -71q0 -42 -30 -71.5t-71 -29.5q-42 0 -71.5 29.5t-29.5 71.5zM35 70q0 41 29.5 71t71.5 30q41 0 71 -30t30 -71q0 -42 -30 -71.5t-71 -29.5q-42 0 -71.5 29.5t-29.5 71.5z" />
    <glyph glyph-name="semicolon" unicode=";" horiz-adv-x="349" 
d="M82 490q0 41 29.5 71t71.5 30q41 0 71 -30t30 -71q0 -42 -30 -71.5t-71 -29.5q-42 0 -71.5 29.5t-29.5 71.5zM127 175q40 4 64 -22t21 -68q-8 -125 -153 -272l-57 34q40 73 49.5 120t2.5 107q-3 41 18 69t55 32z" />
    <glyph glyph-name="less" unicode="&#x3c;" 
d="M521 158l-15 -116l-462 228l11 83l518 227l-15 -118l-350 -150z" />
    <glyph glyph-name="equal" unicode="=" 
d="M577 477l-13 -106h-522l13 106h522zM549 253l-13 -106h-522l13 106h522z" />
    <glyph glyph-name="greater" unicode="&#x3e;" 
d="M16 42l15 116l351 154l-314 150l15 118l462 -227l-11 -83z" />
    <glyph glyph-name="question" unicode="?" horiz-adv-x="547" 
d="M150 243l10 151q46 15 67 23t48 23.5t39.5 36t15.5 49.5q4 36 -20.5 51t-67.5 15q-53 0 -150 -21l-27 121q115 25 189 26q65 2 113.5 -16.5t72.5 -48.5t34 -62t7 -63q-8 -78 -63.5 -131.5t-124.5 -72.5l-14 -81h-129zM105 70q0 -42 29.5 -71.5t71.5 -29.5q41 0 71 29.5
t30 71.5q0 41 -30 71t-71 30q-42 0 -71.5 -30t-29.5 -71z" />
    <glyph glyph-name="at" unicode="@" horiz-adv-x="832" 
d="M404 32q108 0 190 54l36 -68q-107 -71 -248 -65q-71 5 -131.5 32.5t-105 74.5t-67 116.5t-15.5 151.5q13 155 117.5 258t278.5 103q81 0 144.5 -28.5t99 -75t51.5 -102t8 -112.5q-7 -65 -32.5 -112t-63 -71.5t-74.5 -35.5t-80 -13l-81 1q-52 1 -90.5 19.5t-58 48
t-27 61.5t-4.5 64q7 70 57.5 121.5t139.5 51.5q68 0 117 -6l-25 -283q52 2 86 36.5t45 117.5q5 24 1.5 51t-10 53.5t-24.5 51t-42 43t-62.5 29.5t-85.5 11q-77 0 -133.5 -24t-89 -66t-49 -89t-22.5 -103q-14 -130 59 -210.5t191 -85.5zM336 332q-3 -69 23 -93.5t79 -24.5h21
l15 219l-29 1q-43 0 -74.5 -27.5t-34.5 -74.5z" />
    <glyph glyph-name="A" unicode="A" horiz-adv-x="734" 
d="M-25 0l337 728h169l198 -728h-157l-38 163h-280l-69 -163h-160zM386 584l-123 -286h190z" />
    <glyph glyph-name="B" unicode="B" horiz-adv-x="635" 
d="M295 -1l-245 1l76 726l231 2q118 2 184.5 -48t56.5 -145q-5 -53 -36.5 -93.5t-86.5 -59.5q51 -18 82 -67.5t24 -106.5q-20 -209 -286 -209zM457 527q4 47 -26.5 64t-102.5 16q-5 0 -31 0.5t-39 -0.5l-51 -487h74q78 0 112.5 23t39.5 77q6 48 -21.5 72.5t-100.5 24.5h-41
l10 121h39q60 0 97 23t41 66z" />
    <glyph glyph-name="C" unicode="C" horiz-adv-x="648" 
d="M558 149l28 -126q-102 -36 -216 -36q-172 0 -258.5 105t-68.5 264q17 177 118.5 277.5t286.5 100.5q92 0 169 -31l-39 -129q-86 24 -146 24q-59 0 -104 -20.5t-71 -56.5t-40.5 -76.5t-19.5 -88.5q-10 -99 37 -166.5t150 -68.5q70 -1 174 28z" />
    <glyph glyph-name="D" unicode="D" horiz-adv-x="731" 
d="M50 0l76 724q98 4 222 4q172 0 265 -101.5t75 -264.5q-17 -174 -120.5 -269t-287.5 -95q-66 0 -230 2zM305 600q-25 0 -42 -1l-50 -473h56q118 0 188 59.5t82 176.5q13 136 -45.5 187t-188.5 51z" />
    <glyph glyph-name="E" unicode="E" horiz-adv-x="612" 
d="M530 135l-15 -135h-465l77 728h465l-14 -131h-313l-16 -150h281l-14 -135h-281l-18 -177h313z" />
    <glyph glyph-name="F" unicode="F" horiz-adv-x="602" 
d="M205 0h-155l77 728h465l-14 -135h-310l-17 -162h282l-14 -131h-282z" />
    <glyph glyph-name="G" unicode="G" horiz-adv-x="710" 
d="M659 428l-42 -401q-104 -37 -229 -37q-165 0 -263.5 104.5t-81.5 261.5q17 166 128 272t300 106q93 0 199 -26l-37 -133q-80 22 -178 22q-117 0 -182.5 -71.5t-75.5 -169.5q-11 -99 41.5 -167t163.5 -68q51 0 86 10l17 169h-143l13 128h284z" />
    <glyph glyph-name="H" unicode="H" horiz-adv-x="747" 
d="M625 0h-149l32 305h-277l-32 -305h-149l77 728h149l-30 -283h277l30 283h149z" />
    <glyph glyph-name="I" unicode="I" horiz-adv-x="446" 
d="M359 116l-13 -116h-321l13 116h87l51 495h-85l13 117h317l-13 -117h-82l-51 -495h84z" />
    <glyph glyph-name="J" unicode="J" horiz-adv-x="443" 
d="M418 728l-51 -491q-7 -68 -21 -111t-43.5 -75.5t-79 -47t-125.5 -14.5q-35 0 -93 10l17 131q56 -6 81 -6q65 0 86.5 28.5t28.5 103.5l49 472h151z" />
    <glyph glyph-name="K" unicode="K" horiz-adv-x="694" 
d="M274 352l9 93l227 283h194l-287 -327l238 -401h-184zM203 0h-153l75 728h153z" />
    <glyph glyph-name="L" unicode="L" horiz-adv-x="575" 
d="M505 0h-455l76 728h155l-62 -589h300z" />
    <glyph glyph-name="M" unicode="M" horiz-adv-x="967" 
d="M168 728h167l134 -493l238 493h170l-19 -728h-157l24 456l-221 -456h-112l-125 458l-73 -458h-159z" />
    <glyph glyph-name="N" unicode="N" horiz-adv-x="793" 
d="M196 0h-147l75 727h141l287 -479l48 479h147l-75 -727h-144l-284 482z" />
    <glyph glyph-name="O" unicode="O" horiz-adv-x="786" 
d="M43 356q9 79 35.5 146t72 121t117 84.5t162.5 30.5q82 0 147 -32t103 -85.5t54.5 -122t8.5 -142.5q-16 -162 -119.5 -268t-264.5 -106q-158 0 -245 109t-71 265zM587 356q11 108 -31.5 180t-140.5 72t-154 -73t-67 -179q-10 -103 33 -172t137 -69q98 0 155.5 68.5
t67.5 172.5z" />
    <glyph glyph-name="P" unicode="P" horiz-adv-x="642" 
d="M464 491q6 60 -22.5 82.5t-100.5 22.5q-5 0 -33 0.5t-40 -0.5l-63 -596h-155l76 726h125t104 1q121 2 193 -56.5t63 -174.5q-11 -134 -87 -191t-211 -57h-37l13 129h29q75 0 107.5 30.5t38.5 83.5z" />
    <glyph glyph-name="Q" unicode="Q" horiz-adv-x="801" 
d="M43 361q9 79 35.5 146t72 121t117 84.5t162.5 30.5q82 0 147 -32t103 -85.5t54.5 -122t8.5 -142.5q-11 -106 -61.5 -192t-132.5 -133q33 -61 93.5 -82t187.5 -19l6 -129q-60 -1 -104 1.5t-94.5 13t-88.5 30t-74 55t-62 85.5q-24 -4 -54 -4q-158 0 -245 109t-71 265z
M587 361q11 108 -31.5 180t-140.5 72t-154 -73t-67 -179q-10 -103 33 -172t137 -69q98 0 155.5 68.5t67.5 172.5z" />
    <glyph glyph-name="R" unicode="R" horiz-adv-x="667" 
d="M459 494q5 54 -25.5 81t-98.5 26h-75l-63 -601h-147l76 726h120.5t101.5 1q124 3 196 -57t63 -171q-14 -166 -155 -218l160 -281h-172l-129 251h-42l10 124h32q136 0 148 119z" />
    <glyph glyph-name="S" unicode="S" horiz-adv-x="593" 
d="M30 29l38 130q107 -32 186 -32q101 0 112 56q7 29 -28 58.5t-123 79.5q-82 47 -120 101t-32 133q3 32 17 61t43 56.5t81 43.5t122 16q97 0 201 -34l-32 -134q-115 28 -180 29q-44 1 -64 -7.5t-29 -35.5q-13 -46 118 -121q12 -8 18 -11q92 -54 136.5 -111.5t36.5 -131.5
q-21 -186 -285 -186q-112 0 -216 40z" />
    <glyph glyph-name="T" unicode="T" 
d="M334 0h-159l62 588h-192l15 138h546l-15 -138h-195z" />
    <glyph glyph-name="U" unicode="U" horiz-adv-x="724" 
d="M255 728l-45 -437q-18 -170 136 -170q72 0 106 39t44 131l45 437h153l-48 -459q-14 -143 -88.5 -211.5t-224.5 -68.5q-145 0 -216.5 75t-59.5 205l48 459h150z" />
    <glyph glyph-name="V" unicode="V" horiz-adv-x="710" 
d="M387 -6h-154l-188 735h165l119 -528l235 528h176z" />
    <glyph glyph-name="W" unicode="W" horiz-adv-x="966" 
d="M735 0h-154l-79 499l-180 -499h-170l-107 729h165l51 -510l181 510h156l74 -507l155 507h169z" />
    <glyph glyph-name="X" unicode="X" horiz-adv-x="703" 
d="M655 0h-171l-134 252l-179 -252h-186l290 373l-189 355h173l107 -226l159 226h188l-271 -351z" />
    <glyph glyph-name="Y" unicode="Y" horiz-adv-x="664" 
d="M372 0h-154l26 262l-194 466h158l127 -319l183 319h176l-296 -468z" />
    <glyph glyph-name="Z" unicode="Z" horiz-adv-x="642" 
d="M565 137l-15 -137h-540l14 126l386 461h-312l15 139h519l-12 -113l-397 -476h342z" />
    <glyph glyph-name="bracketleft" unicode="[" horiz-adv-x="296" 
d="M356 778l-11 -98h-144l-75 -719h144l-11 -99h-259l96 916h260z" />
    <glyph glyph-name="backslash" unicode="\" horiz-adv-x="474" 
d="M458 -90l-130 1l-307 851l130 -1z" />
    <glyph glyph-name="bracketright" unicode="]" horiz-adv-x="296" 
d="M25 680l11 98h260l-97 -916h-259l11 99h142l75 719h-143z" />
    <glyph glyph-name="asciicircum" unicode="^" horiz-adv-x="833" 
 />
    <glyph glyph-name="underscore" unicode="_" horiz-adv-x="600" 
d="M545 -38v-86h-490v86h490z" />
    <glyph glyph-name="grave" unicode="`" horiz-adv-x="370" 
d="M325 637l-133 -1l-147 213h159z" />
    <glyph glyph-name="a" unicode="a" horiz-adv-x="589" 
d="M492 0h-145l18 129q-30 -65 -74.5 -100t-94.5 -35q-175 0 -147 284q5 54 15 95t31.5 80.5t54 64.5t83.5 39.5t119 11.5l197 -8zM200 270q-8 -80 -2.5 -115.5t34.5 -35.5q51 0 93.5 69.5t54.5 159.5l12 96l-58 3q-66 3 -96 -33.5t-38 -143.5z" />
    <glyph glyph-name="b" unicode="b" horiz-adv-x="605" 
d="M274 762l-40 -331q30 65 79.5 102.5t99.5 37.5q171 0 142 -289q-7 -67 -23 -116.5t-49.5 -92.5t-92.5 -64t-143 -18l-197 8l82 763h142zM404 290q7 78 0 114.5t-34 36.5q-52 0 -95.5 -69.5t-55.5 -159.5l-12 -96l58 -3q67 -3 99 34t40 143z" />
    <glyph glyph-name="c" unicode="c" horiz-adv-x="480" 
d="M193 281q-10 -99 3 -133t59 -32q49 3 138 65l65 -96q-111 -93 -235 -93q-67 0 -109.5 28.5t-55.5 72t-17 94.5t4 97q16 152 78.5 219.5t192.5 67.5q91 0 144 -16l-28 -118q-7 3 -55.5 8.5t-58.5 5.5q-25 0 -42.5 -6t-35.5 -22.5t-30 -52t-17 -89.5z" />
    <glyph glyph-name="d" unicode="d" horiz-adv-x="598" 
d="M413 566l20 196h145l-81 -762h-145l18 129q-30 -65 -74.5 -100t-94.5 -35q-93 0 -129 77.5t-23 206.5q7 67 23 116.5t49.5 92.5t92.5 64t143 18zM200 270q-4 -53 -3 -86.5t10.5 -49t29.5 -15.5q51 0 93.5 69.5t54.5 159.5l12 96l-58 3q-67 3 -99 -34t-40 -143z" />
    <glyph glyph-name="e" unicode="e" horiz-adv-x="514" 
d="M324 571q84 1 131 -44.5t43 -107.5q-3 -51 -29.5 -88.5t-74 -60.5t-98 -36t-118.5 -22q-3 -53 17.5 -76.5t67.5 -21.5q58 3 145 64l64 -93q-111 -93 -239 -93q-57 0 -97.5 22t-59.5 53.5t-27.5 74.5t-8 75.5t4.5 66.5q19 133 88 210t191 77zM306 453q-43 -1 -77 -35
t-43 -91q173 18 179 81q1 25 -17 35t-42 10z" />
    <glyph glyph-name="f" unicode="f" horiz-adv-x="420" 
d="M191 -160l-144 1l67 600h-104l5 114h108l5 37q10 93 65.5 137t160.5 46q44 0 106 -7l-14 -121q-42 5 -87 7q-42 0 -63.5 -16t-27.5 -59l-3 -24h144l-4 -114h-149z" />
    <glyph glyph-name="g" unicode="g" horiz-adv-x="592" 
d="M350 5l16 124q-26 -51 -73 -73t-94 -22q-48 0 -82 22.5t-49 60t-20 77.5t-1 84q7 67 23 116.5t49.5 92.5t92.5 64t143 18l197 -8l-58 -561q-11 -90 -69 -138t-161 -50q-102 -4 -201 29l24 121q98 -23 166 -24q81 0 97 67zM198 270q-1 -25 -2 -49.5t8.5 -43t30.5 -18.5
q58 0 97.5 50.5t50.5 138.5l12 96l-58 3q-67 3 -99 -34t-40 -143z" />
    <glyph glyph-name="h" unicode="h" horiz-adv-x="612" 
d="M522 0h-153l30 347q10 97 -43 97q-38 0 -79 -61t-56 -158l-18 -225h-153l73 762h154l-33 -305q74 114 175 114q151 0 136 -168z" />
    <glyph glyph-name="i" unicode="i" horiz-adv-x="301" 
d="M189 0h-149l59 560h149zM94 740q0 38 27 64.5t64 26.5t64 -26.5t27 -64.5t-27 -64.5t-64 -26.5t-64 26.5t-27 64.5z" />
    <glyph glyph-name="j" unicode="j" horiz-adv-x="347" 
d="M96 82l51 478h149l-57 -523q-6 -54 -20 -93t-43 -70t-78 -46.5t-120 -14.5q-33 0 -68 4l26 129q30 -2 55 -1q23 1 39.5 4.5t27.5 13t17 17t10.5 27.5t6 32.5t4.5 42.5zM145 740q0 38 26.5 64.5t64.5 26.5t64.5 -26.5t26.5 -64.5t-26.5 -64.5t-64.5 -26.5t-64.5 26.5
t-26.5 64.5z" />
    <glyph glyph-name="k" unicode="k" horiz-adv-x="598" 
d="M253 172l12 95q36 -3 83.5 21t56.5 72q4 18 4 32t-2 22.5t-7.5 14.5t-9.5 9t-12 4.5t-11 1.5h-11q-38 0 -79 -61t-56 -158l-18 -225h-153l73 762h154l-33 -305q74 114 175 114q151 0 136 -168q-21 -120 -102 -177l115 -227h-156l-79 179q-39 -6 -80 -6z" />
    <glyph glyph-name="l" unicode="l" horiz-adv-x="292" 
d="M191 0h-146l81 762h146z" />
    <glyph glyph-name="m" unicode="m" horiz-adv-x="930" 
d="M840 0h-153l30 347q10 97 -43 97q-36 0 -76 -56.5t-56 -146.5l-20 -241h-153l30 347q10 97 -43 97q-38 0 -79 -61t-56 -158l-19 -225h-152l57 560h149l-12 -103q74 114 175 114q112 0 132 -95l3 -17q73 112 183 112q151 0 136 -168z" />
    <glyph glyph-name="n" unicode="n" horiz-adv-x="612" 
d="M522 0h-153l30 347q10 97 -43 97q-38 0 -79 -61t-56 -158l-18 -225h-153l57 560h154l-17 -103q74 114 175 114q151 0 136 -168z" />
    <glyph glyph-name="o" unicode="o" horiz-adv-x="596" 
d="M548 281q-13 -131 -81 -211.5t-206 -80.5q-119 1 -173 85t-40 207q9 82 39 144t93 103t153 42q120 0 174 -75.5t41 -213.5zM196 281q-8 -69 9.5 -116t66.5 -48q61 1 88.5 41t37.5 123q18 169 -75 169q-55 -1 -86.5 -46.5t-40.5 -122.5z" />
    <glyph glyph-name="p" unicode="p" horiz-adv-x="608" 
d="M110 560h145l-18 -129q30 65 79.5 102.5t99.5 37.5q171 0 142 -289q-7 -67 -23 -116.5t-49.5 -92.5t-92.5 -64t-143 -18l-57 3l-19 -176h-144zM407 290q7 78 0 114.5t-34 36.5q-52 0 -95.5 -69.5t-55.5 -159.5l-12 -96l58 -3q67 -3 99 34t40 143z" />
    <glyph glyph-name="q" unicode="q" horiz-adv-x="595" 
d="M331 -204l40 331q-30 -65 -79.5 -102.5t-99.5 -37.5q-171 0 -142 289q7 67 23 116.5t49.5 92.5t92.5 64t143 18l197 -8l-82 -763h-142zM201 268q-7 -78 0 -114.5t34 -36.5q52 0 95.5 69.5t55.5 159.5l12 96l-58 3q-67 3 -99 -34t-40 -143z" />
    <glyph glyph-name="r" unicode="r" horiz-adv-x="476" 
d="M471 562l-22 -134q-53 13 -94 5q-45 -8 -82 -60t-52 -148l-18 -225h-153l57 560h154l-17 -103q38 59 76.5 86.5t88.5 27.5q37 0 62 -9z" />
    <glyph glyph-name="s" unicode="s" horiz-adv-x="439" 
d="M20 17l25 115q77 -18 137 -18q34 0 50 8t20 27q5 28 -81 96q-8 7 -12 10q-120 95 -109 183q5 53 56 94.5t153 38.5q56 -1 139 -15l-21 -122q-62 13 -118 16q-22 1 -35.5 0t-23.5 -7t-11 -17q-1 -21 16.5 -40t74.5 -63q128 -101 116 -190q-16 -145 -220 -140
q-84 2 -156 24z" />
    <glyph glyph-name="t" unicode="t" horiz-adv-x="428" 
d="M411 560l-13 -119h-149l-24 -245q-5 -41 2.5 -60t32.5 -19q36 0 89 24l48 -96q-67 -50 -169 -52q-172 6 -156 182l27 266h-79l11 99l80 10l24 137h140l-13 -127h149z" />
    <glyph glyph-name="u" unicode="u" horiz-adv-x="582" 
d="M373 348l23 212l146 1l-57 -561h-143l16 129q-54 -135 -149 -135q-81 0 -125.5 59t-36.5 175l30 332h154l-31 -310q-10 -131 45 -131q50 0 82.5 66.5t45.5 162.5z" />
    <glyph glyph-name="v" unicode="v" horiz-adv-x="554" 
d="M306 -4h-160l-131 570h166l69 -418q61 118 99.5 245.5t42.5 172.5h167q-73 -318 -253 -570z" />
    <glyph glyph-name="w" unicode="w" horiz-adv-x="798" 
d="M559 -4l-116 -1l-58 359l-138 -359h-156l-86 570h165l30 -380l142 380h135l55 -356q47 106 78 213.5t34 143.5h164q-27 -102 -50.5 -174t-76.5 -186t-122 -210z" />
    <glyph glyph-name="x" unicode="x" 
d="M370 287l174 -287h-172l-93 173l-125 -173h-184l237 289l-164 276h170l84 -159l113 159h185z" />
    <glyph glyph-name="y" unicode="y" horiz-adv-x="577" 
d="M373 392l18 168l146 1l-52 -517q-11 -118 -66 -174t-170 -58q-102 -4 -201 29l24 121q51 -12 90 -17.5t80 -5t65.5 17t28.5 48.5l22 168q-54 -135 -149 -135q-81 0 -125.5 59t-36.5 175l25 288h154l-26 -266q-10 -131 45 -131q50 0 82.5 66.5t45.5 162.5z" />
    <glyph glyph-name="z" unicode="z" horiz-adv-x="517" 
d="M497 560l-12 -105q-31 -59 -69 -114.5t-69 -91.5t-61 -66t-43.5 -41.5t-19.5 -15.5h228l-13 -126h-427l11 107q25 23 63.5 60t117 125.5t107.5 146.5h-247l13 121h421z" />
    <glyph glyph-name="braceleft" unicode="{" horiz-adv-x="351" 
d="M201 198l-16 -151q-3 -31 5.5 -51t28.5 -29.5t37.5 -13t44.5 -4.5l-8 -88q-116 0 -170.5 47.5t-44.5 141.5l17 157q4 40 -20.5 64.5t-69.5 24.5l8 77q43 2 72.5 25.5t33.5 55.5l14 133q10 101 86 156t192 50l-16 -96q-54 6 -101 -19.5t-54 -87.5l-13 -127
q-9 -81 -81 -126q37 -19 49 -50t6 -89z" />
    <glyph glyph-name="bar" unicode="|" horiz-adv-x="222" 
d="M100 817h105l-97 -915h-105z" />
    <glyph glyph-name="braceright" unicode="}" horiz-adv-x="333" 
d="M88 53l16 146q6 58 24.5 89t58.5 50q-62 45 -53 126l13 127q5 42 -17.5 68t-51 33t-64.5 7l6 98q117 0 180.5 -54t53.5 -155l-14 -133q-4 -32 20.5 -55.5t67.5 -25.5l-8 -77q-45 0 -74.5 -24.5t-33.5 -64.5l-17 -157q-20 -189 -255 -189l12 95q28 1 45.5 4.5t39.5 12.5
t35 28.5t16 50.5z" />
    <glyph glyph-name="asciitilde" unicode="~" 
d="M418 303q17 0 29.5 10.5t19.5 33t9.5 35.5t6.5 41h100q-17 -221 -176 -221q-39 0 -76.5 21.5t-61.5 47.5t-50.5 47.5t-46.5 21.5q-12 0 -21.5 -4.5t-16 -14.5t-11.5 -18t-8.5 -23t-5 -21.5t-3.5 -22t-2 -16.5h-99q23 223 189 223q34 0 68 -22t56.5 -48t49.5 -48t50 -22z
" />
    <glyph glyph-name="uni00A0" unicode="&#xa0;" horiz-adv-x="0" 
 />
    <glyph glyph-name="exclamdown" unicode="&#xa1;" horiz-adv-x="368" 
d="M125 298h124l-37 -510h-157zM293 477q0 -38 -27 -65.5t-66 -27.5q-38 0 -65 27.5t-27 65.5t27 65t65 27q39 0 66 -27t27 -65z" />
    <glyph glyph-name="cent" unicode="&#xa2;" 
d="M329 -82l-78 12l24 132q-254 28 -224 301q10 83 44 146.5t108 107t181 46.5l20 118l78 -12l-20 -107q64 -5 102 -12l-30 -123q-53 10 -95 11l-62 -351q55 2 126 16l1 -125q-77 -18 -150 -19zM206 363q-3 -39 -0.5 -73.5t25.5 -62t67 -36.5l61 346q-73 -7 -108 -51.5
t-45 -122.5z" />
    <glyph glyph-name="sterling" unicode="&#xa3;" 
d="M523 122l-13 -122h-500l21 122q41 2 57.5 19.5t19.5 52.5l12 113h-98l10 94h98l11 108q10 98 78.5 153.5t175.5 55.5q108 0 178 -52l-71 -99q-61 30 -114 27q-39 -2 -64.5 -24.5t-29.5 -61.5l-11 -107h229l-10 -94h-229l-11 -104q-4 -46 -29 -81h290z" />
    <glyph glyph-name="yen" unicode="&#xa5;" 
d="M565 400l-9 -93h-191l-4 -7l-32 -300h-154l33 299l-4 8h-180l9 93h132l-131 308h165l100 -284l156 284h165l-196 -308h141z" />
    <glyph glyph-name="brokenbar" unicode="&#xa6;" horiz-adv-x="222" 
d="M105 817h106l-37 -349h-106zM50 297h106l-42 -395h-106z" />
    <glyph glyph-name="section" unicode="&#xa7;" horiz-adv-x="562" 
d="M543 763l-40 -122q-96 28 -162 28q-56 0 -67 -51q-4 -18 13 -40t56.5 -57.5t47.5 -43.5q25 -25 33.5 -34.5t24.5 -32.5t20 -41t5 -47t-7 -64h-100q-1 13 0.5 20.5t-1.5 17.5t-3.5 14.5t-6 13t-8.5 13t-11 13.5t-13.5 15t-16.5 17.5t-20 20.5q-18 19 -46.5 44.5t-44.5 41
t-33 37.5t-24 46.5t-6 54.5q1 28 12 54.5t35.5 52.5t72 42t112.5 16q89 0 178 -29zM17 -73l40 122q96 -28 162 -28q26 0 47 14t25 36q4 18 -15 41t-58 57t-49 44q-25 25 -33.5 34.5t-24.5 32.5t-20 41t-5 47t7 64h100q1 -13 -0.5 -20.5t1.5 -17.5t3.5 -14.5t6 -13t8.5 -13
t11 -13.5t13.5 -15t16.5 -17.5t20 -20.5q19 -19 58 -54.5t55.5 -53.5t31 -50t11.5 -68q-15 -163 -234 -163q-89 0 -178 29z" />
    <glyph glyph-name="dieresis" unicode="&#xa8;" horiz-adv-x="476" 
d="M45 722q0 32 22 54t54 22q33 0 56 -22t23 -54t-23 -54t-56 -22q-32 0 -54 22t-22 54zM276 722q0 32 22.5 54t56.5 22q31 0 53.5 -22t22.5 -54t-22 -54t-54 -22q-34 0 -56.5 22t-22.5 54z" />
    <glyph glyph-name="copyright" unicode="&#xa9;" horiz-adv-x="922" 
d="M55 355q0 174 116 284.5t290 110.5q173 0 289.5 -111t116.5 -284q0 -176 -112.5 -286t-293.5 -110t-293.5 110t-112.5 286zM145 355q0 -145 89 -229.5t227 -84.5q141 0 227 84.5t86 229.5q0 144 -89.5 230t-223.5 86q-135 0 -225.5 -86t-90.5 -230zM403 354q8 77 31 100
t63 23q9 0 44.5 -3.5t40.5 -6.5l21 92q-38 12 -107 12q-98 0 -145 -50.5t-59 -164.5q-6 -34 -3 -72.5t13 -70.5t41.5 -53.5t82.5 -21.5q94 0 176 70l-49 76q-68 -48 -103 -48q-35 -2 -44.5 21.5t-2.5 96.5z" />
    <glyph glyph-name="ordfeminine" unicode="&#xaa;" horiz-adv-x="440" 
d="M365 307l-7 -61h-330l7 61h330zM344 392h-84l10 79q-37 -83 -105 -83q-59 0 -94.5 48t-26.5 129q10 83 68.5 128t148.5 41l113 -5zM142 559q-2 -29 -1.5 -51.5t10 -36.5t29.5 -14q84 0 98 110l10 91l-29 3q-27 1 -44 -1t-34 -11.5t-26.5 -31.5t-12.5 -58z" />
    <glyph glyph-name="guillemotleft" unicode="&#xab;" horiz-adv-x="562" 
d="M375 88l-120 211l167 211h135l-175 -217l131 -205h-138zM145 88l-120 211l167 211h134l-177 -217l129 -205h-133z" />
    <glyph glyph-name="logicalnot" unicode="&#xac;" 
d="M48 371h522l-27 -265h-99l16 159h-423z" />
    <glyph glyph-name="registered" unicode="&#xae;" horiz-adv-x="826" 
d="M470 314h87l-85 143q81 23 91 108q6 59 -33 83t-95 25h-129l-37 -359h74l13 130h35zM487 566q-3 -57 -77 -57h-47l11 101h46q71 0 67 -44zM147 484q0 -123 74 -194t192 -71q119 0 191.5 71.5t72.5 193.5q0 121 -75.5 193.5t-188.5 72.5q-117 0 -191.5 -69.5t-74.5 -196.5
zM65 484q0 149 99 243.5t249 94.5q149 0 248.5 -94.5t99.5 -243.5q0 -151 -96.5 -245t-251.5 -94q-156 0 -252 94t-96 245z" />
    <glyph glyph-name="macron" unicode="&#xaf;" horiz-adv-x="519" 
d="M474 770l-9 -92h-420l9 92h420z" />
    <glyph glyph-name="degree" unicode="&#xb0;" horiz-adv-x="507" 
d="M173 631q0 -42 23 -66.5t59 -24.5q37 0 60 24.5t23 66.5q0 39 -23 63t-60 24q-36 0 -59 -24t-23 -63zM65 631q0 75 54 127t135 52q80 0 134 -52t54 -127q0 -76 -54 -128.5t-134 -52.5q-81 0 -135 52.5t-54 128.5z" />
    <glyph glyph-name="plusminus" unicode="&#xb1;" 
d="M25 260l11 107h205l22 207h111l-22 -207h205l-11 -107h-205l-12 -107h-111l12 107h-205zM562 107l-11 -106h-522l11 106h522z" />
    <glyph glyph-name="twosuperior" unicode="&#xb2;" horiz-adv-x="324" 
d="M282 468l-9 -86h-258l6 74l47 36q47 36 64.5 51.5t33.5 36t18 39.5q2 16 -7.5 23.5t-30.5 7.5q-30 0 -92 -12l-3 89q52 13 104 14q74 1 107.5 -31t28.5 -79q-8 -78 -132 -163h123z" />
    <glyph glyph-name="threesuperior" unicode="&#xb3;" horiz-adv-x="319" 
d="M78 525l8 73h35q58 1 60 33q3 24 -39 24q-31 0 -84 -11l-4 80q45 14 96 14q66 2 101.5 -24t29.5 -74q-2 -22 -18 -42.5t-41 -31.5q62 -30 56 -86q-5 -47 -44 -77.5t-117 -29.5q-56 1 -102 19l27 79q51 -13 85 -13q49 0 52 29q1 6 -0.5 12t-7.5 12.5t-21 10.5t-37 3h-35z
" />
    <glyph glyph-name="acute" unicode="&#xb4;" horiz-adv-x="370" 
d="M178 636l-133 1l121 212h159z" />
    <glyph glyph-name="mu" unicode="&#xb5;" horiz-adv-x="626" 
d="M373 348l23 212l146 1l-57 -561h-143l16 129q-54 -135 -149 -135q-27 0 -59 9l-19 -184h-127l73 741h154l-31 -310q-10 -131 45 -131q50 0 82.5 66.5t45.5 162.5z" />
    <glyph glyph-name="mu" unicode="&#x3bc;" horiz-adv-x="626" 
d="M373 348l23 212l146 1l-57 -561h-143l16 129q-54 -135 -149 -135q-27 0 -59 9l-19 -184h-127l73 741h154l-31 -310q-10 -131 45 -131q50 0 82.5 66.5t45.5 162.5z" />
    <glyph glyph-name="paragraph" unicode="&#xb6;" horiz-adv-x="715" 
d="M467 82l60 576h-98l-68 -658h-98l35 343h-35q-112 0 -162 49.5t-39 147.5q9 92 75.5 135.5t174.5 43.5h400l-7 -61h-82l-59 -562q-6 -58 -18 -101t-38 -85t-74 -64.5t-117 -22.5q-36 0 -97 7l13 79q56 -7 97 -4q120 8 137 177z" />
    <glyph glyph-name="periodcentered" unicode="&#xb7;" horiz-adv-x="392" 
d="M95 320q0 41 29.5 71t71.5 30q41 0 71 -30t30 -71q0 -42 -30 -71.5t-71 -29.5q-42 0 -71.5 29.5t-29.5 71.5z" />
    <glyph glyph-name="cedilla" unicode="&#xb8;" horiz-adv-x="311" 
d="M164 13h101q1 -33 -1 -58.5t-13.5 -56.5t-33.5 -51.5t-64 -34.5t-100 -15l-8 90q35 5 53 10t37 17.5t25.5 36.5t3.5 62z" />
    <glyph glyph-name="onesuperior" unicode="&#xb9;" horiz-adv-x="311" 
d="M274 465l-9 -82h-235l9 82h74l17 170q-10 -5 -34.5 -19t-35.5 -19l-30 78l114 61h98l-28 -271h60z" />
    <glyph glyph-name="ordmasculine" unicode="&#xba;" horiz-adv-x="447" 
d="M365 308l-6 -61h-330l6 61h330zM389 560q-9 -76 -58 -126t-128 -50q-84 2 -122 51t-29 125t58 125.5t130 49.5t119.5 -49.5t29.5 -125.5zM151 560q-11 -102 61 -102q66 0 78 102q7 96 -58 96q-40 0 -59 -29t-22 -67z" />
    <glyph glyph-name="guillemotright" unicode="&#xbb;" horiz-adv-x="540" 
d="M158 510l137 -211l-169 -211h-141l181 217l-137 205h129zM388 510l137 -211l-169 -211h-140l183 217l-135 205h124z" />
    <glyph glyph-name="onequarter" unicode="&#xbc;" horiz-adv-x="683" 
d="M564 0h-93l8 73h-171l6 62l168 220h119l-21 -200h49l-8 -82h-49zM282 465l-9 -82h-235l9 82h74l17 170q-10 -5 -34.5 -19t-35.5 -19l-30 78l114 61h98l-28 -271h60zM42 103l47 -48l559 560l-47 49zM421 155h66l11 104z" />
    <glyph glyph-name="onehalf" unicode="&#xbd;" horiz-adv-x="699" 
d="M46 103l47 -48l559 560l-47 49zM282 465l-9 -82h-235l9 82h74l17 170q-10 -5 -34.5 -19t-35.5 -19l-30 78l114 61h98l-28 -271h60zM663 84l-9 -86h-258l6 74l47 36q47 36 64.5 51.5t33.5 36t18 39.5q2 16 -7.5 23.5t-30.5 7.5q-31 0 -92 -12l-3 89q52 13 104 14
q74 1 107.5 -31t28.5 -79q-8 -78 -132 -163h123z" />
    <glyph glyph-name="threequarters" unicode="&#xbe;" horiz-adv-x="676" 
d="M560 2h-93l8 73h-171l6 62l168 220h119l-21 -200h49l-8 -82h-49zM98 535l8 73h35q58 1 60 33q3 24 -39 24q-31 0 -84 -11l-4 80q45 14 96 14q66 2 101.5 -24t29.5 -74q-2 -22 -18 -42.5t-41 -31.5q62 -30 56 -86q-5 -47 -44 -77.5t-117 -29.5q-56 1 -102 19l27 79
q51 -13 85 -13q49 0 52 29q1 6 -0.5 12t-7.5 12.5t-21 10.5t-37 3h-35zM35 103l47 -48l559 560l-47 49zM417 157h66l11 104z" />
    <glyph glyph-name="questiondown" unicode="&#xbf;" horiz-adv-x="547" 
d="M397 298l-10 -151q-46 -15 -67 -23t-48 -23.5t-39.5 -36t-15.5 -49.5q-4 -36 20.5 -51t67.5 -15q53 0 150 21l27 -121q-115 -25 -189 -26q-65 -2 -113.5 16.5t-72.5 48.5t-34 62t-7 63q8 78 63.5 131.5t124.5 72.5l14 81h129zM442 471q0 -41 -29.5 -71t-71.5 -30
q-41 0 -71 30t-30 71q0 42 30 71.5t71 29.5q42 0 71.5 -29.5t29.5 -71.5z" />
    <glyph glyph-name="Agrave" unicode="&#xc0;" horiz-adv-x="663" 
d="M-25 0l297 628h165l171 -628h-151l-29 115h-254l-53 -115h-146zM395 245l-55 247l-109 -247h164zM419 665h-135l-120 171l159 -1z" />
    <glyph glyph-name="Aacute" unicode="&#xc1;" horiz-adv-x="663" 
d="M272 628l-297 -628h146l53 115h254l29 -115h151l-171 628h-165zM340 492l55 -247h-164zM428 665h-135l96 170l159 1z" />
    <glyph glyph-name="Acircumflex" unicode="&#xc2;" horiz-adv-x="663" 
d="M272 628l-297 -628h146l53 115h254l29 -115h151l-171 628h-165zM340 492l55 -247h-164zM417 665l-54 91l-73 -92h-137l144 181h142l115 -180h-137z" />
    <glyph glyph-name="Atilde" unicode="&#xc3;" horiz-adv-x="663" 
d="M-25 0l297 628h165l171 -628h-151l-29 115h-254l-53 -115h-146zM395 245l-55 247l-109 -247h164zM275 727q-44 0 -52 -48h-86q8 76 50 114t104 38q41 0 86 -28.5t58 -28.5q22 0 30 12t13 36h85q-16 -152 -144 -152q-30 0 -77.5 28.5t-66.5 28.5z" />
    <glyph glyph-name="Adieresis" unicode="&#xc4;" horiz-adv-x="663" 
d="M164 722q0 32 22 54t54 22q33 0 56 -22t23 -54t-23 -54t-56 -22q-32 0 -54 22t-22 54zM395 722q0 32 22.5 54t56.5 22q32 0 54 -22t22 -54t-22 -54t-54 -22q-34 0 -56.5 22t-22.5 54zM-25 0l297 628h165l171 -628h-151l-29 115h-254l-53 -115h-146zM395 245l-55 247
l-109 -247h164z" />
    <glyph glyph-name="Aring" unicode="&#xc5;" horiz-adv-x="663" 
d="M209 727q0 55 41.5 91.5t107.5 36.5q64 0 105.5 -36.5t41.5 -91.5q0 -74 -65 -111l168 -616h-151l-29 115h-254l-53 -115h-146l293 620q-59 38 -59 107zM395 245l-55 247l-109 -247h164zM306 727q0 -25 15.5 -38.5t36.5 -13.5q20 0 35 13.5t15 38.5q0 23 -15 35.5
t-35 12.5q-19 0 -35.5 -12t-16.5 -36z" />
    <glyph glyph-name="AE" unicode="&#xc6;" horiz-adv-x="927" 
d="M223 171l-87 -171h-161l386 726h546l-14 -128h-263l-16 -156h227l-14 -128h-227l-19 -186h263l-14 -128h-415l18 171h-210zM438 597l-154 -308h161l33 308h-40z" />
    <glyph glyph-name="Ccedilla" unicode="&#xc7;" horiz-adv-x="648" 
d="M558 149l28 -126q-71 -26 -149 -33q0 -39 -7.5 -68.5t-28 -59.5t-65.5 -47t-111 -18l-8 90q32 5 49 9t35 14.5t26 29.5t9 48q-156 11 -233 114.5t-60 253.5q17 177 118.5 277.5t286.5 100.5q92 0 169 -31l-39 -129q-86 24 -146 24q-59 0 -104 -20.5t-71 -56.5
t-40.5 -76.5t-19.5 -88.5q-10 -99 37 -166.5t150 -68.5q70 -1 174 28z" />
    <glyph glyph-name="Egrave" unicode="&#xc8;" horiz-adv-x="580" 
d="M508 130l-13 -130h-445l65 623h445l-13 -127h-293l-12 -110h256l-14 -134h-256l-13 -122h293zM446 665h-135l-120 171l159 -1z" />
    <glyph glyph-name="Eacute" unicode="&#xc9;" horiz-adv-x="580" 
d="M495 0l13 130h-293l13 122h256l14 134h-256l12 110h293l13 127h-445l-65 -623h445zM397 665h-135l96 170l159 1z" />
    <glyph glyph-name="Ecircumflex" unicode="&#xca;" horiz-adv-x="580" 
d="M495 0l13 130h-293l13 122h256l14 134h-256l12 110h293l13 127h-445l-65 -623h445zM400 665l-54 91l-73 -92h-137l144 181h142l115 -180h-137z" />
    <glyph glyph-name="Edieresis" unicode="&#xcb;" horiz-adv-x="580" 
d="M508 130l-13 -130h-445l65 623h445l-13 -127h-293l-12 -110h256l-14 -134h-256l-13 -122h293zM154 762q0 32 22 54t54 22q33 0 56 -22t23 -54t-23 -54t-56 -22q-32 0 -54 22t-22 54zM385 762q0 32 22.5 54t56.5 22q32 0 54 -22t22 -54t-22 -54t-54 -22q-34 0 -56.5 22
t-22.5 54z" />
    <glyph glyph-name="Igrave" unicode="&#xcc;" horiz-adv-x="434" 
d="M358 116l-12 -116h-321l11 116h85l41 394h-83l12 117h318l-12 -117h-83l-41 -394h85zM321 665h-135l-120 171l159 -1z" />
    <glyph glyph-name="Iacute" unicode="&#xcd;" horiz-adv-x="449" 
d="M346 0l12 116h-85l41 394h83l12 117h-318l-12 -117h83l-41 -394h-85l-11 -116h321zM304 665h-135l96 170l159 1z" />
    <glyph glyph-name="Icircumflex" unicode="&#xce;" horiz-adv-x="478" 
d="M316 665l-54 91l-73 -92h-137l144 181h142l115 -180h-137zM346 0l12 116h-85l41 394h83l12 117h-318l-12 -117h83l-41 -394h-85l-11 -116h321z" />
    <glyph glyph-name="Idieresis" unicode="&#xcf;" horiz-adv-x="468" 
d="M57 732q0 32 22 54t54 22q33 0 56 -22t23 -54t-23 -54t-56 -22q-32 0 -54 22t-22 54zM288 732q0 32 22.5 54t56.5 22q31 0 53.5 -22t22.5 -54t-22 -54t-54 -22q-34 0 -56.5 22t-22.5 54zM358 116l-12 -116h-321l11 116h85l41 394h-83l12 117h318l-12 -117h-83l-41 -394
h85z" />
    <glyph glyph-name="Eth" unicode="&#xd0;" horiz-adv-x="723" 
d="M74 427l31 297q100 4 203 4q177 0 272.5 -104.5t77.5 -264.5q-17 -176 -120 -269t-288 -93q-51 0 -125.5 1.5t-95.5 1.5l33 311h-78l12 116h78zM419 427l-12 -116h-190l-19 -184h42q235 0 260 232q13 121 -40.5 180.5t-184.5 59.5q-19 -1 -28 -1l-18 -171h190z" />
    <glyph glyph-name="Ntilde" unicode="&#xd1;" horiz-adv-x="717" 
d="M329 717q-44 0 -52 -48h-86q8 76 50 114t104 38q41 0 86 -28.5t58 -28.5q22 0 30 12t13 36h85q-16 -152 -144 -152q-30 0 -77.5 28.5t-66.5 28.5zM205 0h-156l65 626h143l220 -371l39 370h155l-65 -625h-142l-221 364z" />
    <glyph glyph-name="Ograve" unicode="&#xd2;" horiz-adv-x="735" 
d="M43 317q6 61 28 114t62.5 100.5t109.5 75.5t159 28q79 0 140 -29t94.5 -76t48 -102t8.5 -111q-16 -147 -105 -240t-255 -93q-150 0 -227.5 96.5t-62.5 236.5zM538 317q9 83 -27 138.5t-123 55.5q-46 0 -82.5 -19.5t-57.5 -50t-33 -62t-15 -62.5q-9 -89 23.5 -148.5
t121.5 -59.5q88 0 136 60.5t57 147.5zM503 665h-135l-120 171l159 -1z" />
    <glyph glyph-name="Oacute" unicode="&#xd3;" horiz-adv-x="735" 
d="M43 317q-15 -140 62.5 -236.5t227.5 -96.5q166 0 255 93t105 240q6 56 -8.5 111t-48 102t-94.5 76t-140 29q-90 0 -159 -28t-109.5 -75.5t-62.5 -100.5t-28 -114zM538 317q-9 -87 -57 -147.5t-136 -60.5q-89 0 -121.5 59.5t-23.5 148.5q3 31 15 62.5t33 62t57.5 50
t82.5 19.5q87 0 123 -55.5t27 -138.5zM453 665h-135l96 170l159 1z" />
    <glyph glyph-name="Ocircumflex" unicode="&#xd4;" horiz-adv-x="735" 
d="M43 317q-15 -140 62.5 -236.5t227.5 -96.5q166 0 255 93t105 240q6 56 -8.5 111t-48 102t-94.5 76t-140 29q-90 0 -159 -28t-109.5 -75.5t-62.5 -100.5t-28 -114zM538 317q-9 -87 -57 -147.5t-136 -60.5q-89 0 -121.5 59.5t-23.5 148.5q3 31 15 62.5t33 62t57.5 50
t82.5 19.5q87 0 123 -55.5t27 -138.5zM456 665l-54 91l-73 -92h-137l144 181h142l115 -180h-137z" />
    <glyph glyph-name="Otilde" unicode="&#xd5;" horiz-adv-x="735" 
d="M43 317q6 61 28 114t62.5 100.5t109.5 75.5t159 28q79 0 140 -29t94.5 -76t48 -102t8.5 -111q-16 -147 -105 -240t-255 -93q-150 0 -227.5 96.5t-62.5 236.5zM538 317q9 83 -27 138.5t-123 55.5q-46 0 -82.5 -19.5t-57.5 -50t-33 -62t-15 -62.5q-9 -89 23.5 -148.5
t121.5 -59.5q88 0 136 60.5t57 147.5zM326 727q-44 0 -52 -48h-86q8 76 50 114t104 38q41 0 86 -28.5t58 -28.5q22 0 30 12t13 36h85q-16 -152 -144 -152q-30 0 -77.5 28.5t-66.5 28.5z" />
    <glyph glyph-name="Odieresis" unicode="&#xd6;" horiz-adv-x="735" 
d="M43 317q6 61 28 114t62.5 100.5t109.5 75.5t159 28q79 0 140 -29t94.5 -76t48 -102t8.5 -111q-16 -147 -105 -240t-255 -93q-150 0 -227.5 96.5t-62.5 236.5zM538 317q9 83 -27 138.5t-123 55.5q-46 0 -82.5 -19.5t-57.5 -50t-33 -62t-15 -62.5q-9 -89 23.5 -148.5
t121.5 -59.5q88 0 136 60.5t57 147.5zM235 752q0 32 22 54t54 22q33 0 56 -22t23 -54t-23 -54t-56 -22q-32 0 -54 22t-22 54zM466 752q0 32 22.5 54t56.5 22q31 0 53.5 -22t22.5 -54t-22 -54t-54 -22q-34 0 -56.5 22t-22.5 54z" />
    <glyph glyph-name="multiply" unicode="&#xd7;" 
d="M515 116l-75 -66l-160 184l-192 -169l-62 71l191 170l-153 173l75 66l151 -174l203 180l62 -71l-200 -181z" />
    <glyph glyph-name="Oslash" unicode="&#xd8;" horiz-adv-x="735" 
d="M60 -8l-65 66l74 74q-59 100 -46 229q9 79 35.5 146t72 121t117 84.5t162.5 30.5q121 0 202 -68l63 63l65 -66l-67 -67q64 -102 50 -244q-16 -162 -119.5 -268t-264.5 -106q-127 0 -211 73zM567 361q8 70 -9 129l-329 -329q44 -41 115 -41q98 0 155.5 68.5t67.5 172.5z
M395 613q-98 0 -154 -73t-67 -179q-6 -66 8 -116l327 327q-43 41 -114 41z" />
    <glyph glyph-name="Ugrave" unicode="&#xd9;" horiz-adv-x="672" 
d="M252 624l-38 -362q-8 -80 17 -113t91 -33q69 0 94.5 32t34.5 114l38 362h153l-40 -378q-13 -129 -81.5 -193t-210.5 -64q-145 0 -205.5 64.5t-46.5 192.5l40 378h154zM452 665h-135l-120 171l159 -1z" />
    <glyph glyph-name="Uacute" unicode="&#xda;" horiz-adv-x="672" 
d="M214 262l38 362h-154l-40 -378q-14 -128 46.5 -192.5t205.5 -64.5q142 0 210.5 64t81.5 193l40 378h-153l-38 -362q-9 -82 -34.5 -114t-94.5 -32q-66 0 -91 33t-17 113zM425 665h-135l96 170l159 1z" />
    <glyph glyph-name="Ucircumflex" unicode="&#xdb;" horiz-adv-x="672" 
d="M214 262l38 362h-154l-40 -378q-14 -128 46.5 -192.5t205.5 -64.5q142 0 210.5 64t81.5 193l40 378h-153l-38 -362q-9 -82 -34.5 -114t-94.5 -32q-66 0 -91 33t-17 113zM435 665l-54 91l-73 -92h-137l144 181h142l115 -180h-137z" />
    <glyph glyph-name="Udieresis" unicode="&#xdc;" horiz-adv-x="672" 
d="M189 754q0 32 22 54t54 22q33 0 56 -22t23 -54t-23 -54t-56 -22q-32 0 -54 22t-22 54zM420 754q0 32 22.5 54t56.5 22q31 0 53.5 -22t22.5 -54t-22 -54t-54 -22q-34 0 -56.5 22t-22.5 54zM252 624l-38 -362q-8 -80 17 -113t91 -33q69 0 94.5 32t34.5 114l38 362h153
l-40 -378q-13 -129 -81.5 -193t-210.5 -64q-145 0 -205.5 64.5t-46.5 192.5l40 378h154z" />
    <glyph glyph-name="Yacute" unicode="&#xdd;" horiz-adv-x="617" 
d="M207 0h154l23 229l263 398h-164l-158 -256l-112 256h-163l181 -396zM416 665h-135l96 170l159 1z" />
    <glyph glyph-name="Thorn" unicode="&#xde;" horiz-adv-x="598" 
d="M240 516l-54 -516h-156l78 728h156l-11 -90h90q124 0 183 -50t48 -153q-11 -108 -81 -162.5t-186 -54.5h-52l13 123h33q63 0 91 23t33 69q5 44 -20 63.5t-85 19.5h-80z" />
    <glyph glyph-name="germandbls" unicode="&#xdf;" horiz-adv-x="622" 
d="M240 9l41 130q74 -19 114 -19q50 0 61 35q4 27 -5 40.5t-53 49.5q-39 30 -62 52.5t-32 39t-11 33t1 34.5q3 30 20.5 56.5t37.5 44.5t38.5 46t23.5 59q0 20 -19.5 32.5t-54.5 8.5q-42 -5 -64 -28.5t-25 -54.5l-59 -568h-145l60 571q9 85 79 140t171 57q98 0 151.5 -46
t44.5 -114q-6 -41 -23.5 -74t-36 -50t-33.5 -34.5t-17 -32.5q-3 -5 0 -12.5t2.5 -10.5t5 -9.5t7.5 -9.5t10.5 -10t13.5 -11t16.5 -12.5t19.5 -15.5q47 -37 67.5 -79t12.5 -99q-26 -159 -226 -159q-65 0 -132 20z" />
    <glyph glyph-name="agrave" unicode="&#xe0;" horiz-adv-x="589" 
d="M492 0h-145l18 129q-30 -65 -74.5 -100t-94.5 -35q-175 0 -147 284q5 54 15 95t31.5 80.5t54 64.5t83.5 39.5t119 11.5l197 -8zM200 270q-8 -80 -2.5 -115.5t34.5 -35.5q51 0 93.5 69.5t54.5 159.5l12 96l-58 3q-66 3 -96 -33.5t-38 -143.5zM500 637l-133 -1l-147 213
h159z" />
    <glyph glyph-name="aacute" unicode="&#xe1;" horiz-adv-x="589" 
d="M347 0h145l57 561l-197 8q-68 3 -119 -11.5t-83.5 -39.5t-54 -64.5t-31.5 -80.5t-15 -95q-28 -284 147 -284q50 0 94.5 35t74.5 100zM200 270q8 107 38 143.5t96 33.5l58 -3l-12 -96q-12 -90 -54.5 -159.5t-93.5 -69.5q-29 0 -34.5 35.5t2.5 115.5zM401 636l-133 1
l121 212h159z" />
    <glyph glyph-name="acircumflex" unicode="&#xe2;" horiz-adv-x="608" 
d="M347 0h145l57 561l-197 8q-68 3 -119 -11.5t-83.5 -39.5t-54 -64.5t-31.5 -80.5t-15 -95q-28 -284 147 -284q50 0 94.5 35t74.5 100zM200 270q8 107 38 143.5t96 33.5l58 -3l-12 -96q-12 -90 -54.5 -159.5t-93.5 -69.5q-29 0 -34.5 35.5t2.5 115.5zM436 641l-71 115
l-96 -115h-137l165 204h142l129 -204h-132z" />
    <glyph glyph-name="atilde" unicode="&#xe3;" horiz-adv-x="608" 
d="M492 0h-145l18 129q-30 -65 -74.5 -100t-94.5 -35q-175 0 -147 284q5 54 15 95t31.5 80.5t54 64.5t83.5 39.5t119 11.5l197 -8zM200 270q-8 -80 -2.5 -115.5t34.5 -35.5q51 0 93.5 69.5t54.5 159.5l12 96l-58 3q-66 3 -96 -33.5t-38 -143.5zM280 707q-44 0 -52 -48h-86
q8 76 50 114t104 38q41 0 86 -28.5t58 -28.5q22 0 30 12t13 36h85q-16 -152 -144 -152q-30 0 -77.5 28.5t-66.5 28.5z" />
    <glyph glyph-name="adieresis" unicode="&#xe4;" horiz-adv-x="589" 
d="M492 0h-145l18 129q-30 -65 -74.5 -100t-94.5 -35q-175 0 -147 284q5 54 15 95t31.5 80.5t54 64.5t83.5 39.5t119 11.5l197 -8zM200 270q-8 -80 -2.5 -115.5t34.5 -35.5q51 0 93.5 69.5t54.5 159.5l12 96l-58 3q-66 3 -96 -33.5t-38 -143.5zM158 722q0 32 22 54t54 22
q33 0 56 -22t23 -54t-23 -54t-56 -22q-32 0 -54 22t-22 54zM389 722q0 32 22.5 54t56.5 22q32 0 54 -22t22 -54t-22 -54t-54 -22q-34 0 -56.5 22t-22.5 54z" />
    <glyph glyph-name="aring" unicode="&#xe5;" horiz-adv-x="589" 
d="M492 0h-145l18 129q-30 -65 -74.5 -100t-94.5 -35q-175 0 -147 284q5 54 15 95t31.5 80.5t54 64.5t83.5 39.5t119 11.5l197 -8zM200 270q-8 -80 -2.5 -115.5t34.5 -35.5q51 0 93.5 69.5t54.5 159.5l12 96l-58 3q-66 3 -96 -33.5t-38 -143.5zM331 727q0 -25 15.5 -38.5
t36.5 -13.5q20 0 35 13.5t15 38.5q0 23 -15 35.5t-35 12.5q-19 0 -35.5 -12t-16.5 -36zM234 727q0 55 41.5 91.5t107.5 36.5q64 0 105.5 -36.5t41.5 -91.5q0 -57 -41.5 -94t-105.5 -37t-106.5 37t-42.5 94z" />
    <glyph glyph-name="ae" unicode="&#xe6;" horiz-adv-x="864" 
d="M649 571q84 1 131 -44.5t43 -107.5q-3 -51 -29.5 -88.5t-74 -60.5t-98 -36t-118.5 -22q-3 -53 17.5 -76.5t67.5 -21.5q58 3 145 64l64 -93q-111 -93 -239 -93t-171 103q-33 -48 -88 -74.5t-103 -26.5q-175 0 -147 284q5 54 15 95t31.5 80.5t54 64.5t83.5 39.5t119 11.5
l159 -7l-3 -27q59 36 141 36zM200 270q-8 -80 -2.5 -115.5t34.5 -35.5q51 0 93.5 69.5t54.5 159.5l12 96l-58 3q-66 3 -96 -33.5t-38 -143.5zM631 453q-43 -1 -77 -35t-43 -91q173 18 179 81q1 25 -17 35t-42 10z" />
    <glyph glyph-name="ccedilla" unicode="&#xe7;" horiz-adv-x="480" 
d="M193 281q-10 -99 3 -133t59 -32q49 3 138 65l65 -96q-57 -49 -126 -74q2 -212 -212 -214l-8 94q61 9 86 27t28 74h-3q-67 0 -109.5 28.5t-55.5 72t-17 94.5t4 97q16 152 78.5 219.5t192.5 67.5q91 0 144 -16l-28 -118q-7 3 -55.5 8.5t-58.5 5.5q-25 0 -42.5 -6
t-35.5 -22.5t-30 -52t-17 -89.5z" />
    <glyph glyph-name="egrave" unicode="&#xe8;" horiz-adv-x="519" 
d="M329 571q84 1 131 -44.5t43 -107.5q-3 -51 -29.5 -88.5t-74 -60.5t-98 -36t-118.5 -22q-3 -53 17.5 -76.5t67.5 -21.5q58 3 145 64l64 -93q-111 -93 -239 -93q-57 0 -97.5 22t-59.5 53.5t-27.5 74.5t-8 75.5t4.5 66.5q19 133 88 210t191 77zM311 453q-43 -1 -77 -35
t-43 -91q173 18 179 81q1 25 -17 35t-42 10zM435 637l-133 -1l-147 213h159z" />
    <glyph glyph-name="eacute" unicode="&#xe9;" horiz-adv-x="519" 
d="M329 571q-122 0 -191 -77t-88 -210q-4 -34 -4.5 -66.5t8 -75.5t27.5 -74.5t59.5 -53.5t97.5 -22q128 0 239 93l-64 93q-87 -61 -145 -64q-47 -2 -67.5 21.5t-17.5 76.5q68 9 118.5 22t98 36t74 60.5t29.5 88.5q4 62 -43 107.5t-131 44.5zM311 453q24 0 42 -10t17 -35
q-6 -63 -179 -81q9 57 43 91t77 35zM352 636l-133 1l121 212h159z" />
    <glyph glyph-name="ecircumflex" unicode="&#xea;" horiz-adv-x="519" 
d="M329 571q-122 0 -191 -77t-88 -210q-4 -34 -4.5 -66.5t8 -75.5t27.5 -74.5t59.5 -53.5t97.5 -22q128 0 239 93l-64 93q-87 -61 -145 -64q-47 -2 -67.5 21.5t-17.5 76.5q68 9 118.5 22t98 36t74 60.5t29.5 88.5q4 62 -43 107.5t-131 44.5zM311 453q24 0 42 -10t17 -35
q-6 -63 -179 -81q9 57 43 91t77 35zM407 641l-71 115l-96 -115h-137l165 204h142l129 -204h-132z" />
    <glyph glyph-name="edieresis" unicode="&#xeb;" horiz-adv-x="514" 
d="M329 571q84 1 131 -44.5t43 -107.5q-3 -51 -29.5 -88.5t-74 -60.5t-98 -36t-118.5 -22q-3 -53 17.5 -76.5t67.5 -21.5q58 3 145 64l64 -93q-111 -93 -239 -93q-57 0 -97.5 22t-59.5 53.5t-27.5 74.5t-8 75.5t4.5 66.5q19 133 88 210t191 77zM311 453q-43 -1 -77 -35
t-43 -91q173 18 179 81q1 25 -17 35t-42 10zM126 722q0 32 22 54t54 22q33 0 56 -22t23 -54t-23 -54t-56 -22q-32 0 -54 22t-22 54zM357 722q0 32 22.5 54t56.5 22q32 0 54 -22t22 -54t-22 -54t-54 -22q-34 0 -56.5 22t-22.5 54z" />
    <glyph glyph-name="igrave" unicode="&#xec;" horiz-adv-x="301" 
d="M207 0h-149l59 560h149zM261 637l-133 -1l-147 213h159z" />
    <glyph glyph-name="iacute" unicode="&#xed;" horiz-adv-x="316" 
d="M42 0h149l59 560h-149zM244 636l-133 1l121 212h159z" />
    <glyph glyph-name="icircumflex" unicode="&#xee;" horiz-adv-x="301" 
d="M44 0h149l59 560h-149zM267 641l-71 115l-96 -115h-137l165 204h142l129 -204h-132z" />
    <glyph glyph-name="idieresis" unicode="&#xef;" horiz-adv-x="301" 
d="M187 0h-149l59 560h149zM-10 763q0 32 22 54t54 22q33 0 56 -22t23 -54t-23 -54t-56 -22q-32 0 -54 22t-22 54zM221 763q0 32 22.5 54t56.5 22q32 0 54 -22.5t22 -53.5q0 -32 -22 -54t-54 -22q-34 0 -56.5 22t-22.5 54z" />
    <glyph glyph-name="eth" unicode="&#xf0;" 
d="M304 500l-48 47l53 54q-45 27 -111 48l49 113q85 -25 150 -73l77 78l48 -51l-74 -73q109 -120 100 -325q-12 -105 -32 -159q-65 -172 -251 -172q-81 0 -136.5 41.5t-76.5 102t-14 128.5q10 96 82 152t198 53q33 -2 40 -4v-121q-22 6 -47 6q-64 0 -99 -26t-40 -70
q-5 -54 18.5 -95.5t81.5 -41.5q80 0 114.5 63t33.5 161q0 81 -11.5 132t-46.5 90z" />
    <glyph glyph-name="ntilde" unicode="&#xf1;" horiz-adv-x="614" 
d="M522 0h-153l30 347q10 97 -43 97q-38 0 -79 -61t-56 -158l-18 -225h-153l57 560h154l-17 -103q74 114 175 114q151 0 136 -168zM271 707q-44 0 -52 -48h-86q8 76 50 114t104 38q41 0 86 -28.5t58 -28.5q22 0 30 12t13 36h85q-16 -152 -144 -152q-30 0 -77.5 28.5
t-66.5 28.5z" />
    <glyph glyph-name="ograve" unicode="&#xf2;" horiz-adv-x="596" 
d="M548 281q-13 -131 -81 -211.5t-206 -80.5q-119 1 -173 85t-40 207q9 82 39 144t93 103t153 42q120 0 174 -75.5t41 -213.5zM196 281q-8 -69 9.5 -116t66.5 -48q61 1 88.5 41t37.5 123q18 169 -75 169q-55 -1 -86.5 -46.5t-40.5 -122.5zM450 637l-133 -1l-147 213h159z
" />
    <glyph glyph-name="oacute" unicode="&#xf3;" horiz-adv-x="596" 
d="M548 281q13 138 -41 213.5t-174 75.5q-90 -1 -153 -42t-93 -103t-39 -144q-14 -123 40 -207t173 -85q138 0 206 80.5t81 211.5zM196 281q9 77 40.5 122.5t86.5 46.5q93 0 75 -169q-10 -83 -37.5 -123t-88.5 -41q-49 1 -66.5 48t-9.5 116zM359 636l-133 1l121 212h159z
" />
    <glyph glyph-name="ocircumflex" unicode="&#xf4;" horiz-adv-x="596" 
d="M548 281q13 138 -41 213.5t-174 75.5q-90 -1 -153 -42t-93 -103t-39 -144q-14 -123 40 -207t173 -85q138 0 206 80.5t81 211.5zM196 281q9 77 40.5 122.5t86.5 46.5q93 0 75 -169q-10 -83 -37.5 -123t-88.5 -41q-49 1 -66.5 48t-9.5 116zM427 641l-71 115l-96 -115h-137
l165 204h142l129 -204h-132z" />
    <glyph glyph-name="otilde" unicode="&#xf5;" horiz-adv-x="596" 
d="M548 281q-13 -131 -81 -211.5t-206 -80.5q-119 1 -173 85t-40 207q9 82 39 144t93 103t153 42q120 0 174 -75.5t41 -213.5zM196 281q-8 -69 9.5 -116t66.5 -48q61 1 88.5 41t37.5 123q18 169 -75 169q-55 -1 -86.5 -46.5t-40.5 -122.5zM268 707q-44 0 -52 -48h-86
q8 76 50 114t104 38q41 0 86 -28.5t58 -28.5q22 0 30 12t13 36h85q-16 -152 -144 -152q-30 0 -77.5 28.5t-66.5 28.5z" />
    <glyph glyph-name="odieresis" unicode="&#xf6;" horiz-adv-x="596" 
d="M548 281q-13 -131 -81 -211.5t-206 -80.5q-119 1 -173 85t-40 207q9 82 39 144t93 103t153 42q120 0 174 -75.5t41 -213.5zM196 281q-8 -69 9.5 -116t66.5 -48q61 1 88.5 41t37.5 123q18 169 -75 169q-55 -1 -86.5 -46.5t-40.5 -122.5zM155 721q0 32 22 54t54 22
q33 0 56 -22t23 -54t-23 -54t-56 -22q-32 0 -54 22t-22 54zM386 721q0 32 22.5 54t56.5 22q31 0 53.5 -22.5t22.5 -53.5q0 -32 -22 -54t-54 -22q-34 0 -56.5 22t-22.5 54z" />
    <glyph glyph-name="divide" unicode="&#xf7;" 
d="M234 511q5 35 33 59.5t64 24.5q35 0 56.5 -25t17.5 -59q-4 -35 -31.5 -59.5t-62.5 -24.5q-37 0 -59 24.5t-18 59.5zM185 114q5 35 33 59.5t64 24.5q35 0 56.5 -25t17.5 -59q-4 -35 -31.5 -59.5t-62.5 -24.5q-37 0 -59 24.5t-18 59.5zM562 371l-13 -106h-522l13 106h522z
" />
    <glyph glyph-name="oslash" unicode="&#xf8;" horiz-adv-x="595" 
d="M535 281q-13 -131 -81 -211.5t-206 -80.5q-94 1 -150 57l-57 -57l-52 54l66 66q-31 72 -20 172q9 82 39 144t93 103t153 42q91 0 147 -47l60 61l53 -54l-68 -68q33 -72 23 -181zM259 117q61 1 88.5 41t37.5 123q3 29 3 56l-187 -188q19 -31 58 -32zM183 281
q-3 -24 -3 -46l186 187q-19 28 -56 28q-55 -1 -86.5 -46.5t-40.5 -122.5z" />
    <glyph glyph-name="ugrave" unicode="&#xf9;" horiz-adv-x="582" 
d="M373 348l23 212l146 1l-57 -561h-143l16 129q-54 -135 -149 -135q-81 0 -125.5 59t-36.5 175l30 332h154l-31 -310q-10 -131 45 -131q50 0 82.5 66.5t45.5 162.5zM444 637l-133 -1l-147 213h159z" />
    <glyph glyph-name="uacute" unicode="&#xfa;" horiz-adv-x="582" 
d="M396 560l-23 -212q-13 -96 -45.5 -162.5t-82.5 -66.5q-55 0 -45 131l31 310h-154l-30 -332q-8 -116 36.5 -175t125.5 -59q95 0 149 135l-16 -129h143l57 561zM360 636l-133 1l121 212h159z" />
    <glyph glyph-name="ucircumflex" unicode="&#xfb;" horiz-adv-x="582" 
d="M396 560l-23 -212q-13 -96 -45.5 -162.5t-82.5 -66.5q-55 0 -45 131l31 310h-154l-30 -332q-8 -116 36.5 -175t125.5 -59q95 0 149 135l-16 -129h143l57 561zM402 641l-71 115l-96 -115h-137l165 204h142l129 -204h-132z" />
    <glyph glyph-name="udieresis" unicode="&#xfc;" horiz-adv-x="582" 
d="M373 348l23 212l146 1l-57 -561h-143l16 129q-54 -135 -149 -135q-81 0 -125.5 59t-36.5 175l30 332h154l-31 -310q-10 -131 45 -131q50 0 82.5 66.5t45.5 162.5zM138 722q0 32 22 54t54 22q33 0 56 -22t23 -54t-23 -54t-56 -22q-32 0 -54 22t-22 54zM369 722
q0 32 22.5 54t56.5 22q32 0 54 -22t22 -54t-22 -54t-54 -22q-34 0 -56.5 22t-22.5 54z" />
    <glyph glyph-name="yacute" unicode="&#xfd;" horiz-adv-x="577" 
d="M391 560l-18 -168q-13 -96 -45.5 -162.5t-82.5 -66.5q-55 0 -45 131l26 266h-154l-25 -288q-8 -116 36.5 -175t125.5 -59q95 0 149 135l-22 -168q-4 -32 -28.5 -48.5t-65.5 -17t-80 5t-90 17.5l-24 -121q99 -33 201 -29q115 2 170 58t66 174l52 517zM346 636l-133 1
l121 212h159z" />
    <glyph glyph-name="thorn" unicode="&#xfe;" horiz-adv-x="576" 
d="M152 -6l-19 -176h-144l100 944h145l-38 -331q30 65 79.5 102.5t99.5 37.5q171 0 142 -289q-7 -67 -23 -116.5t-49.5 -92.5t-92.5 -64t-143 -18zM366 290q7 78 0 114.5t-34 36.5q-52 0 -95.5 -69.5t-55.5 -159.5l-12 -96l58 -3q67 -3 99 34t40 143z" />
    <glyph glyph-name="ydieresis" unicode="&#xff;" horiz-adv-x="577" 
d="M373 392l18 168l146 1l-52 -517q-11 -118 -66 -174t-170 -58q-102 -4 -201 29l24 121q51 -12 90 -17.5t80 -5t65.5 17t28.5 48.5l22 168q-54 -135 -149 -135q-81 0 -125.5 59t-36.5 175l25 288h154l-26 -266q-10 -131 45 -131q50 0 82.5 66.5t45.5 162.5zM125 737
q0 32 22 54t54 22q33 0 56 -22t23 -54t-23 -54t-56 -22q-32 0 -54 22t-22 54zM356 737q0 32 22.5 54t56.5 22q31 0 53.5 -22.5t22.5 -53.5q0 -32 -22 -54t-54 -22q-34 0 -56.5 22t-22.5 54z" />
    <glyph glyph-name="Amacron" unicode="&#x100;" horiz-adv-x="663" 
 />
    <glyph glyph-name="amacron" unicode="&#x101;" horiz-adv-x="589" 
 />
    <glyph glyph-name="Abreve" unicode="&#x102;" horiz-adv-x="663" 
 />
    <glyph glyph-name="abreve" unicode="&#x103;" horiz-adv-x="589" 
 />
    <glyph glyph-name="Aogonek" unicode="&#x104;" horiz-adv-x="743" 
 />
    <glyph glyph-name="aogonek" unicode="&#x105;" horiz-adv-x="589" 
 />
    <glyph glyph-name="Cacute" unicode="&#x106;" horiz-adv-x="644" 
 />
    <glyph glyph-name="cacute" unicode="&#x107;" horiz-adv-x="513" 
 />
    <glyph glyph-name="Ccircumflex" unicode="&#x108;" horiz-adv-x="613" 
 />
    <glyph glyph-name="ccircumflex" unicode="&#x109;" horiz-adv-x="556" 
 />
    <glyph glyph-name="Cdotaccent" unicode="&#x10a;" horiz-adv-x="613" 
 />
    <glyph glyph-name="cdotaccent" unicode="&#x10b;" horiz-adv-x="490" 
 />
    <glyph glyph-name="Ccaron" unicode="&#x10c;" horiz-adv-x="613" 
 />
    <glyph glyph-name="ccaron" unicode="&#x10d;" horiz-adv-x="556" 
 />
    <glyph glyph-name="Dcaron" unicode="&#x10e;" horiz-adv-x="681" 
 />
    <glyph glyph-name="dcaron" unicode="&#x10f;" horiz-adv-x="810" 
 />
    <glyph glyph-name="Dcroat" unicode="&#x110;" horiz-adv-x="746" 
 />
    <glyph glyph-name="dcroat" unicode="&#x111;" horiz-adv-x="598" 
 />
    <glyph glyph-name="Emacron" unicode="&#x112;" horiz-adv-x="580" 
 />
    <glyph glyph-name="emacron" unicode="&#x113;" horiz-adv-x="555" 
 />
    <glyph glyph-name="Ebreve" unicode="&#x114;" horiz-adv-x="580" 
 />
    <glyph glyph-name="ebreve" unicode="&#x115;" horiz-adv-x="529" 
 />
    <glyph glyph-name="Edotaccent" unicode="&#x116;" horiz-adv-x="580" 
 />
    <glyph glyph-name="edotaccent" unicode="&#x117;" horiz-adv-x="529" 
 />
    <glyph glyph-name="Eogonek" unicode="&#x118;" horiz-adv-x="612" 
 />
    <glyph glyph-name="eogonek" unicode="&#x119;" horiz-adv-x="529" 
 />
    <glyph glyph-name="Ecaron" unicode="&#x11a;" horiz-adv-x="583" 
 />
    <glyph glyph-name="ecaron" unicode="&#x11b;" horiz-adv-x="567" 
 />
    <glyph glyph-name="Gcircumflex" unicode="&#x11c;" horiz-adv-x="628" 
 />
    <glyph glyph-name="gcircumflex" unicode="&#x11d;" horiz-adv-x="595" 
 />
    <glyph glyph-name="Gbreve" unicode="&#x11e;" horiz-adv-x="628" 
 />
    <glyph glyph-name="gbreve" unicode="&#x11f;" horiz-adv-x="592" 
 />
    <glyph glyph-name="Gdotaccent" unicode="&#x120;" horiz-adv-x="628" 
 />
    <glyph glyph-name="gdotaccent" unicode="&#x121;" horiz-adv-x="592" 
 />
    <glyph glyph-name="Gcommaaccent" unicode="&#x122;" horiz-adv-x="710" 
 />
    <glyph glyph-name="gcommaaccent" unicode="&#x123;" horiz-adv-x="592" 
 />
    <glyph glyph-name="Hcircumflex" unicode="&#x124;" horiz-adv-x="702" 
 />
    <glyph glyph-name="hcircumflex" unicode="&#x125;" horiz-adv-x="612" 
 />
    <glyph glyph-name="Hbar" unicode="&#x126;" horiz-adv-x="707" 
 />
    <glyph glyph-name="hbar" unicode="&#x127;" horiz-adv-x="612" 
 />
    <glyph glyph-name="Itilde" unicode="&#x128;" horiz-adv-x="447" 
 />
    <glyph glyph-name="itilde" unicode="&#x129;" horiz-adv-x="301" 
 />
    <glyph glyph-name="uni012A" unicode="&#x12a;" horiz-adv-x="445" 
 />
    <glyph glyph-name="imacron" unicode="&#x12b;" horiz-adv-x="306" 
 />
    <glyph glyph-name="Ibreve" unicode="&#x12c;" horiz-adv-x="445" 
 />
    <glyph glyph-name="uni012D" unicode="&#x12d;" horiz-adv-x="301" 
 />
    <glyph glyph-name="Iogonek" unicode="&#x12e;" horiz-adv-x="446" 
 />
    <glyph glyph-name="iogonek" unicode="&#x12f;" horiz-adv-x="301" 
 />
    <glyph glyph-name="Idotaccent" unicode="&#x130;" horiz-adv-x="446" 
 />
    <glyph glyph-name="dotlessi" unicode="&#x131;" horiz-adv-x="301" 
d="M184 0h-149l59 560h149z" />
    <glyph glyph-name="IJ" unicode="&#x132;" horiz-adv-x="603" 
 />
    <glyph glyph-name="ij" unicode="&#x133;" horiz-adv-x="634" 
 />
    <glyph glyph-name="Jcircumflex" unicode="&#x134;" horiz-adv-x="447" 
 />
    <glyph glyph-name="jcircumflex" unicode="&#x135;" horiz-adv-x="346" 
 />
    <glyph glyph-name="Kcommaaccent" unicode="&#x136;" horiz-adv-x="694" 
 />
    <glyph glyph-name="kcommaaccent" unicode="&#x137;" horiz-adv-x="603" 
 />
    <glyph glyph-name="kgreenlandic" unicode="&#x138;" horiz-adv-x="574" 
 />
    <glyph glyph-name="Lacute" unicode="&#x139;" horiz-adv-x="575" 
 />
    <glyph glyph-name="lacute" unicode="&#x13a;" horiz-adv-x="293" 
 />
    <glyph glyph-name="Lcommaaccent" unicode="&#x13b;" horiz-adv-x="575" 
 />
    <glyph glyph-name="lcommaaccent" unicode="&#x13c;" horiz-adv-x="294" 
 />
    <glyph glyph-name="Lcaron" unicode="&#x13d;" horiz-adv-x="575" 
 />
    <glyph glyph-name="lcaron" unicode="&#x13e;" horiz-adv-x="498" 
 />
    <glyph glyph-name="Ldot" unicode="&#x13f;" horiz-adv-x="551" 
 />
    <glyph glyph-name="ldot" unicode="&#x140;" horiz-adv-x="524" 
 />
    <glyph glyph-name="Lslash" unicode="&#x141;" horiz-adv-x="565" 
d="M494 0h-455l30 287l-112 -52l10 99l112 52l36 342h155l-28 -265l169 79l-11 -102l-169 -78l-23 -223h300z" />
    <glyph glyph-name="lslash" unicode="&#x142;" horiz-adv-x="364" 
d="M200 0h-146l31 295l-130 -60l10 99l131 61l39 367h146l-32 -295l160 75l-11 -102l-159 -74z" />
    <glyph glyph-name="Nacute" unicode="&#x143;" horiz-adv-x="717" 
 />
    <glyph glyph-name="nacute" unicode="&#x144;" horiz-adv-x="612" 
 />
    <glyph glyph-name="Ncommaaccent" unicode="&#x145;" horiz-adv-x="793" 
 />
    <glyph glyph-name="ncommaaccent" unicode="&#x146;" horiz-adv-x="612" 
 />
    <glyph glyph-name="Ncaron" unicode="&#x147;" horiz-adv-x="717" 
 />
    <glyph glyph-name="ncaron" unicode="&#x148;" horiz-adv-x="641" 
 />
    <glyph glyph-name="napostrophe" unicode="&#x149;" horiz-adv-x="715" 
 />
    <glyph glyph-name="Eng" unicode="&#x14a;" horiz-adv-x="793" 
 />
    <glyph glyph-name="eng" unicode="&#x14b;" horiz-adv-x="612" 
 />
    <glyph glyph-name="Omacron" unicode="&#x14c;" horiz-adv-x="735" 
 />
    <glyph glyph-name="omacron" unicode="&#x14d;" horiz-adv-x="596" 
 />
    <glyph glyph-name="Obreve" unicode="&#x14e;" horiz-adv-x="735" 
 />
    <glyph glyph-name="obreve" unicode="&#x14f;" horiz-adv-x="596" 
 />
    <glyph glyph-name="Ohungarumlaut" unicode="&#x150;" horiz-adv-x="735" 
 />
    <glyph glyph-name="ohungarumlaut" unicode="&#x151;" horiz-adv-x="596" 
 />
    <glyph glyph-name="OE" unicode="&#x152;" horiz-adv-x="1051" 
d="M43 356q9 79 35.5 146t72 121t117 84.5t162.5 30.5q94 0 162 -44l4 34h435l-14 -131h-283l-16 -150h251l-14 -135h-248l-21 -177h283l-15 -135h-435l2 19q-71 -37 -162 -37q-158 0 -245 109t-71 265zM567 356q8 72 -1.5 125.5t-47 90t-103.5 36.5q-98 0 -154 -73
t-67 -179q-10 -103 33 -172t137 -69q96 0 144 66.5t59 174.5z" />
    <glyph glyph-name="oe" unicode="&#x153;" horiz-adv-x="858" 
d="M668 571q84 1 131 -44.5t43 -107.5q-3 -51 -29.5 -88.5t-74 -60.5t-98 -36t-118.5 -22q-3 -53 17.5 -76.5t67.5 -21.5q58 3 145 64l64 -93q-111 -93 -239 -93q-94 0 -138 57q-63 -60 -178 -60q-119 1 -173 85t-40 207q9 82 39 144t93 103t153 42q111 0 160 -69
q64 70 175 70zM196 281q-8 -69 9.5 -116t66.5 -48q61 1 88.5 41t37.5 123q18 169 -75 169q-55 -1 -86.5 -46.5t-40.5 -122.5zM650 453q-42 -1 -75.5 -33.5t-43.5 -86.5v-6q172 18 178 81q1 25 -17 35t-42 10z" />
    <glyph glyph-name="Racute" unicode="&#x154;" horiz-adv-x="656" 
 />
    <glyph glyph-name="racute" unicode="&#x155;" horiz-adv-x="486" 
 />
    <glyph glyph-name="Rcommaaccent" unicode="&#x156;" horiz-adv-x="667" 
 />
    <glyph glyph-name="rcommaaccent" unicode="&#x157;" horiz-adv-x="486" 
 />
    <glyph glyph-name="Rcaron" unicode="&#x158;" horiz-adv-x="656" 
 />
    <glyph glyph-name="rcaron" unicode="&#x159;" horiz-adv-x="444" 
 />
    <glyph glyph-name="Sacute" unicode="&#x15a;" horiz-adv-x="557" 
 />
    <glyph glyph-name="sacute" unicode="&#x15b;" horiz-adv-x="491" 
 />
    <glyph glyph-name="Scircumflex" unicode="&#x15c;" horiz-adv-x="557" 
 />
    <glyph glyph-name="scircumflex" unicode="&#x15d;" horiz-adv-x="442" 
 />
    <glyph glyph-name="Scedilla" unicode="&#x15e;" horiz-adv-x="593" 
 />
    <glyph glyph-name="scedilla" unicode="&#x15f;" horiz-adv-x="439" 
 />
    <glyph glyph-name="Scaron" unicode="&#x160;" horiz-adv-x="572" 
d="M355 665h-142l-137 180h137l71 -108l91 108h137zM66 157l-36 -129q106 -39 215 -39q246 0 251 171q1 66 -41 114.5t-135 88.5q-83 35 -106 51t-23 42q0 38 88 38q45 0 167 -24l25 129q-99 26 -191 26q-124 0 -184 -48t-60 -115q0 -65 36 -109t116 -82q90 -42 120 -63
t29 -43q-2 -43 -91 -43q-60 0 -180 35z" />
    <glyph glyph-name="scaron" unicode="&#x161;" horiz-adv-x="439" 
d="M45 132l-25 -115q72 -22 156 -24q204 -5 220 140q12 89 -116 190q-57 44 -74.5 63t-16.5 40q1 11 11 17t23.5 7t35.5 0q56 -3 118 -16l21 122q-83 14 -139 15q-102 3 -153 -38.5t-56 -94.5q-11 -88 109 -183q68 -54 82 -73q13 -18 11 -33q-4 -19 -20 -27t-50 -8
q-61 0 -137 18zM311 641h-132l-142 204h137l71 -125l91 125h137z" />
    <glyph glyph-name="Tcommaaccent" unicode="&#x162;" 
 />
    <glyph glyph-name="tcommaaccent" unicode="&#x163;" horiz-adv-x="428" 
 />
    <glyph glyph-name="Tcaron" unicode="&#x164;" horiz-adv-x="549" 
 />
    <glyph glyph-name="tcaron" unicode="&#x165;" horiz-adv-x="591" 
 />
    <glyph glyph-name="Tbar" unicode="&#x166;" 
 />
    <glyph glyph-name="tbar" unicode="&#x167;" horiz-adv-x="428" 
 />
    <glyph glyph-name="Utilde" unicode="&#x168;" horiz-adv-x="672" 
 />
    <glyph glyph-name="utilde" unicode="&#x169;" horiz-adv-x="596" 
 />
    <glyph glyph-name="Umacron" unicode="&#x16a;" horiz-adv-x="672" 
 />
    <glyph glyph-name="umacron" unicode="&#x16b;" horiz-adv-x="584" 
 />
    <glyph glyph-name="Ubreve" unicode="&#x16c;" horiz-adv-x="672" 
 />
    <glyph glyph-name="ubreve" unicode="&#x16d;" horiz-adv-x="582" 
 />
    <glyph glyph-name="Uring" unicode="&#x16e;" horiz-adv-x="672" 
 />
    <glyph glyph-name="uring" unicode="&#x16f;" horiz-adv-x="582" 
 />
    <glyph glyph-name="Uhungarumlaut" unicode="&#x170;" horiz-adv-x="688" 
 />
    <glyph glyph-name="uhungarumlaut" unicode="&#x171;" horiz-adv-x="582" 
 />
    <glyph glyph-name="Uogonek" unicode="&#x172;" horiz-adv-x="724" 
 />
    <glyph glyph-name="uogonek" unicode="&#x173;" horiz-adv-x="582" 
 />
    <glyph glyph-name="Wcircumflex" unicode="&#x174;" horiz-adv-x="926" 
 />
    <glyph glyph-name="wcircumflex" unicode="&#x175;" horiz-adv-x="798" 
 />
    <glyph glyph-name="Ycircumflex" unicode="&#x176;" horiz-adv-x="617" 
 />
    <glyph glyph-name="ycircumflex" unicode="&#x177;" horiz-adv-x="591" 
 />
    <glyph glyph-name="Ydieresis" unicode="&#x178;" horiz-adv-x="617" 
d="M158 773q0 32 22 54t54 22q33 0 56 -22t23 -54t-23 -54t-56 -22q-32 0 -54 22t-22 54zM389 773q0 32 22.5 54t56.5 22q32 0 54 -22.5t22 -53.5q0 -32 -22 -54t-54 -22q-34 0 -56.5 22t-22.5 54zM361 0h-154l24 231l-181 396h163l112 -256l158 256h164l-263 -398z" />
    <glyph glyph-name="Zacute" unicode="&#x179;" horiz-adv-x="580" 
 />
    <glyph glyph-name="zacute" unicode="&#x17a;" horiz-adv-x="520" 
 />
    <glyph glyph-name="Zdotaccent" unicode="&#x17b;" horiz-adv-x="580" 
 />
    <glyph glyph-name="zdotaccent" unicode="&#x17c;" horiz-adv-x="517" 
 />
    <glyph glyph-name="Zcaron" unicode="&#x17d;" horiz-adv-x="580" 
d="M520 0l15 132h-311l334 373l12 118h-479l-15 -137h267l-319 -356l-14 -130h510zM412 665h-142l-137 180h137l71 -108l91 108h137z" />
    <glyph glyph-name="zcaron" unicode="&#x17e;" horiz-adv-x="506" 
d="M378 641h-132l-142 204h137l71 -125l91 125h137zM485 455l12 105h-421l-13 -121h247q-29 -58 -101 -141t-129 -137l-58 -54l-11 -107h427l13 126h-228q6 4 19.5 15.5t43.5 41.5t61 66t69 91.5t69 114.5z" />
    <glyph glyph-name="longs" unicode="&#x17f;" horiz-adv-x="420" 
d="M191 -160l-144 1l67 600h-104l5 114h108l5 37q10 93 65.5 137t160.5 46q44 0 106 -7l-14 -121q-42 5 -87 7q-42 0 -63.5 -16t-27.5 -59z" />
    <glyph glyph-name="florin" unicode="&#x192;" horiz-adv-x="420" 
d="M70 41l44 400h-104l5 114h108l5 37q10 93 65.5 137t160.5 46q44 0 106 -7l-14 -121q-42 5 -87 7q-42 0 -63.5 -16t-27.5 -59l-3 -24h144l-4 -114h-149l-44 -404q-6 -55 -19 -93t-40.5 -70t-76 -47t-118.5 -14q-33 0 -68 4l26 129q30 -2 55 -1q55 3 74 24t25 72z" />
    <glyph glyph-name="circumflex" unicode="&#x2c6;" horiz-adv-x="526" 
d="M349 641l-71 115l-96 -115h-137l165 204h142l129 -204h-132z" />
    <glyph glyph-name="caron" unicode="&#x2c7;" horiz-adv-x="526" 
d="M319 641h-132l-142 204h137l71 -125l91 125h137z" />
    <glyph glyph-name="breve" unicode="&#x2d8;" horiz-adv-x="452" 
d="M54 810h112q-2 -34 12.5 -54.5t44.5 -20.5q27 0 43.5 21t18.5 54h114q-5 -70 -50.5 -114.5t-132.5 -44.5t-127 44.5t-35 114.5z" />
    <glyph glyph-name="dotaccent" unicode="&#x2d9;" horiz-adv-x="292" 
d="M53 734q0 38 27 65.5t66 27.5q38 0 65.5 -27.5t27.5 -65.5q0 -39 -27.5 -66t-65.5 -27q-39 0 -66 27t-27 66z" />
    <glyph glyph-name="ring" unicode="&#x2da;" horiz-adv-x="376" 
d="M135 727q0 -25 15.5 -38.5t36.5 -13.5q20 0 35 13.5t15 38.5q0 23 -15 35.5t-35 12.5q-19 0 -35.5 -12t-16.5 -36zM38 727q0 55 41.5 91.5t107.5 36.5q64 0 105.5 -36.5t41.5 -91.5q0 -57 -41.5 -94t-105.5 -37t-106.5 37t-42.5 94z" />
    <glyph glyph-name="ogonek" unicode="&#x2db;" horiz-adv-x="293" 
d="M121 37l109 -24q-58 -40 -58 -74q0 -20 21.5 -35t54.5 -22l-34 -95q-78 7 -123.5 50t-45.5 93q0 58 76 107z" />
    <glyph glyph-name="tilde" unicode="&#x2dc;" horiz-adv-x="501" 
d="M175 707q-44 0 -52 -48h-86q8 76 50 114t104 38q41 0 86 -28.5t58 -28.5q22 0 30 12t13 36h85q-16 -152 -144 -152q-30 0 -77.5 28.5t-66.5 28.5z" />
    <glyph glyph-name="hungarumlaut" unicode="&#x2dd;" horiz-adv-x="549" 
d="M163 636h-108l90 213h134zM358 636h-107l120 213h133z" />
    <glyph glyph-name="Delta" unicode="&#x394;" horiz-adv-x="700" 
d="M461 728l192 -728h-687l337 728h158zM373 595l-203 -469h308z" />
    <glyph glyph-name="Delta" unicode="&#x2206;" horiz-adv-x="700" 
d="M461 728l192 -728h-687l337 728h158zM373 595l-203 -469h308z" />
    <glyph glyph-name="Omega" unicode="&#x3a9;" horiz-adv-x="799" 
d="M330 86l-9 -86h-304l9 86h134q-54 53 -83.5 128t-25.5 152q7 161 109.5 266.5t280.5 105.5q110 0 185 -51.5t105.5 -134.5t19.5 -186q-8 -84 -47.5 -157t-104.5 -123h121l-9 -86h-304v5l9 81q77 39 124 111.5t56 158.5q11 107 -32 179.5t-137 72.5q-98 0 -155 -73.5
t-68 -178.5q-18 -163 126 -270z" />
    <glyph glyph-name="Omega" unicode="&#x2126;" horiz-adv-x="799" 
d="M330 86l-9 -86h-304l9 86h134q-54 53 -83.5 128t-25.5 152q7 161 109.5 266.5t280.5 105.5q110 0 185 -51.5t105.5 -134.5t19.5 -186q-8 -84 -47.5 -157t-104.5 -123h121l-9 -86h-304v5l9 81q77 39 124 111.5t56 158.5q11 107 -32 179.5t-137 72.5q-98 0 -155 -73.5
t-68 -178.5q-18 -163 126 -270z" />
    <glyph glyph-name="pi" unicode="&#x3c0;" horiz-adv-x="716" 
d="M40 433l14 132h666l-14 -132h-102l-45 -433h-148l45 432h-167l-45 -432h-148l45 433h-101z" />
    <glyph glyph-name="endash" unicode="&#x2013;" horiz-adv-x="609" 
d="M554 370l-9 -92h-490l9 92h490z" />
    <glyph glyph-name="emdash" unicode="&#x2014;" horiz-adv-x="786" 
d="M731 370l-9 -92h-667l9 92h667z" />
    <glyph glyph-name="quoteleft" unicode="&#x2018;" horiz-adv-x="267" 
d="M130 438q-40 -4 -64 22t-21 68q8 125 153 272l57 -34q-40 -73 -49.5 -120t-2.5 -107q3 -41 -18 -69t-55 -32z" />
    <glyph glyph-name="quoteright" unicode="&#x2019;" horiz-adv-x="317" 
d="M157 775q40 4 64 -22t21 -68q-8 -125 -153 -272l-57 34q40 73 49.5 120t2.5 107q-3 41 18 69t55 32z" />
    <glyph glyph-name="quotesinglbase" unicode="&#x201a;" horiz-adv-x="237" 
d="M107 175q40 4 64 -22t21 -68q-8 -125 -153 -272l-57 34q40 73 49.5 120t2.5 107q-3 41 18 69t55 32z" />
    <glyph glyph-name="quotedblleft" unicode="&#x201c;" horiz-adv-x="466" 
d="M114 429q-40 -4 -64 22t-21 68q8 125 153 272l57 -34q-40 -73 -49.5 -120t-2.5 -107q3 -41 -18 -69t-55 -32zM344 429q-40 -4 -64 22t-21 68q8 125 153 272l57 -34q-40 -73 -49.5 -120t-2.5 -107q3 -41 -18 -69t-55 -32z" />
    <glyph glyph-name="quotedblright" unicode="&#x201d;" horiz-adv-x="464" 
d="M138 776q40 4 64 -22t21 -68q-8 -125 -153 -272l-57 34q40 73 49.5 120t2.5 107q-3 41 18 69t55 32zM368 776q40 4 64 -22t21 -68q-8 -125 -153 -272l-57 34q40 73 49.5 120t2.5 107q-3 41 18 69t55 32z" />
    <glyph glyph-name="quotedblbase" unicode="&#x201e;" horiz-adv-x="464" 
d="M101 148q40 4 64 -22t21 -68q-8 -125 -153 -272l-57 34q40 73 49.5 120t2.5 107q-3 41 18 69t55 32zM331 148q40 4 64 -22t21 -68q-8 -125 -153 -272l-57 34q40 73 49.5 120t2.5 107q-3 41 18 69t55 32z" />
    <glyph glyph-name="dagger" unicode="&#x2020;" horiz-adv-x="568" 
d="M555 527l-9 -86l-196 5l-57 -543h-91l57 543l-191 -5l9 86l190 -6l22 207h91l-22 -207z" />
    <glyph glyph-name="daggerdbl" unicode="&#x2021;" horiz-adv-x="588" 
d="M555 527l-9 -86l-196 5l-26 -251l197 7l-9 -86l-196 5l-23 -218h-91l23 218l-191 -5l9 86l190 -7l26 251l-191 -5l9 86l190 -6l22 207h91l-22 -207z" />
    <glyph glyph-name="bullet" unicode="&#x2022;" horiz-adv-x="508" 
d="M45 348q0 86 61 147.5t148 61.5q86 0 147.5 -61.5t61.5 -147.5q0 -87 -61.5 -148t-147.5 -61q-87 0 -148 61t-61 148z" />
    <glyph glyph-name="ellipsis" unicode="&#x2026;" horiz-adv-x="981" 
d="M87 70q0 41 29.5 71t71.5 30q41 0 71 -30t30 -71q0 -42 -30 -71.5t-71 -29.5q-42 0 -71.5 29.5t-29.5 71.5zM387 70q0 41 29.5 71t71.5 30q41 0 71 -30t30 -71q0 -42 -30 -71.5t-71 -29.5q-42 0 -71.5 29.5t-29.5 71.5zM687 70q0 41 29.5 71t71.5 30q41 0 71 -30t30 -71
q0 -42 -30 -71.5t-71 -29.5q-42 0 -71.5 29.5t-29.5 71.5z" />
    <glyph glyph-name="perthousand" unicode="&#x2030;" horiz-adv-x="1087" 
d="M737 162q-8 -72 28.5 -122t115.5 -51q80 0 125.5 49t53.5 124q7 73 -30 120.5t-114 47.5q-77 -1 -124.5 -48.5t-54.5 -119.5zM840 162q8 82 67 82q33 0 45.5 -24t8.5 -58q-10 -80 -69 -81q-61 0 -52 81zM85 103l47 -48l559 560l-47 49zM159 558q-9 -81 52 -81q59 1 69 81
q4 34 -8 58t-46 24q-59 0 -67 -82zM56 558q7 74 51 120.5t128 47.5q68 0 109.5 -49t34.5 -119q-19 -173 -180 -173q-71 1 -111 52t-32 121zM478 162q-9 -81 52 -81q61 1 69 81q4 34 -8 58t-45 24q-60 0 -68 -82zM375 162q8 75 52 121t128 47q70 0 110.5 -49t32.5 -119
q-19 -173 -179 -173q-72 1 -112 52t-32 121z" />
    <glyph glyph-name="uni2031" unicode="&#x2031;" horiz-adv-x="0" 
 />
    <glyph glyph-name="guilsinglleft" unicode="&#x2039;" horiz-adv-x="331" 
d="M145 88l-120 211l167 211h134l-175 -217l129 -205h-135z" />
    <glyph glyph-name="guilsinglright" unicode="&#x203a;" horiz-adv-x="307" 
d="M292 299l-166 -211h-141l180 217l-127 205h131z" />
    <glyph glyph-name="fraction" unicode="&#x2044;" horiz-adv-x="806" 
d="M47 -45l-77 98l759 761l77 -99z" />
    <glyph glyph-name="zerosuperior" unicode="&#x2070;" horiz-adv-x="311" 
 />
    <glyph glyph-name="foursuperior" unicode="&#x2074;" horiz-adv-x="374" 
 />
    <glyph glyph-name="fivesuperior" unicode="&#x2075;" horiz-adv-x="311" 
 />
    <glyph glyph-name="sixsuperior" unicode="&#x2076;" horiz-adv-x="311" 
 />
    <glyph glyph-name="sevensuperior" unicode="&#x2077;" horiz-adv-x="311" 
 />
    <glyph glyph-name="eightsuperior" unicode="&#x2078;" horiz-adv-x="311" 
 />
    <glyph glyph-name="ninesuperior" unicode="&#x2079;" horiz-adv-x="311" 
 />
    <glyph glyph-name="zeroinferior" unicode="&#x2080;" horiz-adv-x="311" 
 />
    <glyph glyph-name="oneinferior" unicode="&#x2081;" horiz-adv-x="311" 
d="M274 -36l-9 -82h-235l9 82h74l17 170q-10 -5 -34.5 -19t-35.5 -19l-30 78l114 61h98l-28 -271h60z" />
    <glyph glyph-name="twoinferior" unicode="&#x2082;" horiz-adv-x="311" 
d="M269 -32l-9 -86h-258l6 74l47 36q47 36 64.5 51.5t33.5 36t18 39.5q2 16 -7.5 23.5t-30.5 7.5q-30 0 -92 -12l-3 89q52 13 104 14q74 1 107.5 -31t28.5 -79q-8 -78 -132 -163h123z" />
    <glyph glyph-name="threeinferior" unicode="&#x2083;" horiz-adv-x="290" 
d="M63 25l8 73h35q58 1 60 33q3 24 -39 24q-31 0 -84 -11l-4 80q45 14 96 14q66 2 101.5 -24t29.5 -74q-2 -22 -18 -42.5t-41 -31.5q62 -30 56 -86q-5 -47 -44 -77.5t-117 -29.5q-56 1 -102 19l27 79q51 -13 85 -13q49 0 52 29q1 6 -0.5 12t-7.5 12.5t-21 10.5t-37 3h-35z
" />
    <glyph glyph-name="fourinferior" unicode="&#x2084;" horiz-adv-x="374" 
 />
    <glyph glyph-name="fiveinferior" unicode="&#x2085;" horiz-adv-x="311" 
 />
    <glyph glyph-name="sixinferior" unicode="&#x2086;" horiz-adv-x="318" 
 />
    <glyph glyph-name="seveninferior" unicode="&#x2087;" horiz-adv-x="290" 
 />
    <glyph glyph-name="eightinferior" unicode="&#x2088;" horiz-adv-x="311" 
 />
    <glyph glyph-name="nineinferior" unicode="&#x2089;" horiz-adv-x="311" 
 />
    <glyph glyph-name="Euro" unicode="&#x20ac;" 
d="M548 407l-19 -94h-295q1 -52 16 -90t42.5 -59.5t61.5 -31.5t78 -11q53 -1 107 7l15 -126q-70 -12 -134 -12q-83 0 -148 27t-104.5 73t-59.5 102.5t-20 120.5h-81l19 94h72q32 158 137 231.5t247 73.5q67 0 123 -14l-36 -125q-56 9 -99 9q-58 0 -101.5 -17t-68 -46
t-37.5 -55.5t-20 -56.5h305z" />
    <glyph glyph-name="afii61352" unicode="&#x2116;" horiz-adv-x="1220" 
d="M196 0h-147l75 727h141l287 -479l48 479h147l-75 -727h-144l-284 482zM1138 308l-6 -61h-330l6 61h330zM1162 560q-9 -76 -58 -126t-128 -50q-84 2 -122 51t-29 125t58 125.5t130 49.5t119.5 -49.5t29.5 -125.5zM924 560q-11 -102 61 -102q66 0 78 102q7 96 -58 96
q-40 0 -59 -29t-22 -67z" />
    <glyph glyph-name="trademark" unicode="&#x2122;" horiz-adv-x="824" 
d="M226 392h-82l28 268h-107l7 68h294l-7 -68h-105zM424 731h87l58 -206l99 206h89l-6 -339h-77l6 228l-85 -181h-71l-46 182l-40 -229h-76z" />
    <glyph glyph-name="onethird" unicode="&#x2153;" horiz-adv-x="658" 
 />
    <glyph glyph-name="twothirds" unicode="&#x2154;" horiz-adv-x="672" 
 />
    <glyph glyph-name="oneeighth" unicode="&#x215b;" horiz-adv-x="658" 
 />
    <glyph glyph-name="threeeighths" unicode="&#x215c;" horiz-adv-x="665" 
 />
    <glyph glyph-name="fiveeighths" unicode="&#x215d;" horiz-adv-x="663" 
 />
    <glyph glyph-name="seveneighths" unicode="&#x215e;" horiz-adv-x="648" 
 />
    <glyph glyph-name="arrowleft" unicode="&#x2190;" horiz-adv-x="875" 
d="M762 378v-112h-466l197 -193h-149l-218 216v62l218 219h151l-200 -192h467z" />
    <glyph glyph-name="arrowup" unicode="&#x2191;" horiz-adv-x="875" 
d="M492 0h-112v479l-193 -197v149l216 218h62l219 -218v-151l-192 200v-480z" />
    <glyph glyph-name="arrowright" unicode="&#x2192;" horiz-adv-x="875" 
d="M133 266v112h467l-200 192h151l218 -219v-62l-218 -216h-149l197 193h-466z" />
    <glyph glyph-name="arrowdown" unicode="&#x2193;" horiz-adv-x="875" 
d="M380 649h112v-480l192 200v-151l-219 -218h-62l-216 218v149l193 -197v479z" />
    <glyph glyph-name="arrowupleft" unicode="&#x2196;" horiz-adv-x="875" 
d="M740 93l-79 -80l-380 382l6 -279l-108 108v309l46 44l305 -2l106 -105l-276 1z" />
    <glyph glyph-name="arrowupright" unicode="&#x2197;" horiz-adv-x="875" 
d="M255 15l-80 80l382 380l-279 -6l108 108h309l45 -46l-2 -305l-106 -107l1 277z" />
    <glyph glyph-name="arrowdownright" unicode="&#x2198;" horiz-adv-x="875" 
d="M174 489l79 80l380 -382l-6 279l108 -108v-309l-46 -44l-305 2l-106 105l276 -1z" />
    <glyph glyph-name="arrowdownleft" unicode="&#x2199;" horiz-adv-x="875" 
d="M666 569l79 -80l-380 -378l276 1l-106 -105l-305 -2l-46 44v309l108 108l-6 -279z" />
    <glyph glyph-name="product" unicode="&#x220f;" horiz-adv-x="728" 
d="M606 0h-148l63 595h-295l-63 -595h-148l76 728h592z" />
    <glyph glyph-name="summation" unicode="&#x2211;" horiz-adv-x="569" 
d="M500 135l-14 -135h-451l15 137l244 226l-197 222l13 126h451l-13 -127h-275l160 -175l-10 -99l-191 -175h268z" />
    <glyph glyph-name="minus" unicode="&#x2212;" 
d="M562 371l-11 -106h-522l11 106h522z" />
    <glyph glyph-name="radical" unicode="&#x221a;" horiz-adv-x="792" 
d="M418 -6h-154l-134 485h-120l9 86l231 1l103 -416l305 668h154z" />
    <glyph glyph-name="infinity" unicode="&#x221e;" horiz-adv-x="747" 
d="M738 323q-6 -49 -30 -85t-55 -53.5t-59.5 -25t-51.5 -6.5q-109 6 -177 100q-54 -54 -102 -78.5t-114 -22.5q-70 2 -108.5 51.5t-32.5 114.5q8 86 63 131.5t115 45.5q63 0 106.5 -28t83.5 -85q105 120 208 120q26 0 51.5 -7.5t52.5 -25.5t41.5 -56t8.5 -90zM568 401
q-32 0 -68 -27t-58 -58q45 -66 107 -65q37 1 56.5 21.5t23.5 53.5q3 31 -13 53t-48 22zM171 249q36 0 64.5 15.5t65.5 53.5q-56 82 -114 82q-37 0 -55 -24t-21 -55q-3 -27 12.5 -49.5t47.5 -22.5z" />
    <glyph glyph-name="integral" unicode="&#x222b;" horiz-adv-x="434" 
d="M127 65l56 532q8 80 53.5 127.5t135.5 47.5q47 0 96 -5l-27 -124q-52 6 -81 0q-34 -6 -39 -57l-60 -572q-9 -91 -57 -140.5t-173 -54.5q-17 -1 -65 3l20 125q52 0 67 1q16 1 27.5 5t19.5 15.5t12 17.5t7.5 26t4 24.5t3.5 28.5z" />
    <glyph glyph-name="approxequal" unicode="&#x2248;" 
d="M424 392q29 0 37 34.5t7 88.5h119q2 -106 -37 -167.5t-124 -61.5q-43 0 -84 20t-67 43.5t-55 43.5t-51 20q-19 0 -30.5 -13t-14.5 -26.5t-5 -35.5h-116q0 88 42 141t123 53q38 0 76.5 -22t65 -48t58 -48t56.5 -22zM425 166q46 0 44 89h119q2 -93 -41 -144t-120 -51
q-43 0 -84 20t-67 43.5t-55 43.5t-51 20q-17 0 -27.5 -8t-15 -22.5t-5.5 -27t-1 -31t-1 -24.5h-116q0 231 165 231q38 0 76.5 -21.5t65 -48t58 -48t56.5 -21.5z" />
    <glyph glyph-name="notequal" unicode="&#x2260;" 
d="M571 477l-11 -106h-200l-55 -118h243l-11 -106h-281l-60 -126h-78l60 126h-163l11 106h201l55 118h-244l11 106h283l82 172h78l-82 -172h161z" />
    <glyph glyph-name="lessequal" unicode="&#x2264;" 
d="M539 148l-16 -147h-522l11 106h382l-347 163l9 83l527 237l-12 -118l-362 -160z" />
    <glyph glyph-name="greaterequal" unicode="&#x2265;" 
d="M562 105l-11 -106h-522l17 149l364 170l-328 160l12 112l478 -237l-8 -83l-386 -165h384z" />
    <glyph glyph-name="lozenge" unicode="&#x25ca;" horiz-adv-x="613" 
d="M373 713l190 -352l-263 -361h-68l-182 359l255 354h68zM331 573l-150 -223l92 -208l157 229z" />
    <glyph glyph-name="smileface" unicode="&#x263a;" horiz-adv-x="791" 
d="M45 331q0 145 103 248t248 103t247.5 -103t102.5 -248t-102.5 -247.5t-247.5 -102.5t-248 102.5t-103 247.5zM233 467q0 -21 14.5 -35t35.5 -14q20 0 34.5 14t14.5 35t-14.5 35.5t-34.5 14.5t-35 -14.5t-15 -35.5zM473 467q0 -21 14.5 -35t35.5 -14q20 0 34.5 14t14.5 35
t-14.5 35.5t-34.5 14.5t-35 -14.5t-15 -35.5zM202 326l-42 -8q0 -99 68.5 -170t173.5 -71q101 0 171 71.5t70 169.5l-42 8q0 -92 -60 -146.5t-139 -54.5q-81 0 -140.5 54t-59.5 147z" />
    <glyph glyph-name="uni2776" unicode="&#x2776;" horiz-adv-x="1099" 
d="M100 323q0 186 131.5 318t317.5 132q185 0 317.5 -132.5t132.5 -317.5q0 -186 -132 -317.5t-318 -131.5q-187 0 -318 131t-131 318zM360 58h319l12 105h-95l49 454h-99l-175 -93l40 -89l99 51l-34 -323h-105z" />
    <glyph glyph-name="uni2777" unicode="&#x2777;" horiz-adv-x="1099" 
d="M100 323q0 186 131.5 318t317.5 132q185 0 317.5 -132.5t132.5 -317.5q0 -186 -132 -317.5t-318 -131.5q-187 0 -318 131t-131 318zM708 66l11 109h-200q112 93 162 159t57 136q7 66 -43 113.5t-157 45.5q-51 -1 -137 -17l8 -104q74 15 127 15q40 0 61.5 -16.5
t17.5 -48.5q-6 -53 -62.5 -115.5t-202.5 -189.5l-8 -87h366z" />
    <glyph glyph-name="uni2778" unicode="&#x2778;" horiz-adv-x="1099" 
d="M100 323q0 186 131.5 318t317.5 132q185 0 317.5 -132.5t132.5 -317.5q0 -186 -132 -317.5t-318 -131.5q-187 0 -318 131t-131 318zM462 395l-11 -104h36q47 1 77.5 -7t42.5 -22.5t15.5 -27.5t1.5 -28q-7 -71 -110 -68q-69 2 -135 17l-34 -103q84 -20 157 -21
q123 -1 179.5 48t65.5 119q16 107 -94 151q94 35 105 130q9 70 -40 114t-163 42q-66 -1 -146 -20l7 -105q80 16 129 16q91 0 86 -51q-7 -78 -133 -81z" />
    <glyph glyph-name="uni2779" unicode="&#x2779;" horiz-adv-x="1099" 
d="M100 323q0 186 131.5 318t317.5 132q185 0 317.5 -132.5t132.5 -317.5q0 -186 -132 -317.5t-318 -131.5q-187 0 -318 131t-131 318zM520 41h115l16 154h88l10 95h-88l36 340l-144 1l-266 -353l-8 -83h258zM548 288h-138l161 224z" />
    <glyph glyph-name="uni277A" unicode="&#x277a;" horiz-adv-x="1099" 
d="M100 323q0 186 131.5 318t317.5 132q185 0 317.5 -132.5t132.5 -317.5q0 -186 -132 -317.5t-318 -131.5q-187 0 -318 131t-131 318zM373 298h103q67 0 95.5 -20t24.5 -64q-10 -68 -88 -68q-80 0 -153 21l-37 -112q90 -24 174 -23q106 1 166 53.5t69 138.5q9 94 -58 141.5
t-172 32.5l12 116h216l13 118h-330z" />
    <glyph glyph-name="uni277B" unicode="&#x277b;" horiz-adv-x="1099" 
d="M100 323q0 186 131.5 318t317.5 132q185 0 317.5 -132.5t132.5 -317.5q0 -186 -132 -317.5t-318 -131.5q-187 0 -318 131t-131 318zM513 132q-88 0 -82 165q3 118 53 174t130 57q51 0 95 -10l25 99q-46 13 -107 13q-79 0 -139.5 -28t-96.5 -76.5t-55.5 -105t-24.5 -121.5
q-4 -15 -1.5 -40.5t5.5 -55.5t17.5 -61t34.5 -56t57 -41t86 -16q95 0 151 49t64 132q9 81 -35 134.5t-134 53.5q-50 0 -84 -17l-6 -96q47 14 76 14q71 0 62 -80q-9 -87 -91 -87z" />
    <glyph glyph-name="uni277C" unicode="&#x277c;" horiz-adv-x="1099" 
d="M100 323q0 186 131.5 318t317.5 132q185 0 317.5 -132.5t132.5 -317.5q0 -186 -132 -317.5t-318 -131.5q-187 0 -318 131t-131 318zM388 28h130l244 470l10 94h-385l-11 -106h261z" />
    <glyph glyph-name="uni277D" unicode="&#x277d;" horiz-adv-x="1099" 
d="M100 323q0 186 131.5 318t317.5 132q185 0 317.5 -132.5t132.5 -317.5q0 -186 -132 -317.5t-318 -131.5q-187 0 -318 131t-131 318zM509 29q60 0 105.5 16t71 42t38.5 51t17 50q8 59 -17 100.5t-71 61.5q42 18 70 53.5t32 78.5q3 25 -4.5 50.5t-26 50t-57 40t-91.5 15.5
q-79 0 -142 -40t-71 -117q-5 -49 16.5 -87t65.5 -58q-56 -21 -88.5 -61.5t-34.5 -81.5q-2 -27 3.5 -51.5t22.5 -51.5t58.5 -43.5t102.5 -17.5zM626 202q-13 -70 -106 -70q-36 0 -59.5 16.5t-20.5 50.5q0 59 88 94q41 -5 72.5 -29t25.5 -62zM480 477q3 32 27.5 47.5
t58.5 15.5q33 0 53 -16t17 -51q-8 -59 -80 -87q-47 13 -62.5 39t-13.5 52z" />
    <glyph glyph-name="uni277E" unicode="&#x277e;" horiz-adv-x="1099" 
d="M100 323q0 186 131.5 318t317.5 132q185 0 317.5 -132.5t132.5 -317.5q0 -186 -132 -317.5t-318 -131.5q-187 0 -318 131t-131 318zM560 524q61 -3 74.5 -68.5t-7.5 -170.5q-30 -147 -151 -151q-34 -1 -104 8l-22 -94q59 -20 141 -18q229 4 265 303q3 25 3.5 46t-0.5 58
t-12.5 66t-30.5 58t-55 46t-86 19q-90 5 -153 -44t-78 -138q-13 -78 29 -134.5t127 -60.5q47 -2 88 15l15 92q-31 -11 -75 -11q-35 1 -51.5 28.5t-10.5 63.5q8 46 29.5 67t64.5 20z" />
    <glyph glyph-name="uni277F" unicode="&#x277f;" horiz-adv-x="1099" 
d="M100 323q0 186 131.5 318t317.5 132q185 0 317.5 -132.5t132.5 -317.5q0 -186 -132 -317.5t-318 -131.5q-187 0 -318 131t-131 318zM774 326q31 302 -196 305q-115 -1 -182 -86.5t-81 -218.5q-13 -134 35.5 -216.5t161.5 -83.5q112 1 180.5 84t81.5 216zM444 326
q6 53 18.5 96t39.5 75.5t64 33.5q38 -1 59.5 -33t24 -77t-1.5 -95q-9 -83 -39.5 -139t-86.5 -57q-98 3 -78 196z" />
    <glyph glyph-name="endash.case" horiz-adv-x="609" 
d="M554 401l-9 -92h-490l9 92h490z" />
    <glyph glyph-name="emdash.case" horiz-adv-x="786" 
d="M731 400l-9 -92h-667l9 92h667z" />
    <glyph glyph-name="asciitilde.case" 
d="M418 353q17 0 29.5 10.5t19.5 33t9.5 35.5t6.5 41h100q-17 -221 -176 -221q-39 0 -76.5 21.5t-61.5 47.5t-50.5 47.5t-46.5 21.5q-12 0 -21.5 -4.5t-16 -14.5t-11.5 -18t-8.5 -23t-5 -21.5t-3.5 -22t-2 -16.5h-99q23 223 189 223q34 0 68 -22t56.5 -48t49.5 -48t50 -22z
" />
    <glyph glyph-name="A_Accent" horiz-adv-x="575" 
d="M-62 0l297 628h165l171 -628h-151l-29 115h-254l-53 -115h-146zM358 245l-55 247l-109 -247h164z" />
    <glyph glyph-name="grave_Versal" horiz-adv-x="404" 
d="M323 665h-135l-120 171l159 -1z" />
    <glyph glyph-name="acute_Versal" horiz-adv-x="500" 
d="M263 665h-135l96 170l159 1z" />
    <glyph glyph-name="circumflex_Versal" horiz-adv-x="458" 
d="M288 665l-54 91l-73 -92h-137l144 181h142l115 -180h-137z" />
    <glyph glyph-name="E_Accent" horiz-adv-x="575" 
d="M496 130l-13 -130h-445l65 623h445l-13 -127h-293l-12 -110h256l-14 -134h-256l-13 -122h293z" />
    <glyph glyph-name="O_Accent" horiz-adv-x="778" 
d="M35 317q6 61 28 114t62.5 100.5t109.5 75.5t159 28q79 0 140 -29t94.5 -76t48 -102t8.5 -111q-16 -147 -105 -240t-255 -93q-150 0 -227.5 96.5t-62.5 236.5zM530 317q9 83 -27 138.5t-123 55.5q-46 0 -82.5 -19.5t-57.5 -50t-33 -62t-15 -62.5q-9 -89 23.5 -148.5
t121.5 -59.5q88 0 136 60.5t57 147.5z" />
    <glyph glyph-name="periodcentered.case" horiz-adv-x="392" 
d="M95 320q0 41 29.5 71t71.5 30q41 0 71 -30t30 -71q0 -42 -30 -71.5t-71 -29.5q-42 0 -71.5 29.5t-29.5 71.5z" />
    <glyph glyph-name="one.pnum_onum" horiz-adv-x="411" 
d="M300 1h-152l43 392l-125 -64l-51 113l222 117h124z" />
    <glyph glyph-name="two.pnum_onum" horiz-adv-x="567" 
d="M480 138l-14 -138h-446l13 121q168 89 232 143.5t70 104.5q4 42 -22 58.5t-74 16.5q-55 0 -164 -19l-4 127q98 24 185 25q71 1 120.5 -14t74.5 -43.5t34 -62t5 -73.5q-4 -44 -27 -84.5t-57 -71t-69 -53t-71 -37.5h214z" />
    <glyph glyph-name="three.pnum_onum" horiz-adv-x="565" 
d="M128 138l13 126l44 -1q151 3 160 97q3 33 -27 47.5t-77 14.5q-60 0 -155 -19l-8 126q98 23 176 24q136 3 195.5 -50.5t48.5 -137.5q-6 -51 -37 -93t-90 -64q134 -52 114 -181q-4 -30 -14 -57t-32.5 -54.5t-54 -47t-82 -32t-113.5 -11.5q-87 1 -189 26l41 124
q84 -19 163 -21q123 -3 133 82q3 18 -1.5 34t-19 33t-51.5 26.5t-93 8.5h-44z" />
    <glyph glyph-name="four.pnum_onum" 
d="M445 -186h-139l20 187h-313l10 100l323 428l174 -1l-43 -412h106l-12 -115h-106zM172 113h167l29 272z" />
    <glyph glyph-name="five.pnum_onum" horiz-adv-x="580" 
d="M213 167h-123l42 399h394l-15 -141h-258l-14 -139q126 18 206 -38.5t68 -168.5q-11 -103 -82.5 -166t-198.5 -64q-100 -1 -207 28l44 133q89 -24 183 -24q31 0 53.5 9.5t32.5 25t14 26t5 20.5q5 52 -29.5 76t-114.5 24z" />
    <glyph glyph-name="six.pnum_onum" 
d="M282 112q50 0 78 28.5t33 76.5q10 98 -76 98q-34 0 -92 -17l7 116q40 21 103 21q109 0 162 -65t43 -163q-10 -101 -77.5 -160.5t-183.5 -59.5q-51 0 -92 14.5t-66 38t-44 54t-26 62.5t-13 63t-3.5 55.5t1.5 40.5q6 79 30 147.5t68 127.5t117.5 93t169.5 34q74 0 130 -16
l-30 -120q-57 12 -116 12q-97 -1 -158 -69.5t-65 -211.5q-6 -200 100 -200z" />
    <glyph glyph-name="seven.pnum_onum" horiz-adv-x="563" 
d="M218 -163h-157l315 582h-331l14 134h482l-12 -120z" />
    <glyph glyph-name="eight.pnum_onum" 
d="M249 -12q-73 1 -122.5 21t-70.5 52.5t-27.5 62t-3.5 61.5q2 49 41.5 97.5t105.5 73.5q-52 23 -78 69t-20 105q10 92 85.5 140.5t170.5 48.5q51 0 91.5 -12.5t64 -32t38 -45.5t19 -50t1.5 -48q-5 -51 -38.5 -93.5t-83.5 -64.5q55 -25 85 -74t20 -120q-4 -24 -13.5 -47.5
t-31 -50t-51 -46.5t-77 -33.5t-105.5 -13.5zM390 195q7 46 -31 74.5t-87 35.5q-104 -43 -106 -113q-3 -41 25.5 -61t71.5 -20q51 0 84 17.5t43 66.5zM215 525q-1 -13 1.5 -26t10.5 -29.5t28.5 -31t50.5 -22.5q87 33 95 104q4 42 -19.5 61.5t-63.5 19.5t-70 -19t-33 -57z" />
    <glyph glyph-name="zero.pnum_onum" horiz-adv-x="606" 
d="M538 281q-13 -131 -81 -211.5t-206 -80.5q-119 1 -173 85t-40 207q9 82 39 144t93 103t153 42q120 0 174 -75.5t41 -213.5zM186 281q-8 -69 9.5 -116t66.5 -48q61 1 88.5 41t37.5 123q18 169 -75 169q-55 -1 -86.5 -46.5t-40.5 -122.5z" />
    <glyph glyph-name="nine.pnum_onum" horiz-adv-x="576" 
d="M266 431q-52 2 -78 -23.5t-36 -81.5q-7 -45 13 -78t63 -34q52 -2 91 13l-18 -112q-48 -20 -107 -18q-103 4 -154 73t-36 164q18 109 94.5 168.5t186.5 53.5q52 -2 92 -19.5t64 -41.5t39.5 -58.5t22 -65t7.5 -68t-0.5 -58.5t-4.5 -46q-7 -54 -17 -97.5t-33.5 -96
t-56.5 -88.5t-88.5 -61t-126.5 -26q-102 -2 -172 22l27 115q79 -11 127 -10q76 3 120.5 48.5t62.5 135.5q13 87 15 150t-21.5 100t-75.5 40z" />
    <glyph glyph-name="questiondown.case" horiz-adv-x="547" 
d="M397 460l-10 -151q-46 -15 -67 -23t-48 -23.5t-39.5 -36t-15.5 -49.5q-4 -36 20.5 -51t67.5 -15q53 0 150 21l27 -121q-115 -25 -189 -26q-65 -2 -113.5 16.5t-72.5 48.5t-34 62t-7 63q8 78 63.5 131.5t124.5 72.5l14 81h129zM442 633q0 -41 -29.5 -71t-71.5 -30
q-41 0 -71 30t-30 71q0 42 30 71.5t71 29.5q42 0 71.5 -29.5t29.5 -71.5z" />
    <glyph glyph-name="exclamdown.case" horiz-adv-x="368" 
d="M125 462h124l-37 -510h-157zM293 641q0 -38 -27 -65.5t-66 -27.5q-38 0 -65 27.5t-27 65.5t27 65t65 27q39 0 66 -27t27 -65z" />
    <glyph glyph-name="caron_Versal" horiz-adv-x="491" 
d="M324 665h-142l-137 180h137l71 -108l91 108h137z" />
    <glyph glyph-name="I_Accent" horiz-adv-x="382" 
d="M330 116l-12 -116h-321l11 116h85l41 394h-83l12 117h318l-12 -117h-83l-41 -394h85z" />
    <glyph glyph-name="U_Accent" horiz-adv-x="694" 
d="M274 624l-38 -362q-8 -80 17 -113t91 -33q69 0 94.5 32t34.5 114l38 362h153l-40 -378q-13 -129 -81.5 -193t-210.5 -64q-145 0 -205.5 64.5t-46.5 192.5l40 378h154z" />
    <glyph glyph-name="braceleft.case" horiz-adv-x="351" 
d="M201 228l-16 -151q-3 -31 5.5 -51t28.5 -29.5t37.5 -13t44.5 -4.5l-8 -88q-116 0 -170.5 47.5t-44.5 141.5l17 157q4 40 -20.5 64.5t-69.5 24.5l8 77q43 2 72.5 25.5t33.5 55.5l14 133q10 101 86 156t192 50l-16 -96q-54 6 -101 -19.5t-54 -87.5l-13 -127
q-9 -81 -81 -126q37 -19 49 -50t6 -89z" />
    <glyph glyph-name="braceright.case" horiz-adv-x="333" 
d="M88 83l16 146q6 58 24.5 89t58.5 50q-62 45 -53 126l13 127q5 42 -17.5 68t-51 33t-64.5 7l6 98q117 0 180.5 -54t53.5 -155l-14 -133q-4 -32 20.5 -55.5t67.5 -25.5l-8 -77q-45 0 -74.5 -24.5t-33.5 -64.5l-17 -157q-20 -189 -255 -189l12 95q28 1 45.5 4.5t39.5 12.5
t35 28.5t16 50.5z" />
    <glyph glyph-name="N_Accent" horiz-adv-x="778" 
d="M221 0h-156l65 626h143l220 -371l39 370h155l-65 -625h-142l-221 364z" />
    <glyph glyph-name="Y_Accent" horiz-adv-x="576" 
d="M320 0h-154l24 231l-181 396h163l112 -256l158 256h164l-263 -398z" />
    <glyph glyph-name="fl.alt" horiz-adv-x="721" 
d="M650 124l31 -107q-54 -23 -110 -24q-173 5 -156 192l57 467l-1 -1q-83 5 -111 5q-96 -4 -105 -81l-2 -20h116l-12 -108h-116l-65 -607h-140l65 607h-91l12 108h91l2 21q21 199 264 199q90 0 194 -13h53l-58 -566q-7 -41 -1 -60t36 -19q26 0 47 7z" />
    <glyph glyph-name="guilsinglleft.case" horiz-adv-x="331" 
d="M145 88l-120 211l167 211h134l-175 -217l129 -205h-135z" />
    <glyph glyph-name="guilsinglright.case" horiz-adv-x="307" 
d="M292 349l-166 -211h-141l180 217l-127 205h131z" />
    <glyph glyph-name="bracketleft.case" horiz-adv-x="296" 
d="M356 808l-11 -98h-144l-75 -719h144l-11 -99h-259l96 916h260z" />
    <glyph glyph-name="bracketright.case" horiz-adv-x="296" 
d="M25 710l11 98h260l-97 -916h-259l11 99h142l75 719h-143z" />
    <glyph glyph-name="parenleft.case" horiz-adv-x="317" 
d="M127 352q-14 -129 24 -256.5t111 -198.5h-132q-68 86 -97.5 211t-18.5 238q13 126 70 261t149 218h144q-96 -70 -166.5 -206.5t-83.5 -266.5z" />
    <glyph glyph-name="parenright.case" horiz-adv-x="295" 
d="M170 351q13 131 -29 267t-123 206h135q71 -86 106 -225t22 -254q-13 -118 -63 -241t-134 -208h-144q87 71 151.5 198t78.5 257z" />
    <glyph glyph-name="plus.case" 
d="M28 310l11 107h205l22 207h111l-22 -207h205l-11 -107h-205l-22 -207h-111l22 207h-205z" />
    <glyph glyph-name="hyphen.case" horiz-adv-x="499" 
d="M456 432l-13 -102h-400l13 102h400z" />
    <glyph glyph-name="S_Accent" horiz-adv-x="565" 
d="M50 28l36 129q120 -35 180 -35q89 0 91 43q1 22 -29 43t-120 63q-80 38 -116 82t-36 109q0 67 60 115t184 48q92 0 191 -26l-25 -129q-122 24 -167 24q-88 0 -88 -38q0 -26 23 -42t106 -51q93 -40 135 -88.5t41 -114.5q-5 -171 -251 -171q-109 0 -215 39z" />
    <glyph glyph-name="guillemotleft.case" horiz-adv-x="562" 
d="M375 138l-120 211l167 211h135l-175 -217l131 -205h-138zM145 138l-120 211l167 211h134l-177 -217l129 -205h-133z" />
    <glyph glyph-name="guillemotright.case" horiz-adv-x="540" 
d="M158 560l137 -211l-169 -211h-141l181 217l-137 205h129zM388 560l137 -211l-169 -211h-140l183 217l-135 205h124z" />
    <glyph glyph-name="Dot_minus" horiz-adv-x="1099" 
d="M99 323q0 186 131.5 318t317.5 132q185 0 317.5 -132.5t132.5 -317.5q0 -186 -132 -317.5t-318 -131.5q-187 0 -318 131t-131 318zM810 390h-529l-12 -119h529z" />
    <glyph glyph-name="Dot_question" horiz-adv-x="1099" 
d="M1008 323q0 -186 -132 -317.5t-318 -131.5q-187 0 -318 131t-131 318q0 186 131.5 318t317.5 132q185 0 317.5 -132.5t132.5 -317.5zM485 306l-11 -103h106l6 59q86 48 124.5 92.5t44.5 101.5q2 18 0 37.5t-12.5 44.5t-30 44t-56.5 31t-87 11q-78 -1 -149 -15l5 -98
q94 15 139 15q53 0 74 -17t17 -55t-46 -73t-124 -75zM448 67q-1 -32 19.5 -52.5t52.5 -20.5t53 20.5t22 52.5q-1 32 -22 53t-53 21t-52.5 -21t-19.5 -53z" />
    <glyph glyph-name="Dot_close" horiz-adv-x="1099" 
d="M99 323q0 186 131.5 318t317.5 132q185 0 317.5 -132.5t132.5 -317.5q0 -186 -132 -317.5t-318 -131.5q-187 0 -318 131t-131 318zM378 582l-75 -71l167 -186l-196 -177l68 -72l196 177l156 -179l76 70l-158 180l214 190l-68 72l-213 -191z" />
    <glyph glyph-name="Dot_plus" horiz-adv-x="1099" 
d="M628 604h-119l-23 -214h-205l-12 -119h205l-21 -196h119l21 196h205l12 119h-205zM99 323q0 186 131.5 318t317.5 132q185 0 317.5 -132.5t132.5 -317.5q0 -186 -132 -317.5t-318 -131.5q-187 0 -318 131t-131 318z" />
    <glyph glyph-name="Dot_right" horiz-adv-x="1099" 
d="M760 333l-278 270l-57 -539zM99 323q0 186 131.5 318t317.5 132q185 0 317.5 -132.5t132.5 -317.5q0 -186 -132 -317.5t-318 -131.5q-187 0 -318 131t-131 318z" />
    <glyph glyph-name="Dot_left" horiz-adv-x="1099" 
d="M679 603l-336 -270l279 -269zM119 323q0 186 131.5 318t317.5 132q185 0 317.5 -132.5t132.5 -317.5q0 -186 -132 -317.5t-318 -131.5q-187 0 -318 131t-131 318z" />
    <glyph glyph-name="Dot_Send" horiz-adv-x="2458" 
d="M450 739h1500q106 0 193 -57.5t135.5 -152t48.5 -202.5t-48.5 -202t-135.5 -151.5t-193 -57.5h-1500q-106 0 -194 57.5t-137.5 151.5t-49.5 202t49.5 202.5t137.5 152t194 57.5zM1714 571l-50 -477q120 -3 152 -3q112 0 181.5 65t80.5 173q11 112 -47.5 178t-177.5 66
q-75 0 -139 -2zM1143 94h84l35 333l210 -333h78l50 475h-84l-35 -329l-207 329h-81zM1050 94l8 78h-208l14 133h185l9 81h-185l11 107h208l8 79h-290l-50 -478h290zM383 188l-30 -78q62 -24 142 -24q51 0 88.5 14t56.5 37t27.5 42t11.5 38q6 50 -20.5 83t-88.5 65
q-77 40 -88 50q-17 15 -15 35q2 19 24 31.5t56 12.5q44 0 118 -14l25 82q-62 15 -134 15q-82 0 -125.5 -40t-47.5 -84q-6 -55 19.5 -86t82.5 -58q62 -28 84.5 -49.5t19.5 -41.5q-7 -50 -84 -50q-57 0 -122 20zM1831 493q93 0 131 -40.5t30 -123.5q-16 -158 -186 -158
q-34 0 -50 1l34 321h41z" />
    <glyph glyph-name="kreska" horiz-adv-x="279" 
d="M154 636h-109l61 212h128z" />
    <glyph glyph-name="C_Accent" horiz-adv-x="613" 
d="M528 149l28 -127q-99 -35 -223 -35q-148 0 -225 84.5t-66 234.5q11 158 102.5 243t256.5 85q91 0 181 -31l-40 -130q-70 23 -154 23q-85 0 -135.5 -52t-56.5 -138q-6 -89 34 -135t118 -48q83 -1 180 26z" />
    <glyph glyph-name="H_Accent" horiz-adv-x="707" 
d="M595 0h-149l27 255h-247l-27 -255h-149l67 628h149l-25 -233h247l25 233h149z" />
    <glyph glyph-name="R_Accent" horiz-adv-x="656" 
d="M197 0h-147l66 626h116t96 1q129 3 205 -43t66 -155q-13 -150 -148 -198l132 -231h-173l-101 201h-91zM452 424q5 41 -26 59.5t-101 17.5h-75l-19 -176h85q74 0 102.5 26t33.5 73z" />
    <glyph glyph-name="T_Accent" horiz-adv-x="550" 
d="M325 0h-159l51 488h-172l14 138h506l-14 -138h-175z" />
    <glyph glyph-name="D_Accent" horiz-adv-x="681" 
d="M50 0l65 624q96 4 210 4q151 0 239.5 -84t73.5 -232q-33 -314 -349 -314q-77 0 -239 2zM294 500q-25 0 -42 -1l-39 -374h56q47 0 79.5 6.5t64.5 25t51 57t25 98.5q5 51 -4.5 87.5t-26.5 55.5t-47.5 29.5t-55.5 13t-61 2.5z" />
    <glyph glyph-name="comma_Accent" horiz-adv-x="301" 
d="M157 -17q34 3 53.5 -19.5t19.5 -58.5q0 -51 -31 -108t-91 -108l-49 29q30 61 36.5 100.5t-1.5 76.5q-3 36 15.5 60t47.5 28z" />
    <glyph glyph-name="G_Accent" horiz-adv-x="628" 
d="M588 377l-36 -352q-105 -38 -219 -35q-91 2 -158.5 35.5t-105 106t-26.5 174.5q16 159 111.5 243.5t239.5 84.5q88 0 191 -30l-40 -130q-84 24 -164 22q-81 -1 -129.5 -54.5t-57.5 -135.5q-10 -90 28 -139t123 -49q34 0 79 8l13 130h-108l13 121h246z" />
    <glyph glyph-name="zero.pnum_lnum" 
d="M571 345q-16 -160 -98.5 -260t-217.5 -101q-92 1 -149.5 49.5t-77.5 127.5t-10 184q17 160 97.5 263t219.5 104q75 -1 127.5 -30.5t76.5 -79.5t33 -116t-1 -141zM173 345q-4 -60 -1 -112t27.5 -87t68.5 -36q67 1 104 68t47 167q4 61 1.5 115t-28 92.5t-71.5 39.5
q-45 -1 -78 -40t-48 -91t-22 -116z" />
    <glyph glyph-name="one.pnum_lnum" horiz-adv-x="491" 
d="M315 0h-152l58 540l-125 -64l-51 113l222 117h124z" />
    <glyph glyph-name="two.pnum_lnum" horiz-adv-x="566" 
d="M490 138l-14 -138h-466l11 111q185 161 257.5 240t79.5 147q4 40 -23 61.5t-78 21.5q-68 0 -162 -19l-10 132q114 20 175 21q70 1 123 -16t81.5 -46.5t41 -65t8.5 -74.5q-10 -89 -73 -173t-205 -202h254z" />
    <glyph glyph-name="three.pnum_lnum" horiz-adv-x="569" 
d="M132 302l13 126l44 -1q151 3 160 97q3 33 -27 47.5t-77 14.5q-60 0 -155 -19l-8 126q98 23 176 24q136 3 195.5 -50.5t48.5 -137.5q-6 -51 -37 -93t-90 -64q134 -52 114 -181q-4 -30 -14 -57t-32.5 -54.5t-54 -47t-82 -32t-113.5 -11.5q-87 1 -189 26l41 124
q84 -19 163 -21q123 -3 133 82q3 18 -1.5 34t-19 33t-51.5 26.5t-93 8.5h-44z" />
    <glyph glyph-name="four.pnum_lnum" 
d="M437 0h-139l20 187h-313l10 100l323 428l174 -1l-43 -412h106l-12 -115h-106zM164 299h167l29 272z" />
    <glyph glyph-name="five.pnum_lnum" horiz-adv-x="560" 
d="M193 307h-123l42 399h394l-15 -141h-258l-14 -139q126 18 206 -38.5t68 -168.5q-11 -103 -82.5 -166t-198.5 -64q-100 -1 -207 28l44 133q89 -24 183 -24q31 0 53.5 9.5t32.5 25t14 26t5 20.5q5 52 -29.5 76t-114.5 24z" />
    <glyph glyph-name="six.pnum_lnum" horiz-adv-x="581" 
d="M273 112q50 0 78 28.5t33 76.5q10 98 -76 98q-34 0 -92 -17l7 116q41 21 103 21q109 0 162 -65t43 -163q-10 -101 -77.5 -160.5t-183.5 -59.5q-51 0 -92 14.5t-66 38t-44 54t-26 62.5t-13 63t-3.5 55.5t1.5 40.5q6 79 30 147.5t68 127.5t117.5 93t169.5 34q74 0 130 -16
l-30 -120q-57 12 -116 12q-97 -1 -158 -69.5t-65 -211.5q-6 -200 100 -200z" />
    <glyph glyph-name="seven.pnum_lnum" horiz-adv-x="566" 
d="M228 -1h-157l315 582h-331l14 134h482l-12 -120z" />
    <glyph glyph-name="eight.pnum_lnum" 
d="M249 -12q-73 1 -122.5 21t-70.5 52.5t-27.5 62t-3.5 61.5q2 49 41.5 97.5t105.5 73.5q-52 23 -78 69t-20 105q10 92 85.5 140.5t170.5 48.5q51 0 91.5 -12.5t64 -32t38 -45.5t19 -50t1.5 -48q-5 -51 -38.5 -93.5t-83.5 -64.5q55 -25 85 -74t20 -120q-4 -24 -13.5 -47.5
t-31 -50t-51 -46.5t-77 -33.5t-105.5 -13.5zM390 195q7 46 -31 74.5t-87 35.5q-104 -43 -106 -113q-3 -41 25.5 -61t71.5 -20q51 0 84 17.5t43 66.5zM215 525q-1 -13 1.5 -26t10.5 -29.5t28.5 -31t50.5 -22.5q87 33 95 104q4 42 -19.5 61.5t-63.5 19.5t-70 -19t-33 -57z" />
    <glyph glyph-name="nine.tnum_onum" 
d="M313 431q-52 2 -78 -23.5t-36 -81.5q-7 -45 13 -78t63 -34q52 -2 91 13l-18 -112q-48 -20 -107 -18q-103 4 -154 73t-36 164q18 109 94.5 168.5t186.5 53.5q52 -2 92.5 -19.5t64.5 -41.5t40 -58.5t22.5 -65t8 -67.5t0 -59t-4.5 -46q-45 -363 -325 -369q-102 -2 -172 22
l27 115q79 -11 127 -10q76 3 120.5 48.5t62.5 135.5q13 87 15 150t-21.5 100t-75.5 40z" />
    <glyph glyph-name="one.tnum_onum" 
d="M524 126l-15 -126h-432l15 126h148l29 266l-125 -64l-51 113l222 117h124l-47 -432h132z" />
    <glyph glyph-name="two.tnum_onum" horiz-adv-x="580" 
d="M515 138l-14 -138h-446l13 121q168 89 232 143.5t70 104.5q4 42 -22 58.5t-74 16.5q-55 0 -164 -19l-4 127q98 24 185 25q71 1 120.5 -14t74.5 -43.5t34 -62t5 -73.5q-4 -44 -27 -84.5t-57 -71t-69 -53t-71 -37.5h214z" />
    <glyph glyph-name="three.tnum_onum" 
d="M163 138l13 126l44 -1q151 3 160 97q3 33 -27 47.5t-77 14.5q-60 0 -155 -19l-8 126q98 23 176 24q136 3 195.5 -50.5t48.5 -137.5q-6 -51 -37 -93t-90 -64q134 -52 114 -181q-4 -30 -14 -57t-32.5 -54.5t-54 -47t-82 -32t-113.5 -11.5q-87 1 -189 26l41 124
q84 -19 163 -21q123 -3 133 82q3 18 -1.5 34t-19 33t-51.5 26.5t-93 8.5h-44z" />
    <glyph glyph-name="four.tnum_onum" horiz-adv-x="605" 
d="M432 -146h-139l20 187h-313l10 100l323 428l174 -1l-43 -412h106l-12 -115h-106zM159 153h167l29 272z" />
    <glyph glyph-name="five.tnum_onum" 
d="M223 166h-123l42 399h394l-15 -141h-258l-14 -139q126 18 206 -38.5t68 -168.5q-11 -103 -82.5 -166t-198.5 -64q-100 -1 -207 28l44 133q89 -24 183 -24q31 0 53.5 9.5t32.5 25t14 26t5 20.5q5 52 -29.5 76t-114.5 24z" />
    <glyph glyph-name="six.tnum_onum" 
d="M282 112q50 0 78 28.5t33 76.5q10 98 -76 98q-34 0 -92 -17l7 116q40 21 103 21q109 0 162 -65t43 -163q-10 -101 -77.5 -160.5t-183.5 -59.5q-51 0 -92 14.5t-66 38t-44 54t-26 62.5t-13 63t-3.5 55.5t1.5 40.5q6 79 30 147.5t68 127.5t117.5 93t169.5 34q74 0 130 -16
l-30 -120q-57 12 -116 12q-97 -1 -158 -69.5t-65 -211.5q-6 -200 100 -200z" />
    <glyph glyph-name="seven.tnum_onum" 
d="M225 -163h-157l315 582h-331l14 134h482l-12 -120z" />
    <glyph glyph-name="eight.tnum_onum" 
d="M259 -12q-73 1 -122.5 21t-70.5 52.5t-27.5 62t-3.5 61.5q2 49 41.5 97.5t105.5 73.5q-52 23 -78 69t-20 105q10 92 85.5 140.5t170.5 48.5q51 0 91.5 -12.5t64 -32t38 -45.5t19 -50t1.5 -48q-5 -51 -38.5 -93.5t-83.5 -64.5q55 -25 85 -74t20 -120q-4 -24 -13.5 -47.5
t-31 -50t-51 -46.5t-77 -33.5t-105.5 -13.5zM400 195q7 46 -31 74.5t-87 35.5q-104 -43 -106 -113q-3 -41 25.5 -61t71.5 -20q51 0 84 17.5t43 66.5zM225 525q-1 -13 1.5 -26t10.5 -29.5t28.5 -31t50.5 -22.5q87 33 95 104q4 42 -19.5 61.5t-63.5 19.5t-70 -19t-33 -57z" />
    <glyph glyph-name="nine.pnum_lnum" 
d="M313 591q-52 2 -78 -23.5t-36 -81.5q-7 -45 13 -78t63 -34q52 -2 91 13l-18 -112q-48 -20 -107 -18q-103 4 -154 73t-36 164q18 109 94.5 168.5t186.5 53.5q52 -2 92 -19.5t64 -41.5t39.5 -58.5t22 -65t7.5 -68t-0.5 -58.5t-4.5 -46q-7 -54 -17 -97.5t-33.5 -96
t-56.5 -88.5t-88.5 -61t-126.5 -26q-102 -2 -172 22l27 115q79 -11 127 -10q76 3 120.5 48.5t62.5 135.5q13 87 15 150t-21.5 100t-75.5 40z" />
    <glyph glyph-name="zero.tnum_onum" 
d="M542 281q-13 -131 -81 -211.5t-206 -80.5q-119 1 -173 85t-40 207q9 82 39 144t93 103t153 42q120 0 174 -75.5t41 -213.5zM190 281q-8 -69 9.5 -116t66.5 -48q61 1 88.5 41t37.5 123q18 169 -75 169q-55 -1 -86.5 -46.5t-40.5 -122.5z" />
    <glyph glyph-name="slashed_zero" 
d="M571 345q-16 -160 -98.5 -260t-217.5 -101q-92 1 -149.5 49.5t-77.5 127.5t-10 184q17 160 97.5 263t219.5 104q75 -1 127.5 -30.5t76.5 -79.5t33 -116t-1 -141zM173 345q-4 -60 -1 -112t27.5 -87t68.5 -36q67 1 104 68t47 167q4 61 1.5 115t-28 92.5t-71.5 39.5
q-45 -1 -78 -40t-48 -91t-22 -116zM215 356q0 35 25 60t60 25t60 -25t25 -60t-25 -60t-60 -25t-60 25t-25 60z" />
    <glyph glyph-name="slashed_zero.tnum_onum" 
d="M542 281q-13 -131 -81 -211.5t-206 -80.5q-119 1 -173 85t-40 207q9 82 39 144t93 103t153 42q120 0 174 -75.5t41 -213.5zM190 281q-8 -69 9.5 -116t66.5 -48q61 1 88.5 41t37.5 123q18 169 -75 169q-55 -1 -86.5 -46.5t-40.5 -122.5zM228 282q0 29 20 49t48 20
t48.5 -20.5t20.5 -48.5t-20 -48t-49 -20q-28 0 -48 20t-20 48z" />
    <glyph glyph-name="IJ.alt" horiz-adv-x="809" 
d="M359 116l-13 -116h-321l13 116h87l51 495h-85l13 117h317l-13 -117h-82l-51 -495h84zM784 728l-51 -491q-7 -68 -21 -111t-43.5 -75.5t-79 -47t-125.5 -14.5q-35 0 -93 10l17 131q56 -6 81 -6q65 0 86.5 28.5t28.5 103.5l49 472h151z" />
    <glyph glyph-name="ldot.alt" horiz-adv-x="481" 
 />
    <glyph glyph-name="lslash.alt" horiz-adv-x="364" 
d="M-45 235l10 99l122 57l46 371h140l-31 -298l167 78l-11 -102l-166 -77l-17 -167q-7 -41 -1 -60t36 -19q26 0 47 7l31 -107q-54 -23 -110 -24q-173 5 -156 192l13 105z" />
    <glyph glyph-name="ffl.alt" horiz-adv-x="1035" 
d="M964 124l31 -107q-54 -23 -110 -24q-173 5 -156 192l57 466q-80 5 -106 5q-96 -4 -105 -81l-2 -20h116l-12 -108h-116l-65 -607h-140l65 605h-165l-64 -605l-144 1l66 604h-104l6 110h108l5 37q10 93 65.5 137t160.5 46q30 0 56 -2l-14 -121l-37 2q-42 0 -63.5 -16
t-27.5 -59l-3 -24h167l2 21q21 199 264 199q90 0 194 -13h47l-58 -566q-7 -41 -1 -60t36 -19q26 0 47 7z" />
    <glyph glyph-name="kcommaaccent.alt" horiz-adv-x="588" 
 />
    <glyph glyph-name="lcaron.alt" horiz-adv-x="529" 
 />
    <glyph glyph-name="lcommaaccent.alt" horiz-adv-x="358" 
 />
    <glyph glyph-name="lacute.alt" horiz-adv-x="358" 
 />
    <glyph glyph-name="l.alt" horiz-adv-x="358" 
d="M287 124l31 -107q-54 -23 -110 -24q-173 5 -156 192l71 577h140l-58 -566q-7 -41 -1 -60t36 -19q26 0 47 7z" />
    <glyph glyph-name=".notdef.001" horiz-adv-x="220" 
 />
    <glyph glyph-name="logicalnot.case" 
d="M48 421h522l-27 -265h-99l16 159h-423z" />
    <glyph glyph-name="minus.case" 
d="M562 421l-11 -106h-522l11 106h522z" />
    <glyph glyph-name="plusminus.case" 
d="M25 310l11 107h205l22 207h111l-22 -207h205l-11 -107h-205l-12 -107h-111l12 107h-205zM562 157l-11 -106h-522l11 106h522z" />
    <glyph glyph-name="notequal.case" 
d="M571 527l-11 -106h-200l-55 -118h243l-11 -106h-281l-60 -126h-78l60 126h-163l11 106h201l55 118h-244l11 106h283l82 172h78l-82 -172h161z" />
    <glyph glyph-name="lessequal.case" 
d="M539 198l-16 -147h-522l11 106h382l-347 163l9 83l527 237l-12 -118l-362 -160z" />
    <glyph glyph-name="greaterequal.case" 
d="M562 155l-11 -106h-522l17 149l364 170l-328 160l12 112l478 -237l-8 -83l-386 -165h384z" />
    <glyph glyph-name="approxequal.case" 
d="M424 442q29 0 37 34.5t7 88.5h119q2 -106 -37 -167.5t-124 -61.5q-43 0 -84 20t-67 43.5t-55 43.5t-51 20q-19 0 -30.5 -13t-14.5 -26.5t-5 -35.5h-116q0 88 42 141t123 53q38 0 76.5 -22t65 -48t58 -48t56.5 -22zM425 216q46 0 44 89h119q2 -93 -41 -144t-120 -51
q-43 0 -84 20t-67 43.5t-55 43.5t-51 20q-17 0 -27.5 -8t-15 -22.5t-5.5 -27t-1 -31t-1 -24.5h-116q0 231 165 231q38 0 76.5 -21.5t65 -48t58 -48t56.5 -21.5z" />
    <glyph glyph-name="infinity.case" horiz-adv-x="747" 
d="M738 373q-6 -49 -30 -85t-55 -53.5t-59.5 -25t-51.5 -6.5q-109 6 -177 100q-54 -54 -102 -78.5t-114 -22.5q-70 2 -108.5 51.5t-32.5 114.5q8 86 63 131.5t115 45.5q63 0 106.5 -28t83.5 -85q105 120 208 120q26 0 51.5 -7.5t52.5 -25.5t41.5 -56t8.5 -90zM568 451
q-32 0 -68 -27t-58 -58q45 -66 107 -65q37 1 56.5 21.5t23.5 53.5q3 31 -13 53t-48 22zM171 299q36 0 64.5 15.5t65.5 53.5q-56 82 -114 82q-37 0 -55 -24t-21 -55q-3 -27 12.5 -49.5t47.5 -22.5z" />
    <glyph glyph-name="less.case" 
d="M521 208l-15 -116l-462 228l11 83l518 227l-15 -118l-350 -150z" />
    <glyph glyph-name="equal.case" 
d="M577 527l-13 -106h-522l13 106h522zM549 303l-13 -106h-522l13 106h522z" />
    <glyph glyph-name="greater.case" 
d="M16 92l15 116l351 154l-314 150l15 118l462 -227l-11 -83z" />
    <glyph glyph-name="multiply.case" 
d="M515 166l-75 -66l-160 184l-192 -169l-62 71l191 170l-153 173l75 66l151 -174l203 180l62 -71l-200 -181z" />
    <glyph glyph-name="divide.case" 
d="M234 561q5 35 33 59.5t64 24.5q35 0 56.5 -25t17.5 -59q-4 -35 -31.5 -59.5t-62.5 -24.5q-37 0 -59 24.5t-18 59.5zM185 164q5 35 33 59.5t64 24.5q35 0 56.5 -25t17.5 -59q-4 -35 -31.5 -59.5t-62.5 -24.5q-37 0 -59 24.5t-18 59.5zM562 421l-13 -106h-522l13 106h522z
" />
    <glyph glyph-name="k.alt" horiz-adv-x="588" 
d="M220 174l-17 -174h-153l73 762h154l-45 -462q158 55 182 266h144q-14 -186 -134 -293l144 -274h-154l-99 205q-47 -21 -95 -30z" />
    <glyph glyph-name="notequal.001" 
d="M557 477v-106h-200l-43 -118h243v-106h-281l-46 -126h-78l46 126h-163v106h201l43 118h-244v106h283l63 172h78l-63 -172h161z" />
    <glyph glyph-name=".notdef.006" horiz-adv-x="0" 
 />
    <glyph glyph-name="Nouvelle_Noire" horiz-adv-x="704" 
d="M45 40q0 6 5 19t5 18q0 2 -0.5 3t-0.5 2q0 2 0.5 4t0.5 3q0 3 -3 5v11q0 7 2.5 21t2.5 20q0 11 -5 35.5t-5 36.5q0 13 6.5 22.5t19.5 10.5l68 9q240 18 478 18q26 0 33 -12q7 -58 7 -75l-1 -4q1 -20 -6 -59.5t-5 -59.5q-2 -3 -3.5 -7t-2 -5.5t-2 -3.5t-3.5 -3.5t-6 -2.5
q-15 -4 -88.5 -5t-187.5 -4.5t-206 -12.5q-5 -3 -21 -3l-7 1h-14q-8 0 -22 -1.5t-21 -1.5q-18 0 -18 21zM441 324h-68v299h68l130 -198v198h68v-299h-68l-130 196v-196zM142 324h-68v299h68l130 -198v198h63v-299h-63l-130 196v-196z" />
    <glyph glyph-name="Nouvelle_Noire_Stroke" horiz-adv-x="761" 
d="M45 66q0 16 14 50t14 48q0 4 -2 7.5t-2 5.5q0 6 2 11.5t2 7.5q0 9 -9 14v29q0 19 6.5 57t6.5 54q0 30 -13.5 94t-13.5 97q0 34 18.5 60t51.5 28l182 24q54 -5 160 6.5t148 11.5q22 0 34 -1t28.5 -8.5t24.5 -22.5q19 -137 19 -200l-4 -10q5 -53 -14 -159t-15 -157
q-3 -7 -7 -16.5t-5.5 -13.5t-4.5 -9.5t-6.5 -8t-9 -6t-13.5 -6.5q-58 -14 -168.5 -19t-148.5 -10q-14 -9 -56 -9l-18 4h-39q-20 0 -57 -4.5t-58 -4.5q-20 0 -33.5 17t-13.5 39z" />
    </font>
</defs>
</svg>
